<?xml version="1.0" encoding="UTF-8"?>
<svg width="400px" height="400px" viewBox="0 0 400 400" version="1.1" xmlns="http://www.w3.org/2000/svg" xmlns:xlink="http://www.w3.org/1999/xlink">
    <title>编组 53</title>
    <g id="页面-1" stroke="none" stroke-width="1" fill="none" fill-rule="evenodd">
        <g id="编组-53">
            <circle id="椭圆形" fill="#FFEDAD" cx="200" cy="200" r="200"></circle>
            <g id="0" transform="translate(143, 123)" fill="#000000" fill-rule="nonzero">
                <path d="M89.7016575,88.5834254 C90.0257827,85.828361 90.3093923,83.0732965 90.5524862,80.318232 C90.7955801,77.5631676 90.9171271,74.8081031 90.9171271,72.0530387 C90.9171271,70.2703499 90.8360958,68.3661142 90.6740331,66.3403315 C90.5119705,64.3145488 90.2688766,62.2482505 89.9447514,60.1414365 C89.2965009,55.9278085 88.5267035,51.7952118 87.6353591,47.7436464 C86.7440147,43.692081 85.1639042,39.8836096 82.8950276,36.318232 C80.1399632,31.6184162 76.7366483,27.9720074 72.6850829,25.3790055 C68.6335175,22.7860037 64.4198895,21.4895028 60.0441989,21.4895028 C56.9650092,21.4895028 53.8453039,22.1782689 50.6850829,23.5558011 C47.5248619,24.9333333 44.5672192,26.8375691 41.8121547,29.2685083 C38.8950276,32.0235727 36.3425414,35.4268877 34.1546961,39.478453 C31.9668508,43.5300184 30.0626151,47.9867403 28.441989,52.8486188 C26.8213628,57.7104972 25.6058932,62.8154696 24.7955801,68.1635359 C23.985267,73.5116022 23.5801105,78.8596685 23.5801105,84.2077348 C23.5801105,91.9867403 24.4714549,99.3200737 26.2541436,106.207735 C28.0368324,113.095396 30.7918969,118.727072 34.519337,123.102762 C37.2744015,126.181952 40.1104972,128.288766 43.0276243,129.423204 C45.9447514,130.557643 49.0239411,131.530018 52.2651934,132.340331 C57.6132597,131.530018 62.3130755,129.828361 66.3646409,127.235359 C70.4162063,124.642357 73.9815838,121.441621 77.0607735,117.633149 C80.1399632,113.824678 82.6924494,109.570534 84.718232,104.870718 C86.7440147,100.170902 88.3241252,95.2279926 89.4585635,90.041989 L89.7016575,88.5834254 Z M113.524862,91.5005525 C112.066298,97.3348066 109.837937,103.655249 106.839779,110.461878 C103.841621,117.268508 100.154696,123.629466 95.7790055,129.544751 C91.4033149,135.460037 86.3793738,140.605525 80.7071823,144.981215 C75.0349908,149.356906 68.7145488,152.030939 61.7458564,153.003315 C60.2872928,153.32744 58.6666667,153.530018 56.8839779,153.61105 C55.1012891,153.692081 53.3996317,153.732597 51.7790055,153.732597 C48.8618785,153.732597 45.9447514,153.448987 43.0276243,152.881768 C40.1104972,152.314549 37.2744015,151.301657 34.519337,149.843094 L31.8453039,148.38453 C28.7661142,146.925967 25.8489871,145.305341 23.0939227,143.522652 C20.3388582,141.739963 18.0699816,139.471087 16.2872928,136.716022 C10.6151013,128.937017 6.4825046,120.428729 3.88950276,111.19116 C1.29650092,101.953591 9.09494702e-13,92.7160221 9.09494702e-13,83.478453 C9.09494702e-13,80.0751381 0.162062615,76.6313076 0.486187845,73.1469613 C0.810313076,69.6626151 1.21546961,66.2998158 1.70165746,63.0585635 C2.67403315,56.4139963 4.53775322,49.4453039 7.29281768,42.1524862 C10.0478821,34.8596685 13.6537753,28.1745856 18.1104972,22.0972376 C22.5672192,16.0198895 27.9558011,10.9149171 34.2762431,6.78232044 C40.5966851,2.64972376 47.8084715,0.421362799 55.9116022,0.0972375691 C59.801105,-0.064825046 63.5690608,-0.0243093923 67.2154696,0.21878453 C70.8618785,0.461878453 74.305709,1.31270718 77.5469613,2.77127072 C80.7882136,4.39189687 84.1510129,6.33664825 87.6353591,8.60552486 C91.1197053,10.8744015 93.9963168,13.1432781 96.2651934,15.4121547 C102.747698,22.867035 107.447514,31.6994475 110.364641,41.9093923 C113.281768,52.119337 114.740331,62.0861878 114.740331,71.8099448 C114.740331,75.2132597 114.618785,78.5355433 114.375691,81.7767956 C114.132597,85.0180479 113.848987,88.1782689 113.524862,91.2574586 L113.524862,91.5005525 Z" id="形状"></path>
            </g>
        </g>
    </g>
</svg>