<?xml version="1.0" encoding="UTF-8"?>
<svg width="400px" height="400px" viewBox="0 0 400 400" version="1.1" xmlns="http://www.w3.org/2000/svg" xmlns:xlink="http://www.w3.org/1999/xlink">
    <title>编组 54</title>
    <g id="页面-1" stroke="none" stroke-width="1" fill="none" fill-rule="evenodd">
        <g id="编组-54">
            <circle id="椭圆形备份" fill="#FFEDAD" cx="200" cy="200" r="200"></circle>
            <g id="1" transform="translate(170, 126)" fill="#000000" fill-rule="nonzero">
                <path d="M50.320442,125.922652 C54.0478821,126.895028 56.7219153,128.394107 58.3425414,130.41989 C59.9631676,132.445672 60.7734807,134.593002 60.7734807,136.861878 C60.7734807,139.130755 59.8821363,141.237569 58.0994475,143.18232 C56.3167587,145.127072 53.480663,146.585635 49.5911602,147.558011 L12.1546961,147.558011 C7.94106814,147.233886 4.86187845,145.977901 2.91712707,143.790055 C0.972375691,141.60221 0,139.292818 0,136.861878 C0,134.268877 1.053407,131.797422 3.16022099,129.447514 C5.26703499,127.097606 8.5893186,125.922652 13.1270718,125.922652 L17.7458564,125.922652 L17.7458564,30.8729282 C16.4493554,31.359116 14.8287293,31.6022099 12.8839779,31.6022099 C9.48066298,31.6022099 6.76611418,30.6298343 4.74033149,28.6850829 C2.7145488,26.7403315 1.70165746,24.3904236 1.70165746,21.6353591 C1.70165746,20.1767956 2.06629834,18.6777164 2.79558011,17.1381215 C3.52486188,15.5985267 4.61878453,14.1804788 6.07734807,12.8839779 L23.8232044,1.21546961 C26.2541436,0.405156538 28.3609576,0 30.1436464,0 C36.3020258,0 40.1915285,2.99815838 41.8121547,8.99447514 L41.8121547,125.922652 L50.320442,125.922652 Z" id="路径"></path>
            </g>
        </g>
    </g>
</svg>