<?xml version="1.0" encoding="UTF-8"?>
<svg width="400px" height="400px" viewBox="0 0 400 400" version="1.1" xmlns="http://www.w3.org/2000/svg" xmlns:xlink="http://www.w3.org/1999/xlink">
    <title>编组 55</title>
    <g id="页面-1" stroke="none" stroke-width="1" fill="none" fill-rule="evenodd">
        <g id="编组-55">
            <circle id="椭圆形备份-2" fill="#FFEDAD" cx="200" cy="200" r="200"></circle>
            <path d="M204.237569,148.337017 C197.917127,148.337017 192.082873,150.119705 186.734807,153.685083 C181.38674,157.25046 176.362799,161.464088 171.662983,166.325967 C168.907919,168.594843 165.747698,169.729282 162.18232,169.729282 C158.941068,169.729282 156.267035,168.71639 154.160221,166.690608 C152.053407,164.664825 151,162.031308 151,158.790055 C151,156.197053 151.810313,153.604052 153.430939,151.01105 C156.510129,147.769797 159.872928,144.569061 163.519337,141.40884 C167.165746,138.248619 171.014733,135.453039 175.066298,133.022099 C179.117864,130.59116 183.372007,128.646409 187.828729,127.187845 C192.285451,125.729282 196.86372,125 201.563536,125 C206.911602,125 211.935543,126.093923 216.635359,128.281768 C221.335175,130.469613 225.427256,133.548803 228.911602,137.519337 C232.395948,141.489871 235.151013,146.230203 237.176796,151.740331 C239.202578,157.25046 240.21547,163.327808 240.21547,169.972376 C240.21547,175.320442 239.162063,180.263352 237.055249,184.801105 C234.948435,189.338858 232.274401,193.471455 229.033149,197.198895 C225.791897,200.926335 222.104972,204.289134 217.972376,207.287293 C213.839779,210.285451 209.747698,213 205.696133,215.430939 C202.45488,217.375691 199.294659,219.401473 196.21547,221.508287 C193.13628,223.615101 190.259669,226.046041 187.585635,228.801105 C184.911602,231.556169 182.60221,234.797422 180.657459,238.524862 C178.712707,242.252302 177.335175,246.627993 176.524862,251.651934 L219.552486,251.651934 C221.01105,251.489871 222.226519,251.084715 223.198895,250.436464 C224.171271,249.788214 225.022099,249.058932 225.751381,248.248619 C226.480663,247.438306 227.209945,246.587477 227.939227,245.696133 C228.668508,244.804788 229.519337,244.116022 230.491713,243.629834 C231.464088,243.143646 232.517495,242.819521 233.651934,242.657459 C234.786372,242.495396 235.92081,242.414365 237.055249,242.414365 C240.458564,242.414365 243.254144,243.508287 245.441989,245.696133 C247.629834,247.883978 248.723757,250.436464 248.723757,253.353591 C248.723757,255.13628 248.480663,256.513812 247.994475,257.486188 C247.508287,258.458564 247.022099,259.268877 246.535912,259.917127 C243.294659,264.130755 239.526703,267.655617 235.232044,270.491713 C230.937385,273.327808 225.953959,274.745856 220.281768,274.745856 L163.154696,274.745856 C155.861878,273.935543 151.810313,269.883978 151,262.59116 C151.486188,257.243094 152.21547,252.016575 153.187845,246.911602 C154.160221,241.80663 155.537753,236.904236 157.320442,232.20442 C159.103131,227.504604 161.412523,223.088398 164.248619,218.955801 C167.084715,214.823204 170.609576,211.055249 174.823204,207.651934 C176.119705,206.517495 178.023941,205.220994 180.535912,203.762431 C183.047882,202.303867 185.600368,200.764273 188.19337,199.143646 C191.434622,197.198895 194.71639,195.213628 198.038674,193.187845 C201.360958,191.162063 204.359116,188.812155 207.033149,186.138122 C209.707182,183.464088 211.854512,180.506446 213.475138,177.265193 C215.095764,174.023941 215.906077,170.21547 215.906077,165.839779 C215.906077,162.274401 214.771639,158.668508 212.502762,155.022099 C210.233886,151.375691 207.478821,149.14733 204.237569,148.337017 Z" id="路径" fill="#000000" fill-rule="nonzero"></path>
        </g>
    </g>
</svg>