<?xml version="1.0" encoding="UTF-8"?>
<svg width="400px" height="400px" viewBox="0 0 400 400" version="1.1" xmlns="http://www.w3.org/2000/svg" xmlns:xlink="http://www.w3.org/1999/xlink">
    <title>编组 61</title>
    <g id="页面-1" stroke="none" stroke-width="1" fill="none" fill-rule="evenodd">
        <g id="编组-61">
            <circle id="椭圆形备份-3" fill="#FFEDAD" cx="200" cy="200" r="200"></circle>
            <path d="M158.160221,256.78453 C156.053407,253.705341 155,251.112339 155,249.005525 C155,245.926335 156.093923,243.45488 158.281768,241.59116 C160.469613,239.72744 163.184162,238.79558 166.425414,238.79558 C168.856354,238.79558 171.165746,239.443831 173.353591,240.740331 C175.541436,242.036832 177.769797,243.576427 180.038674,245.359116 L179.79558,245.359116 C182.388582,247.141805 184.981584,248.883978 187.574586,250.585635 C190.167587,252.287293 192.922652,253.138122 195.839779,253.138122 C199.891344,253.138122 203.456722,252.246777 206.535912,250.464088 C209.615101,248.6814 212.208103,246.331492 214.314917,243.414365 C216.421731,240.497238 218.042357,237.21547 219.176796,233.569061 C220.311234,229.922652 220.878453,226.154696 220.878453,222.265193 C220.878453,218.375691 219.541436,215.134438 216.867403,212.541436 C214.19337,209.948435 210.952118,207.882136 207.143646,206.342541 C203.335175,204.802947 199.324125,203.709024 195.110497,203.060773 C190.896869,202.412523 187.331492,202.088398 184.414365,202.088398 C180.686924,201.116022 178.012891,199.657459 176.392265,197.712707 C174.771639,195.767956 173.961326,193.661142 173.961326,191.392265 C173.961326,189.123389 174.85267,186.976059 176.635359,184.950276 C178.418048,182.924494 181.173112,181.506446 184.900552,180.696133 C187.493554,180.372007 190.32965,179.88582 193.40884,179.237569 C196.488029,178.589319 199.486188,177.697974 202.403315,176.563536 C205.320442,175.429098 207.953959,173.970534 210.303867,172.187845 C212.653775,170.405157 214.47698,168.298343 215.773481,165.867403 C217.069982,158.736648 215.976059,153.834254 212.491713,151.160221 C209.007366,148.486188 204.267035,147.149171 198.270718,147.149171 C194.705341,147.149171 190.896869,147.513812 186.845304,148.243094 C182.793738,148.972376 179.633517,149.985267 177.364641,151.281768 C175.581952,152.578269 174.001842,153.59116 172.624309,154.320442 C171.246777,155.049724 169.423573,155.414365 167.154696,155.414365 C164.075506,155.414365 161.401473,154.320442 159.132597,152.132597 C156.86372,149.944751 155.729282,146.744015 155.729282,142.530387 C156.86372,138.802947 159.213628,135.845304 162.779006,133.657459 C166.344383,131.469613 170.233886,129.808471 174.447514,128.674033 C178.661142,127.539595 182.834254,126.810313 186.966851,126.486188 C191.099448,126.162063 194.300184,126 196.569061,126 C202.565378,126 208.197053,126.688766 213.464088,128.066298 C218.731123,129.443831 223.309392,131.550645 227.198895,134.38674 C231.088398,137.222836 234.167587,140.869245 236.436464,145.325967 C238.705341,149.782689 239.839779,155.009208 239.839779,161.005525 C239.839779,162.302026 239.799263,164.003683 239.718232,166.110497 C239.637201,168.217311 239.110497,170.567219 238.138122,173.160221 C237.165746,175.753223 235.54512,178.508287 233.276243,181.425414 C231.007366,184.342541 227.685083,187.259669 223.309392,190.176796 C229.305709,193.58011 234.572744,198.279926 239.110497,204.276243 C243.64825,210.27256 245.917127,217.160221 245.917127,224.939227 C245.917127,231.259669 244.458564,237.377532 241.541436,243.292818 C238.624309,249.208103 234.856354,254.515654 230.237569,259.21547 C225.618785,263.915285 220.432781,267.683241 214.679558,270.519337 C208.926335,273.355433 203.132597,274.773481 197.298343,274.773481 C189.519337,274.773481 182.429098,272.990792 176.027624,269.425414 C169.626151,265.860037 163.67035,261.646409 158.160221,256.78453 Z" id="路径" fill="#000000" fill-rule="nonzero"></path>
        </g>
    </g>
</svg>