<?xml version="1.0" encoding="UTF-8"?>
<svg width="400px" height="400px" viewBox="0 0 400 400" version="1.1" xmlns="http://www.w3.org/2000/svg" xmlns:xlink="http://www.w3.org/1999/xlink">
    <title>编组 58</title>
    <g id="页面-1" stroke="none" stroke-width="1" fill="none" fill-rule="evenodd">
        <g id="编组-58">
            <circle id="椭圆形备份-4" fill="#FFEDAD" cx="200" cy="200" r="200"></circle>
            <path d="M230.812155,263.292818 C230.650092,267.506446 229.394107,270.626151 227.044199,272.651934 C224.694291,274.677716 221.898711,275.690608 218.657459,275.690608 C215.902394,275.690608 213.390424,274.799263 211.121547,273.016575 C208.85267,271.233886 207.475138,268.316759 206.98895,264.265193 L206.98895,238.497238 L157.154696,237.767956 C149.051565,237.119705 145,233.392265 145,226.585635 C145,226.099448 145.162063,225.046041 145.486188,223.425414 C150.996317,213.377532 156.587477,203.451197 162.259669,193.646409 C167.93186,183.841621 173.604052,174.077348 179.276243,164.353591 L198.966851,130.320442 C201.721915,126.106814 205.530387,124 210.392265,124 C213.14733,124 215.740331,124.972376 218.171271,126.917127 C220.60221,128.861878 221.81768,131.45488 221.81768,134.696133 C221.81768,136.154696 221.25046,137.937385 220.116022,140.044199 C216.388582,146.526703 212.661142,152.968692 208.933702,159.370166 C205.206262,165.771639 201.478821,172.294659 197.751381,178.939227 L176.116022,216.132597 L206.98895,216.861878 L206.98895,191.093923 C208.933702,184.287293 212.823204,180.883978 218.657459,180.883978 C221.574586,180.883978 224.127072,181.653775 226.314917,183.19337 C228.502762,184.732965 230.001842,187.123389 230.812155,190.364641 L230.812155,217.104972 L243.696133,217.104972 C250.664825,219.697974 254.149171,223.344383 254.149171,228.044199 C254.149171,233.392265 250.3407,237.038674 242.723757,238.983425 C240.616943,238.983425 238.712707,239.023941 237.01105,239.104972 C235.309392,239.186004 233.243094,239.145488 230.812155,238.983425 L230.812155,263.292818 Z" id="路径" fill="#000000" fill-rule="nonzero"></path>
        </g>
    </g>
</svg>