<?xml version="1.0" encoding="UTF-8"?>
<svg width="400px" height="400px" viewBox="0 0 400 400" version="1.1" xmlns="http://www.w3.org/2000/svg" xmlns:xlink="http://www.w3.org/1999/xlink">
    <title>编组 57</title>
    <g id="页面-1" stroke="none" stroke-width="1" fill="none" fill-rule="evenodd">
        <g id="编组-57">
            <circle id="椭圆形备份-5" fill="#FFEDAD" cx="200" cy="200" r="200"></circle>
            <g id="5" transform="translate(151, 126)" fill="#000000" fill-rule="nonzero">
                <path d="M5.59116022,135.889503 C2.51197053,132.810313 0.972375691,129.569061 0.972375691,126.165746 C0.972375691,123.248619 2.06629834,120.777164 4.25414365,118.751381 C6.44198895,116.725599 9.31860037,115.712707 12.8839779,115.712707 C15.1528545,115.712707 17.0165746,115.955801 18.4751381,116.441989 C27.0644567,122.276243 35.7348066,125.19337 44.4861878,125.19337 C48.213628,125.19337 51.8195212,124.504604 55.3038674,123.127072 C58.7882136,121.74954 61.8674033,119.804788 64.5414365,117.292818 C67.2154696,114.780847 69.3222836,111.782689 70.8618785,108.298343 C72.4014733,104.813996 73.1712707,100.883978 73.1712707,96.5082873 C73.1712707,92.1325967 72.198895,88.4456722 70.2541436,85.4475138 C68.3093923,82.4493554 65.878453,80.0184162 62.961326,78.1546961 C60.0441989,76.2909761 56.8839779,74.9539595 53.480663,74.1436464 C50.0773481,73.3333333 46.9171271,72.9281768 44,72.9281768 C39.1381215,72.9281768 34.0331492,73.7384899 28.6850829,75.359116 C28.3609576,75.5211786 27.9152855,75.8453039 27.3480663,76.3314917 C26.7808471,76.8176796 26.1731123,77.3848987 25.5248619,78.0331492 C24.5524862,79.0055249 23.5801105,79.8563536 22.6077348,80.5856354 C21.6353591,81.3149171 19.9337017,81.679558 17.5027624,81.679558 C14.4235727,81.679558 11.7090239,80.747698 9.35911602,78.8839779 C7.0092081,77.0202578 5.59116022,73.9815838 5.10497238,69.7679558 C4.78084715,65.5543278 4.61878453,61.4217311 4.61878453,57.3701657 C4.61878453,53.3186004 4.53775322,49.1860037 4.37569061,44.9723757 L3.64640884,20.4198895 C1.21546961,17.9889503 0,15.3959484 0,12.640884 C0,9.88581952 1.13443831,7.25230203 3.40331492,4.74033149 C5.67219153,2.22836096 8.99447514,0.972375691 13.3701657,0.972375691 C14.3425414,0.972375691 15.9226519,0.972375691 18.1104972,0.972375691 C20.2983425,0.972375691 22.8913444,0.931860037 25.8895028,0.850828729 C28.8876611,0.769797422 32.2099448,0.688766114 35.8563536,0.607734807 C39.5027624,0.526703499 43.1896869,0.486187845 46.9171271,0.486187845 C50.320442,0.486187845 53.8047882,0.445672192 57.3701657,0.364640884 C60.9355433,0.283609576 64.2578269,0.202578269 67.3370166,0.121546961 C70.4162063,0.0405156538 73.0497238,2.84217094e-14 75.2375691,2.84217094e-14 C77.4254144,2.84217094e-14 78.9244936,2.84217094e-14 79.7348066,2.84217094e-14 C83.6243094,0.972375691 86.4198895,2.47145488 88.121547,4.49723757 C89.8232044,6.52302026 90.6740331,8.75138122 90.6740331,11.1823204 C90.6740331,13.7753223 89.7016575,16.0847145 87.7569061,18.1104972 C85.8121547,20.1362799 82.8950276,21.6353591 79.0055249,22.6077348 C74.6298343,22.7697974 70.1325967,22.8913444 65.5138122,22.9723757 C60.8950276,23.053407 56.3977901,23.0939227 52.0220994,23.0939227 C47.6464088,23.0939227 43.7163904,23.053407 40.2320442,22.9723757 C36.747698,22.8913444 32.7366483,23.0128913 28.198895,23.3370166 L29.1712707,52.0220994 C31.7642726,51.373849 34.3572744,50.9281768 36.9502762,50.6850829 C39.5432781,50.441989 42.2173112,50.320442 44.9723757,50.320442 C53.2375691,50.320442 60.611418,51.6574586 67.0939227,54.3314917 C73.5764273,57.0055249 79.1270718,60.611418 83.7458564,65.1491713 C88.3646409,69.6869245 91.8895028,74.8324125 94.320442,80.5856354 C96.7513812,86.3388582 97.9668508,92.213628 97.9668508,98.2099448 C97.9668508,104.044199 96.6703499,109.918969 94.0773481,115.834254 C91.4843462,121.74954 87.8379374,127.097606 83.1381215,131.878453 C78.4383057,136.6593 72.8471455,140.548803 66.3646409,143.546961 C59.8821363,146.54512 52.7513812,148.044199 44.9723757,148.044199 C37.8416206,148.044199 30.9539595,146.950276 24.3093923,144.762431 C17.664825,142.574586 11.4254144,139.616943 5.59116022,135.889503 Z" id="路径"></path>
            </g>
        </g>
    </g>
</svg>