<?xml version="1.0" encoding="UTF-8"?>
<svg width="400px" height="400px" viewBox="0 0 400 400" version="1.1" xmlns="http://www.w3.org/2000/svg" xmlns:xlink="http://www.w3.org/1999/xlink">
    <title>编组 60</title>
    <g id="页面-1" stroke="none" stroke-width="1" fill="none" fill-rule="evenodd">
        <g id="编组-60">
            <circle id="椭圆形备份-6" fill="#FFEDAD" cx="200" cy="200" r="200"></circle>
            <path d="M214.662983,143.718232 C207.532228,149.876611 200.887661,157.169429 194.729282,165.596685 C188.570902,174.023941 183.627993,183.099448 179.900552,192.823204 C187.841621,188.609576 196.349908,186.502762 205.425414,186.502762 C211.745856,186.502762 217.620626,187.434622 223.049724,189.298343 C228.478821,191.162063 233.219153,193.876611 237.270718,197.441989 C241.322284,201.007366 244.482505,205.464088 246.751381,210.812155 C249.020258,216.160221 250.154696,222.237569 250.154696,229.044199 C250.154696,236.499079 249.020258,243.143646 246.751381,248.977901 C244.482505,254.812155 241.281768,259.714549 237.149171,263.685083 C233.016575,267.655617 228.073665,270.694291 222.320442,272.801105 C216.567219,274.907919 210.206262,275.961326 203.237569,275.961326 C195.296501,275.961326 187.801105,274.502762 180.751381,271.585635 C173.701657,268.668508 167.98895,264.292818 163.61326,258.458564 C159.399632,252.624309 156.077348,246.709024 153.646409,240.712707 C151.21547,234.71639 150,228.314917 150,221.508287 C150,213.243094 151.255985,204.815838 153.767956,196.226519 C156.279926,187.637201 159.723757,179.290976 164.099448,171.187845 C168.475138,163.084715 173.58011,155.38674 179.414365,148.093923 C185.248619,140.801105 191.406998,134.237569 197.889503,128.403315 C200.644567,126.134438 203.723757,125 207.127072,125 C210.368324,125 213.042357,125.972376 215.149171,127.917127 C217.255985,129.861878 218.309392,132.211786 218.309392,134.966851 C218.309392,137.721915 217.174954,140.639042 214.906077,143.718232 L214.662983,143.718232 Z M174.066298,227.342541 C174.552486,230.745856 175.646409,234.06814 177.348066,237.309392 C179.049724,240.550645 181.197053,243.427256 183.790055,245.939227 C186.383057,248.451197 189.3407,250.47698 192.662983,252.016575 C195.985267,253.556169 199.348066,254.325967 202.751381,254.325967 C208.423573,254.325967 212.799263,253.313076 215.878453,251.287293 C218.957643,249.26151 221.226519,246.871087 222.685083,244.116022 C224.143646,241.360958 225.034991,238.605893 225.359116,235.850829 C225.683241,233.095764 225.845304,231.069982 225.845304,229.773481 C225.845304,225.721915 225.237569,222.278085 224.022099,219.441989 C222.80663,216.605893 221.267035,214.337017 219.403315,212.635359 C217.539595,210.933702 215.432781,209.718232 213.082873,208.98895 C210.732965,208.259669 208.342541,207.895028 205.911602,207.895028 C199.753223,207.895028 193.878453,209.718232 188.287293,213.364641 C182.696133,217.01105 177.955801,221.67035 174.066298,227.342541 Z" id="形状" fill="#000000" fill-rule="nonzero"></path>
        </g>
    </g>
</svg>