<?xml version="1.0" encoding="UTF-8"?>
<svg width="400px" height="400px" viewBox="0 0 400 400" version="1.1" xmlns="http://www.w3.org/2000/svg" xmlns:xlink="http://www.w3.org/1999/xlink">
    <title>编组 59</title>
    <g id="页面-1" stroke="none" stroke-width="1" fill="none" fill-rule="evenodd">
        <g id="编组-59">
            <circle id="椭圆形备份-7" fill="#FFEDAD" cx="200" cy="200" r="200"></circle>
            <path d="M199.911602,266.237569 C198.615101,269.316759 196.913444,271.54512 194.80663,272.922652 C192.699816,274.300184 190.511971,274.98895 188.243094,274.98895 C185.325967,274.98895 182.732965,274.016575 180.464088,272.071823 C178.195212,270.127072 176.898711,267.290976 176.574586,263.563536 C177.546961,254.001842 179.32965,243.994475 181.922652,233.541436 C184.515654,223.088398 187.797422,212.71639 191.767956,202.425414 C195.73849,192.134438 200.276243,182.208103 205.381215,172.646409 C210.486188,163.084715 215.955801,154.414365 221.790055,146.635359 L156.154696,146.635359 C152.103131,145.987109 149.064457,144.650092 147.038674,142.624309 C145.012891,140.598527 144,138.370166 144,135.939227 C144,133.346225 145.093923,130.915285 147.281768,128.646409 C149.469613,126.377532 152.751381,125.162063 157.127072,125 L246.585635,125 C253.392265,126.782689 256.79558,130.348066 256.79558,135.696133 C256.79558,136.668508 256.714549,137.519337 256.552486,138.248619 C256.390424,138.977901 256.14733,139.747698 255.823204,140.558011 C252.41989,144.771639 249.745856,148.053407 247.801105,150.403315 C245.856354,152.753223 243.992634,155.143646 242.209945,157.574586 C236.861878,165.353591 231.878453,173.578269 227.259669,182.248619 C222.640884,190.918969 218.467772,199.872928 214.740331,209.110497 C211.012891,218.348066 207.893186,227.747698 205.381215,237.309392 C202.869245,246.871087 201.127072,256.432781 200.154696,265.994475 L199.911602,266.237569 Z" id="路径" fill="#000000" fill-rule="nonzero"></path>
        </g>
    </g>
</svg>