<?xml version="1.0" encoding="UTF-8"?>
<svg width="400px" height="400px" viewBox="0 0 400 400" version="1.1" xmlns="http://www.w3.org/2000/svg" xmlns:xlink="http://www.w3.org/1999/xlink">
    <title>编组 56</title>
    <g id="页面-1" stroke="none" stroke-width="1" fill="none" fill-rule="evenodd">
        <g id="编组-56">
            <circle id="椭圆形备份-8" fill="#FFEDAD" cx="200" cy="200" r="200"></circle>
            <path d="M148.121547,232.364641 C148.445672,227.664825 149.458564,223.532228 151.160221,219.966851 C152.861878,216.401473 155.090239,213.160221 157.845304,210.243094 C160.600368,207.325967 163.679558,204.651934 167.082873,202.220994 C170.486188,199.790055 174.051565,197.440147 177.779006,195.171271 L178.022099,194.928177 C171.701657,189.742173 166.232044,183.826888 161.61326,177.18232 C156.994475,170.537753 154.685083,163.082873 154.685083,154.81768 C154.685083,148.6593 156.265193,143.473297 159.425414,139.259669 C162.585635,135.046041 166.637201,131.683241 171.58011,129.171271 C176.52302,126.6593 181.992634,124.836096 187.98895,123.701657 C193.985267,122.567219 199.819521,122 205.491713,122 C210.191529,122 215.053407,122.526703 220.077348,123.58011 C225.101289,124.633517 229.639042,126.375691 233.690608,128.80663 C237.742173,131.237569 241.064457,134.39779 243.657459,138.287293 C246.25046,142.176796 247.546961,147.038674 247.546961,152.872928 C247.546961,157.896869 246.898711,162.394107 245.60221,166.364641 C244.305709,170.335175 242.360958,173.981584 239.767956,177.303867 C237.174954,180.626151 234.055249,183.745856 230.40884,186.662983 C226.762431,189.58011 222.508287,192.497238 217.646409,195.414365 C221.697974,198.007366 225.74954,200.802947 229.801105,203.801105 C233.85267,206.799263 237.499079,210.040516 240.740331,213.524862 C243.981584,217.009208 246.615101,220.696133 248.640884,224.585635 C250.666667,228.475138 251.679558,232.607735 251.679558,236.983425 C251.679558,243.790055 249.734807,249.705341 245.845304,254.729282 C241.955801,259.753223 237.093923,263.926335 231.259669,267.248619 C225.425414,270.570902 219.186004,273.042357 212.541436,274.662983 C205.896869,276.28361 199.819521,277.093923 194.309392,277.093923 C187.98895,277.093923 181.952118,276.202578 176.198895,274.41989 C170.445672,272.637201 165.421731,269.922652 161.127072,266.276243 C156.832413,262.629834 153.469613,258.01105 151.038674,252.41989 C148.607735,246.828729 147.635359,240.143646 148.121547,232.364641 Z M172.430939,230.176796 C171.134438,235.686924 171.012891,240.143646 172.066298,243.546961 C173.119705,246.950276 174.902394,249.624309 177.414365,251.569061 C179.926335,253.513812 182.924494,254.850829 186.40884,255.58011 C189.893186,256.309392 193.337017,256.674033 196.740331,256.674033 C199.333333,256.674033 202.372007,256.349908 205.856354,255.701657 C209.3407,255.053407 212.622468,253.878453 215.701657,252.176796 C218.780847,250.475138 221.373849,248.287293 223.480663,245.61326 C225.587477,242.939227 226.640884,239.495396 226.640884,235.281768 C226.640884,232.526703 225.627993,229.812155 223.60221,227.138122 C221.576427,224.464088 219.104972,221.992634 216.187845,219.723757 C213.270718,217.45488 210.151013,215.307551 206.828729,213.281768 C203.506446,211.255985 200.548803,209.513812 197.955801,208.055249 C192.28361,211.296501 186.935543,214.537753 181.911602,217.779006 C176.887661,221.020258 173.72744,225.152855 172.430939,230.176796 Z M179.480663,161.867403 C181.263352,166.891344 184.018416,170.902394 187.745856,173.900552 C191.473297,176.898711 195.281768,179.775322 199.171271,182.530387 C203.709024,179.775322 207.882136,176.736648 211.690608,173.414365 C215.499079,170.092081 218.94291,165.918969 222.022099,160.895028 C223.156538,157.005525 223.440147,153.845304 222.872928,151.414365 C222.305709,148.983425 221.130755,147.07919 219.348066,145.701657 C217.565378,144.324125 215.296501,143.392265 212.541436,142.906077 C209.786372,142.41989 206.869245,142.176796 203.790055,142.176796 C201.683241,142.176796 199.009208,142.500921 195.767956,143.149171 C192.526703,143.797422 189.447514,144.891344 186.530387,146.430939 C183.61326,147.970534 181.384899,149.996317 179.845304,152.508287 C178.305709,155.020258 178.184162,158.139963 179.480663,161.867403 Z" id="形状" fill="#000000" fill-rule="nonzero"></path>
        </g>
    </g>
</svg>