<?xml version="1.0" encoding="UTF-8"?>
<svg width="400px" height="400px" viewBox="0 0 400 400" version="1.1" xmlns="http://www.w3.org/2000/svg" xmlns:xlink="http://www.w3.org/1999/xlink">
    <title>编组 62</title>
    <g id="页面-1" stroke="none" stroke-width="1" fill="none" fill-rule="evenodd">
        <g id="编组-62">
            <circle id="椭圆形备份-9" fill="#FFEDAD" cx="200" cy="200" r="200"></circle>
            <g id="9" transform="translate(148, 123)" fill="#000000" fill-rule="nonzero">
                <path d="M39.8674033,154.121547 C38.8950276,154.121547 38.1252302,154.162063 37.558011,154.243094 C36.9907919,154.324125 36.3020258,154.364641 35.4917127,154.364641 C31.6022099,154.364641 28.5635359,153.432781 26.3756906,151.569061 C24.1878453,149.705341 23.0939227,147.395948 23.0939227,144.640884 C23.0939227,141.561694 24.8766114,138.482505 28.441989,135.403315 C38.6519337,130.703499 47.4033149,124.788214 54.6961326,117.657459 C61.9889503,110.526703 67.7421731,101.937385 71.9558011,91.8895028 C68.3904236,93.1860037 64.825046,94.1178637 61.2596685,94.6850829 C57.694291,95.252302 54.0478821,95.5359116 50.320442,95.5359116 C41.7311234,95.5359116 34.3167587,94.1583794 28.0773481,91.4033149 C21.8379374,88.6482505 16.611418,85.1233886 12.3977901,80.8287293 C8.18416206,76.53407 5.06445672,71.7127072 3.03867403,66.3646409 C1.01289134,61.0165746 0,55.7495396 0,50.5635359 C0,44.5672192 1.21546961,38.5303867 3.64640884,32.4530387 C6.07734807,26.3756906 9.60220994,20.946593 14.2209945,16.1657459 C18.839779,11.3848987 24.5930018,7.49539595 31.480663,4.49723757 C38.3683241,1.49907919 46.3499079,0 55.4254144,0 C63.8526703,0 71.145488,1.62062615 77.3038674,4.86187845 C83.4622468,8.10313076 88.4861878,12.3572744 92.3756906,17.6243094 C96.2651934,22.8913444 99.1012891,28.9281768 100.883978,35.7348066 C102.666667,42.5414365 103.395948,49.5101289 103.071823,56.640884 C103.071823,67.174954 101.653775,77.2633517 98.8176796,86.9060773 C95.9815838,96.5488029 91.8489871,105.543278 86.4198895,113.889503 C80.9907919,122.235727 74.3462247,129.812155 66.4861878,136.618785 C58.626151,143.425414 49.7532228,149.259669 39.8674033,154.121547 Z M50.0773481,74.3867403 C55.1012891,74.3867403 60.1657459,73.3333333 65.2707182,71.2265193 C70.3756906,69.1197053 75.0349908,66.4456722 79.2486188,63.2044199 C78.9244936,63.2044199 78.8839779,62.4346225 79.1270718,60.8950276 C79.3701657,59.3554328 79.4917127,57.8563536 79.4917127,56.3977901 C79.4917127,51.8600368 79.0865562,47.4438306 78.2762431,43.1491713 C77.46593,38.854512 76.0883978,35.0460405 74.1436464,31.7237569 C72.198895,28.4014733 69.6058932,25.7274401 66.3646409,23.7016575 C63.1233886,21.6758748 59.0718232,20.6629834 54.2099448,20.6629834 C50.1583794,20.6629834 46.3093923,21.4327808 42.6629834,22.9723757 C39.0165746,24.5119705 35.7753223,26.6187845 32.9392265,29.2928177 C30.1031308,31.9668508 27.8747698,35.1675875 26.2541436,38.8950276 C24.6335175,42.6224678 23.8232044,46.5930018 23.8232044,50.8066298 C23.8232044,54.53407 24.5930018,57.8158379 26.1325967,60.6519337 C27.6721915,63.4880295 29.6574586,65.9594843 32.0883978,68.0662983 C34.519337,70.1731123 37.3149171,71.7532228 40.4751381,72.8066298 C43.6353591,73.8600368 46.8360958,74.3867403 50.0773481,74.3867403 Z" id="形状"></path>
            </g>
        </g>
    </g>
</svg>