<?xml version="1.0" encoding="UTF-8"?>
<svg width="400px" height="400px" viewBox="0 0 400 400" version="1.1" xmlns="http://www.w3.org/2000/svg" xmlns:xlink="http://www.w3.org/1999/xlink">
    <title>编组</title>
    <g id="页面-1" stroke="none" stroke-width="1" fill="none" fill-rule="evenodd">
        <g id="编组">
            <circle id="椭圆形" fill="#FFEDAD" cx="200" cy="200" r="200"></circle>
            <g id="A" transform="translate(139, 129)" fill="#000000" fill-rule="nonzero">
                <path d="M117.718104,130.142068 C117.423444,133.825309 116.281639,136.58774 114.292689,138.429361 C112.303739,140.270981 109.909632,141.191792 107.110369,141.191792 C105.047754,141.191792 103.021971,140.602473 101.033021,139.423836 C99.0440704,138.245199 97.4602767,136.403578 96.2816395,133.898974 C95.5449912,127.26914 94.4031864,120.786635 92.8562251,114.45146 C91.3092638,108.116285 89.3571459,101.633781 86.9998715,95.0039463 C77.7181036,95.0039463 68.4363356,95.0776112 59.1545676,95.2249408 C49.8727997,95.3722705 40.5173669,95.4459353 31.0882693,95.4459353 L30.6462804,95.4459353 C28.8783246,101.633781 27.220866,107.563799 25.6739047,113.235991 C24.1269433,118.908182 22.6904792,124.98553 21.3645124,131.468035 C20.1858752,134.709287 18.6389139,137.066561 16.7236284,138.539858 C14.808343,140.013154 12.7457279,140.749803 10.5357831,140.749803 C7.44186047,140.749803 4.75309435,139.534333 2.46948477,137.103394 C0.185875198,134.672455 -0.51394064,131.468035 0.370037261,127.490134 C5.08458606,106.421994 10.8304424,85.869508 17.6076063,65.8326756 C24.3847702,45.7958432 32.9298899,25.9800053 43.2429654,6.3851618 L43.021971,6.60615627 C44.2006082,3.51223362 46.778877,1.52328335 50.7567776,0.639305446 L50.5357831,0.639305446 C54.5136837,-0.686661405 58.0495953,0.0499868456 61.1435179,2.8492502 C64.8267592,6.3851618 68.2521735,10.3262299 71.419761,14.6724546 C74.5873485,19.0186793 77.5339415,23.5122336 80.25954,28.1531176 C82.9851385,32.7940016 85.526575,37.471718 87.8838494,42.1862668 C90.2411238,46.9008156 92.4510686,51.3943699 94.5136837,55.6669298 C95.8396505,58.4661931 97.2392822,61.5969482 98.7125787,65.0591949 C100.185875,68.5214417 101.585507,71.9468561 102.911474,75.335438 C104.5321,75.335438 106.300056,75.2986056 108.215341,75.2249408 C110.130627,75.151276 111.898582,75.1144436 113.519209,75.1144436 C116.613131,76.1457511 118.896741,77.5453828 120.370037,79.3133386 C121.843334,81.0812944 122.579982,82.9965798 122.579982,85.0591949 C122.579982,87.12181 121.769669,89.0739279 120.149043,90.9155485 C118.528417,92.7571692 116.023813,94.0463036 112.635231,94.7829519 L109.983297,94.7829519 C113.666538,106.274665 116.244807,118.061037 117.718104,130.142068 Z M66.6683798,47.0481452 C64.900424,43.8068929 63.0956358,40.5656406 61.2540152,37.3243883 C59.4123945,34.083136 57.6076063,31.2102078 55.8396505,28.7056038 C52.3037389,36.2194159 49.0256542,43.8437253 46.0053964,51.578532 C42.9851385,59.3133386 40.0017131,67.3796369 37.0551201,75.777427 C44.5689323,75.777427 51.7512527,75.7037622 58.6020815,75.5564325 C65.4529102,75.4091029 72.6352306,75.335438 80.1490428,75.335438 C78.381087,71.0628782 76.5394664,67.0113128 74.6241809,63.1807419 C72.7088955,59.350171 70.79361,55.2986056 68.8783246,51.0260458 L66.6683798,47.0481452 Z" id="形状"></path>
            </g>
        </g>
    </g>
</svg>