<?xml version="1.0" encoding="UTF-8"?>
<svg width="400px" height="400px" viewBox="0 0 400 400" version="1.1" xmlns="http://www.w3.org/2000/svg" xmlns:xlink="http://www.w3.org/1999/xlink">
    <title>编组 27</title>
    <g id="页面-1" stroke="none" stroke-width="1" fill="none" fill-rule="evenodd">
        <g id="编组-27">
            <circle id="椭圆形" fill="#FFEDAD" cx="200" cy="200" r="200"></circle>
            <g id="a" transform="translate(151, 145)" fill="#000000" fill-rule="nonzero">
                <path d="M97.3911021,96.5082873 C97.3911021,96.6703499 97.3100708,96.7513812 97.1480081,96.7513812 C98.1203838,99.0202578 98.3634778,101.127072 97.8772899,103.071823 C97.3911021,105.016575 96.459242,106.596685 95.0817098,107.812155 C93.7041776,109.027624 91.9214888,109.797422 89.7336435,110.121547 C87.5457982,110.445672 85.1553746,109.959484 82.5623728,108.662983 C81.1038092,107.20442 79.726277,105.624309 78.4297761,103.922652 C77.1332752,102.220994 75.9988369,100.478821 75.0264612,98.6961326 C71.7852089,101.451197 68.3008627,104.003683 64.5734225,106.353591 C60.8459824,108.703499 57.1185422,109.959484 53.3911021,110.121547 C46.9085975,110.445672 40.5071242,110.526703 34.1866822,110.364641 C27.8662402,110.202578 21.8699234,108.095764 16.1977319,104.044199 C11.4979161,100.640884 7.89202287,96.5893186 5.38005234,91.8895028 C2.86808181,87.1896869 1.24745566,82.2062615 0.518173888,76.9392265 C-0.21110788,71.6721915 -0.170592226,66.2836096 0.639720849,60.7734807 C1.45003392,55.2633517 2.82756615,49.9963168 4.77231753,44.9723757 C5.58263061,42.7034991 6.63603761,40.5156538 7.93253853,38.4088398 C9.22903945,36.3020258 10.5255404,34.1141805 11.8220413,31.8453039 C13.6047301,28.6040516 15.6305127,25.5653775 17.8993894,22.7292818 C20.168266,19.893186 22.7612678,17.4217311 25.6783949,15.3149171 C27.7852089,13.8563536 29.8515072,12.3977901 31.8772899,10.9392265 C33.9030726,9.48066298 35.9693709,8.10313076 38.0761849,6.80662983 C39.5347485,5.83425414 41.7631094,4.8213628 44.7612678,3.7679558 C47.7594262,2.7145488 51.0006785,1.82320442 54.4850247,1.09392265 C57.9693709,0.364640884 61.4537172,0 64.9380634,0 C68.4224096,0 71.3800523,0.486187845 73.8109916,1.45856354 C76.0798682,1.13443831 78.3082291,1.70165746 80.4960744,3.16022099 C82.6839197,4.61878453 84.3450615,6.96869245 85.4794999,10.2099448 C85.4794999,21.2302026 85.3984685,32.3314917 85.2364059,43.5138122 C85.0743433,54.6961326 85.8036251,65.7974217 87.4242512,76.8176796 C87.5863139,78.2762431 88.1940487,80.0184162 89.2474557,82.0441989 C90.3008627,84.0699816 91.435301,86.0552486 92.6507706,88 C93.8662402,89.9447514 94.9601628,91.7274401 95.9325385,93.3480663 C96.9049142,94.9686924 97.3911021,96.0220994 97.3911021,96.5082873 Z M66.5181739,79.7348066 C66.8422991,79.572744 67.085393,79.4106814 67.2474557,79.2486188 C67.4095183,79.0865562 67.6526122,78.9244936 67.9767374,78.7624309 C65.8699234,69.038674 64.8570321,58.9502762 64.9380634,48.4972376 C65.0190947,38.0441989 65.1406417,28.441989 65.3027043,19.6906077 C63.8441407,19.6906077 62.2235146,19.8526703 60.4408258,20.1767956 C58.6581371,20.5009208 56.9159639,20.946593 55.2143065,21.5138122 C53.512649,22.0810313 51.9730542,22.6077348 50.595522,23.0939227 C49.2179897,23.5801105 48.2050984,23.985267 47.5568479,24.3093923 C42.6949695,26.5782689 38.5623728,29.5359116 35.1590579,33.1823204 C31.7557429,36.8287293 28.9601628,40.8802947 26.7723175,45.3370166 C24.5844722,49.7937385 22.9233304,54.4935543 21.7888921,59.4364641 C20.6544538,64.3793738 20.0872347,69.3627993 20.0872347,74.3867403 C20.4113599,75.6832413 20.8165164,76.9797422 21.3027043,78.2762431 C21.7888921,79.572744 22.1940487,80.8692449 22.5181739,82.1657459 C23.328487,82.9760589 24.1793157,83.8674033 25.0706601,84.839779 C25.9620045,85.8121547 26.8938645,86.7034991 27.8662402,87.5138122 C29.3248037,88.1620626 30.7833673,88.7292818 32.2419308,89.2154696 C33.7004943,89.7016575 35.1590579,90.1878453 36.6176214,90.6740331 C39.3726859,90.6740331 42.046719,90.7550645 44.6397208,90.9171271 C47.2327227,91.0791897 49.8257245,90.7550645 52.4187264,89.9447514 C54.8496656,88.3241252 57.2400892,86.7034991 59.5899971,85.0828729 C61.939905,83.4622468 64.2492973,81.679558 66.5181739,79.7348066 Z" id="形状"></path>
            </g>
        </g>
    </g>
</svg>