<?xml version="1.0" encoding="UTF-8"?>
<svg width="400px" height="400px" viewBox="0 0 400 400" version="1.1" xmlns="http://www.w3.org/2000/svg" xmlns:xlink="http://www.w3.org/1999/xlink">
    <title>编组 28</title>
    <g id="页面-1" stroke="none" stroke-width="1" fill="none" fill-rule="evenodd">
        <g id="编组-28">
            <circle id="椭圆形备份" fill="#FFEDAD" cx="200" cy="200" r="200"></circle>
            <g id="b" transform="translate(152, 122)" fill="#000000" fill-rule="nonzero">
                <path d="M16.2133077,150.846176 C13.4582433,152.466802 10.8652414,153.155568 8.43430219,152.912475 C6.00336296,152.669381 4.05861158,151.818552 2.60004804,150.359988 C1.14148451,148.901425 0.290655777,146.956673 0.0475618544,144.525734 C-0.195532068,142.094795 0.493234046,139.501793 2.1138602,136.746729 L2.84314196,136.017447 L2.84314196,9.60860715 C3.49139243,6.52941747 4.74737769,4.17950955 6.61109777,2.5588834 C8.47481784,0.938257245 10.4195692,0.087428516 12.4453519,0.00639720849 C14.4711346,-0.0746340991 16.4564016,0.614132015 18.401153,2.07269555 C20.3459044,3.53125909 21.8044679,5.8001357 22.7768436,8.87932539 L22.7768436,66.735679 C26.3422212,63.3323641 30.1506926,60.6583309 34.202258,58.7135795 C37.9296981,56.6067655 41.45456,55.1076863 44.7768436,54.216342 C48.0991272,53.3249976 51.867083,52.6362315 56.080711,52.1500436 C60.294339,51.5017932 64.2648731,51.9069497 67.9923132,53.3655132 C71.7197534,54.8240768 75.3661622,56.6067655 78.9315398,58.7135795 C83.6313556,61.468644 87.1967331,65.2771154 89.6276724,70.1389939 C92.0586116,75.0008723 93.760269,80.2273917 94.7326447,85.8185519 C95.7050204,91.4097121 96.110177,97.0819037 95.9481143,102.835126 C95.7860517,108.588349 95.2998639,113.733837 94.4895508,118.271591 C94.1654256,120.864592 93.4361438,123.336047 92.3017055,125.685955 C91.1672672,128.035863 89.9517976,130.345255 88.6552967,132.614132 C86.38642,137.151885 83.3072304,141.000872 79.4177276,144.161093 C75.5282248,147.321314 71.1930499,149.833285 66.4122027,151.697005 C61.6313556,153.560725 56.6884458,154.857226 51.5834735,155.586508 C46.4785011,156.315789 41.6571383,156.518368 37.1193851,156.194243 C33.3919449,155.870117 29.8265674,155.302898 26.4232525,154.492585 C23.0199375,153.682272 19.6976539,152.30474 16.4564016,150.359988 C16.4564016,150.522051 16.3753703,150.684114 16.2133077,150.846176 Z M22.7768436,96.8793254 L22.7768436,130.912475 C23.2630315,131.2366 24.1543759,131.722788 25.4508768,132.371038 C25.775002,132.695163 26.0991272,132.938257 26.4232525,133.10032 C26.7473777,133.262382 27.0715029,133.505476 27.3956282,133.829602 C35.8228841,137.070854 43.8449836,137.638073 51.4619265,135.531259 C59.0788694,133.424445 65.8044679,128.967723 71.6387221,122.161093 C73.2593482,118.271591 74.4343022,114.665697 75.163584,111.343414 C75.8928657,108.02113 76.2575066,104.698847 76.2575066,101.376563 C76.2575066,98.0542793 75.9333814,94.6914801 75.2851309,91.2881652 C74.6368805,87.8848502 73.5834735,84.2384414 72.1249099,80.3489386 C71.3145968,79.5386256 70.6258307,78.6877968 70.0586116,77.7964525 C69.4913924,76.9051081 68.8026263,76.0542793 67.9923132,75.2439663 C67.1820002,74.919841 66.4122027,74.5146845 65.682921,74.0284967 C64.9536392,73.5423088 64.1838418,73.1371523 63.3735287,72.813027 C62.5632156,72.6509644 61.6718712,72.4889018 60.6994956,72.3268392 C59.7271199,72.1647766 58.8357755,72.002714 58.0254624,71.8406514 C50.2464569,73.1371523 43.8449836,75.7706698 38.8210425,79.7412038 C33.7971014,83.7117379 29.0972856,88.7761946 24.721595,94.934574 L22.7768436,96.8793254 Z" id="形状"></path>
            </g>
        </g>
    </g>
</svg>