<?xml version="1.0" encoding="UTF-8"?>
<svg width="400px" height="400px" viewBox="0 0 400 400" version="1.1" xmlns="http://www.w3.org/2000/svg" xmlns:xlink="http://www.w3.org/1999/xlink">
    <title>编组 32</title>
    <g id="页面-1" stroke="none" stroke-width="1" fill="none" fill-rule="evenodd">
        <g id="编组-32">
            <circle id="椭圆形备份-5" fill="#FFEDAD" cx="200" cy="200" r="200"></circle>
            <g id="f" transform="translate(158, 117)" fill="#000000" fill-rule="nonzero">
                <path d="M35.4917127,154.850829 C35.3296501,158.578269 34.2357274,161.373849 32.2099448,163.237569 C30.1841621,165.101289 27.9558011,166.033149 25.5248619,166.033149 C23.2559853,166.033149 21.1491713,165.18232 19.2044199,163.480663 C17.2596685,161.779006 16.0441989,159.145488 15.558011,155.58011 L15.558011,86.5414365 L10.4530387,86.5414365 C6.88766114,86.0552486 4.25414365,84.839779 2.55248619,82.8950276 C0.850828729,80.9502762 0,78.8434622 0,76.5745856 C0,74.305709 0.931860037,72.0773481 2.79558011,69.8895028 C4.65930018,67.7016575 7.45488029,66.6077348 11.1823204,66.6077348 L15.558011,66.6077348 L15.558011,39.3812155 C15.558011,33.7090239 16.4493554,28.441989 18.2320442,23.5801105 C20.014733,18.718232 22.4861878,14.5451197 25.6464088,11.0607735 C28.8066298,7.57642726 32.5745856,4.86187845 36.9502762,2.91712707 C41.3259669,0.972375691 46.1878453,-2.84217094e-14 51.5359116,-2.84217094e-14 C53.8047882,-2.84217094e-14 56.7624309,0.364640884 60.4088398,1.09392265 C64.0552486,1.82320442 67.5801105,2.91712707 70.9834254,4.37569061 C74.3867403,5.83425414 77.3443831,7.65745856 79.8563536,9.84530387 C82.3683241,12.0331492 83.6243094,14.5856354 83.6243094,17.5027624 C83.6243094,20.0957643 82.732965,22.2836096 80.9502762,24.0662983 C79.1675875,25.8489871 76.8987109,26.7403315 74.1436464,26.7403315 C72.5230203,26.7403315 70.8213628,26.3756906 69.038674,25.6464088 C67.2559853,24.9171271 65.3922652,24.1473297 63.4475138,23.3370166 C61.5027624,22.5267035 59.4769797,21.7569061 57.3701657,21.0276243 C55.2633517,20.2983425 53.2375691,19.9337017 51.2928177,19.9337017 C47.0791897,19.9337017 43.6353591,21.3517495 40.961326,24.1878453 C38.2872928,27.0239411 36.4640884,31.5211786 35.4917127,37.679558 L35.4917127,66.121547 C40.0294659,65.9594843 44.93186,65.8379374 50.198895,65.7569061 C55.46593,65.6758748 60.4493554,65.5543278 65.1491713,65.3922652 C68.228361,66.2025783 70.4972376,67.5395948 71.9558011,69.4033149 C73.4143646,71.267035 74.1436464,73.252302 74.1436464,75.359116 C74.1436464,78.6003683 72.7661142,80.9502762 70.0110497,82.4088398 C67.2559853,83.8674033 63.8526703,84.839779 59.801105,85.3259669 C55.7495396,85.8121547 51.5359116,86.014733 47.160221,85.9337017 C42.7845304,85.8526703 38.8950276,85.893186 35.4917127,86.0552486 L35.4917127,154.850829 Z" id="路径"></path>
            </g>
        </g>
    </g>
</svg>