<?xml version="1.0" encoding="UTF-8"?>
<svg width="400px" height="400px" viewBox="0 0 400 400" version="1.1" xmlns="http://www.w3.org/2000/svg" xmlns:xlink="http://www.w3.org/1999/xlink">
    <title>编组 6</title>
    <g id="页面-1" stroke="none" stroke-width="1" fill="none" fill-rule="evenodd">
        <g id="编组-6">
            <circle id="椭圆形备份-5" fill="#FFEDAD" cx="200" cy="200" r="200"></circle>
            <g id="F" transform="translate(156, 132)" fill="#000000" fill-rule="nonzero">
                <path d="M27.6243094,125.303867 C27.4769797,129.134438 26.2615101,131.933702 23.9779006,133.701657 C21.694291,135.469613 19.2265193,136.353591 16.5745856,136.353591 C13.9226519,136.353591 11.5653775,135.506446 9.50276243,133.812155 C7.44014733,132.117864 6.1878453,129.576427 5.74585635,126.187845 L5.74585635,72.2651934 C4.1252302,71.2338858 2.76243094,69.9447514 1.65745856,68.3977901 C0.552486188,66.8508287 0,65.267035 0,63.6464088 C0,60.2578269 1.91528545,57.5322284 5.74585635,55.4696133 L5.74585635,48.6187845 C5.74585635,47.2928177 5.78268877,45.9300184 5.85635359,44.5303867 C5.93001842,43.1307551 5.96685083,41.694291 5.96685083,40.2209945 C5.96685083,35.801105 5.74585635,31.6390424 5.3038674,27.7348066 C4.86187845,23.8305709 3.75690608,20.626151 1.98895028,18.121547 C1.25230203,16.2062615 0.883977901,14.5119705 0.883977901,13.038674 C0.883977901,8.76611418 3.46224678,5.74585635 8.61878453,3.97790055 C15.1012891,2.946593 21.2154696,2.32044199 26.961326,2.09944751 C32.7071823,1.87845304 38.4530387,1.69429098 44.198895,1.54696133 C49.2081031,1.39963168 54.2541436,1.28913444 59.3370166,1.21546961 C64.4198895,1.14180479 69.6132597,0.73664825 74.9171271,-2.84217094e-14 C79.1896869,-2.84217094e-14 82.3941068,0.883977901 84.5303867,2.6519337 C86.6666667,4.4198895 87.7348066,6.62983425 87.7348066,9.28176796 C87.7348066,11.4917127 86.9244936,13.5174954 85.3038674,15.359116 C83.6832413,17.2007366 81.1786372,18.5635359 77.7900552,19.4475138 C72.4861878,20.1841621 67.0349908,20.626151 61.4364641,20.7734807 C55.8379374,20.9208103 50.1657459,21.06814 44.4198895,21.2154696 C41.0313076,21.2154696 38.0110497,21.2154696 35.359116,21.2154696 C32.7071823,21.2154696 29.6869245,21.3627993 26.2983425,21.6574586 C27.0349908,24.6040516 27.4769797,27.6243094 27.6243094,30.718232 C27.771639,33.8121547 27.8453039,36.9797422 27.8453039,40.2209945 C27.8453039,41.3996317 27.8084715,42.5782689 27.7348066,43.7569061 C27.6611418,44.9355433 27.6243094,46.1141805 27.6243094,47.2928177 L27.6243094,54.8066298 C35.1381215,54.8066298 42.7255985,54.5856354 50.3867403,54.1436464 C58.0478821,53.7016575 64.825046,52.5966851 70.718232,50.8287293 C74.9907919,50.8287293 78.2688766,51.7127072 80.5524862,53.480663 C82.8360958,55.2486188 83.9779006,57.4585635 83.9779006,60.1104972 C83.9779006,63.3517495 82.5782689,65.893186 79.7790055,67.7348066 C76.9797422,69.5764273 73.3701657,70.9760589 68.9502762,71.9337017 C64.5303867,72.8913444 59.6316759,73.480663 54.2541436,73.7016575 C48.8766114,73.9226519 43.6832413,74.0331492 38.6740331,74.0331492 L27.6243094,74.0331492 L27.6243094,125.303867 Z" id="路径"></path>
            </g>
        </g>
    </g>
</svg>