<?xml version="1.0" encoding="UTF-8"?>
<svg width="400px" height="400px" viewBox="0 0 400 400" version="1.1" xmlns="http://www.w3.org/2000/svg" xmlns:xlink="http://www.w3.org/1999/xlink">
    <title>编组 12</title>
    <g id="页面-1" stroke="none" stroke-width="1" fill="none" fill-rule="evenodd">
        <g id="编组-12">
            <circle id="椭圆形备份-6" fill="#FFEDAD" cx="200" cy="200" r="200"></circle>
            <g id="G" transform="translate(140, 130)" fill="#000000" fill-rule="nonzero">
                <path d="M109.834254,60.7734807 C113.222836,61.5101289 115.653775,62.7992634 117.127072,64.640884 C118.600368,66.4825046 119.337017,68.4346225 119.337017,70.4972376 C119.337017,72.2651934 118.821363,73.9226519 117.790055,75.4696133 C116.758748,77.0165746 115.064457,78.305709 112.707182,79.3370166 L112.707182,111.60221 C112.707182,114.401473 111.823204,116.906077 110.055249,119.116022 C108.287293,121.325967 106.445672,123.314917 104.530387,125.082873 L102.762431,126.629834 C98.0478821,131.344383 92.4493554,134.769797 85.9668508,136.906077 C79.4843462,139.042357 72.7808471,140.110497 65.8563536,140.110497 C54.8066298,140.110497 45.1933702,137.86372 37.0165746,133.370166 C28.839779,128.876611 21.9889503,123.20442 16.4640884,116.353591 C10.9392265,109.502762 6.81399632,102.025783 4.08839779,93.9226519 C1.36279926,85.8195212 0,78.0847145 0,70.718232 C0,66.5930018 0.552486188,62.0994475 1.65745856,57.2375691 C2.76243094,52.3756906 4.4198895,47.5138122 6.62983425,42.6519337 C8.83977901,37.7900552 11.6022099,33.1491713 14.9171271,28.7292818 C18.2320442,24.3093923 22.0257827,20.626151 26.2983425,17.679558 C34.2541436,12.6703499 42.4309392,8.47145488 50.8287293,5.08287293 C59.2265193,1.69429098 67.8453039,0 76.6850829,0 C79.1896869,0 82.320442,0.257826888 86.0773481,0.773480663 C89.8342541,1.28913444 93.4438306,2.13627993 96.9060773,3.31491713 C100.368324,4.49355433 103.35175,6.07734807 105.856354,8.06629834 C108.360958,10.0552486 109.61326,12.5230203 109.61326,15.4696133 C109.61326,17.9742173 108.618785,20.1473297 106.629834,21.9889503 C104.640884,23.8305709 102.173112,24.7513812 99.2265193,24.7513812 C97.7532228,24.7513812 96.2062615,24.5672192 94.5856354,24.198895 C92.9650092,23.8305709 91.2707182,23.2780847 89.5027624,22.5414365 C87.2928177,21.8047882 85.0828729,21.06814 82.8729282,20.3314917 C80.6629834,19.5948435 78.6003683,19.2265193 76.6850829,19.2265193 C75.5064457,19.2265193 74.2909761,19.3001842 73.038674,19.4475138 C71.786372,19.5948435 70.4972376,19.8895028 69.1712707,20.3314917 C63.572744,22.0994475 57.9742173,24.1620626 52.3756906,26.519337 C46.7771639,28.8766114 41.694291,31.9705341 37.1270718,35.801105 C32.5598527,39.6316759 28.839779,44.3830571 25.9668508,50.0552486 C23.0939227,55.7274401 21.6574586,62.7624309 21.6574586,71.160221 C21.6574586,78.0847145 22.8360958,84.5672192 25.1933702,90.6077348 C27.5506446,96.6482505 30.6813996,101.878453 34.5856354,106.298343 C38.4898711,110.718232 43.0202578,114.217311 48.1767956,116.79558 C53.3333333,119.373849 58.7108656,120.662983 64.3093923,120.662983 C69.0239411,120.662983 73.664825,119.742173 78.2320442,117.900552 C82.7992634,116.058932 86.9981584,113.222836 90.8287293,109.392265 L90.8287293,80.441989 C85.6721915,80.5893186 80.4788214,80.6629834 75.2486188,80.6629834 C70.0184162,80.6629834 64.825046,80.6629834 59.6685083,80.6629834 C55.8379374,80.0736648 53.038674,78.8950276 51.2707182,77.1270718 C49.5027624,75.359116 48.6187845,73.2965009 48.6187845,70.9392265 C48.6187845,68.5819521 49.5764273,66.335175 51.4917127,64.198895 C53.4069982,62.0626151 56.427256,60.9944751 60.5524862,60.9944751 L84.8618785,60.9944751 C90.3130755,60.9944751 95.359116,60.9576427 100,60.8839779 C104.640884,60.8103131 107.771639,60.7734807 109.392265,60.7734807 L109.834254,60.7734807 Z" id="路径"></path>
            </g>
        </g>
    </g>
</svg>