<?xml version="1.0" encoding="UTF-8"?>
<svg width="400px" height="400px" viewBox="0 0 400 400" version="1.1" xmlns="http://www.w3.org/2000/svg" xmlns:xlink="http://www.w3.org/1999/xlink">
    <title>编组 38</title>
    <g id="页面-1" stroke="none" stroke-width="1" fill="none" fill-rule="evenodd">
        <g id="编组-38">
            <circle id="椭圆形备份-6" fill="#FFEDAD" cx="200" cy="200" r="200"></circle>
            <g id="g" transform="translate(151, 118)" fill="#000000" fill-rule="nonzero">
                <path d="M9.84877664,152.043094 C7.74196264,149.93628 6.48597737,147.667403 6.08082084,145.236464 C5.6756643,142.805525 5.99978953,140.698711 7.05319653,138.916022 C8.10660353,137.133333 9.76774533,135.796317 12.0366219,134.904972 C14.3054986,134.013628 16.9795317,134.054144 20.0587214,135.026519 C22.1655354,136.160958 23.9482242,137.173849 25.4067877,138.065193 C26.8653512,138.956538 28.3239148,139.766851 29.7824783,140.496133 C31.2410418,141.225414 32.740121,141.833149 34.2797159,142.319337 C35.8193107,142.805525 37.6425151,143.291713 39.7493291,143.777901 C42.6664562,144.426151 45.8266772,144.750276 49.2299921,144.750276 C52.633307,144.750276 55.9961063,144.34512 59.3183899,143.534807 C62.6406735,142.724494 65.7198632,141.427993 68.555959,139.645304 C71.3920547,137.862615 73.6204157,135.512707 75.2410418,132.59558 C76.3754801,130.650829 77.0237306,128.300921 77.1857932,125.545856 C77.3478558,122.790792 77.4288871,120.278821 77.4288871,118.009945 L77.4288871,102.20884 C74.8358853,103.505341 72.2428835,104.558748 69.6498816,105.369061 C67.0568798,106.179374 64.3828466,106.989687 61.6277822,107.8 C57.7382794,108.610313 53.8487766,109.137017 49.9592739,109.38011 C46.0697711,109.623204 42.1802684,109.339595 38.2907656,108.529282 C29.8635096,107.070718 22.8137858,103.667403 17.1415943,98.319337 C11.4694028,92.9712707 7.21525914,86.6508287 4.37916338,79.358011 C1.54306761,72.0651934 0.0845040779,64.2861878 0.00347277032,56.0209945 C-0.0775585372,47.7558011 1.25945804,39.9767956 4.01452249,32.6839779 C6.28339911,26.8497238 9.60568272,21.5016575 13.9813733,16.639779 C18.3570639,11.7779006 23.2999737,7.92891344 28.8101026,5.09281768 C34.3202315,2.25672192 40.235517,0.59558011 46.555959,0.109392265 C52.8764009,-0.37679558 59.0347803,0.757642726 65.0310971,3.51270718 C69.7309129,5.78158379 74.1876348,8.29355433 78.4012628,11.0486188 C79.3736385,8.77974217 80.7511707,7.11860037 82.5338595,6.06519337 C84.3165483,5.01178637 86.1802684,4.60662983 88.1250197,4.84972376 C90.0697711,5.09281768 91.8929755,5.94364641 93.594633,7.40220994 C95.2962904,8.86077348 96.5522757,10.9675875 97.3625888,13.7226519 L97.3625888,117.280663 C97.3625888,126.032044 96.0660879,133.52744 93.473086,139.766851 C90.8800842,146.006262 85.8561431,151.556906 78.4012628,156.418785 C75.3220731,158.363536 71.9997895,160.065193 68.434412,161.523757 C64.8690345,162.98232 61.3036569,163.873665 57.7382794,164.19779 C49.9592739,165.170166 42.5043936,164.846041 35.3736385,163.225414 C30.1876348,162.090976 25.8119442,160.591897 22.2465667,158.728177 C18.6811892,156.864457 14.5485925,154.636096 9.84877664,152.043094 Z M75.7272297,79.601105 C76.3754801,79.2769797 76.9426993,79.1149171 77.4288871,79.1149171 L77.4288871,35.358011 C77.2668245,35.358011 77.1857932,35.2769797 77.1857932,35.1149171 C73.9445409,32.0357274 70.2576164,29.1186004 66.1250197,26.3635359 C61.992423,23.6084715 57.6572481,21.5826888 53.1194949,20.2861878 C51.1747435,20.4482505 49.2299921,20.6103131 47.2852407,20.7723757 C45.3404893,20.9344383 43.395738,21.0965009 41.4509866,21.2585635 C40.1544857,21.906814 38.8174691,22.5550645 37.4399369,23.2033149 C36.0624046,23.8515654 34.7253881,24.4998158 33.4288871,25.1480663 C25.3257564,33.4132597 20.9095501,41.8405157 20.1802684,50.4298343 C19.4509866,59.0191529 21.4362536,68.4998158 26.1360695,78.8718232 C26.9463825,79.8441989 27.8377269,80.8165746 28.8101026,81.7889503 C29.7824783,82.761326 30.6738227,83.7337017 31.4841358,84.7060773 C47.0421468,92.4850829 61.7898448,90.7834254 75.7272297,79.601105 Z" id="形状"></path>
            </g>
        </g>
    </g>
</svg>