<?xml version="1.0" encoding="UTF-8"?>
<svg width="400px" height="400px" viewBox="0 0 400 400" version="1.1" xmlns="http://www.w3.org/2000/svg" xmlns:xlink="http://www.w3.org/1999/xlink">
    <title>编组 11</title>
    <g id="页面-1" stroke="none" stroke-width="1" fill="none" fill-rule="evenodd">
        <g id="编组-11">
            <circle id="椭圆形备份-7" fill="#FFEDAD" cx="200" cy="200" r="200"></circle>
            <path d="M245.878453,193.762431 C250.445672,194.05709 253.281768,195.27256 254.38674,197.40884 C255.491713,199.54512 256.044199,201.939227 256.044199,204.59116 C256.044199,207.095764 255.45488,209.453039 254.276243,211.662983 C253.097606,213.872928 250.298343,215.12523 245.878453,215.41989 L245.878453,256.966851 C245.878453,261.6814 244.552486,264.922652 241.900552,266.690608 C239.248619,268.458564 236.375691,269.342541 233.281768,269.342541 C230.482505,269.342541 228.014733,268.348066 225.878453,266.359116 C223.742173,264.370166 222.674033,261.239411 222.674033,256.966851 L222.674033,215.41989 L166.983425,215.41989 L166.983425,256.745856 C166.983425,261.460405 165.657459,264.701657 163.005525,266.469613 C160.353591,268.237569 157.554328,269.121547 154.607735,269.121547 C151.808471,269.121547 149.3407,268.127072 147.20442,266.138122 C145.06814,264.149171 144,261.018416 144,256.745856 L144,143.81768 C144,141.165746 144.441989,138.992634 145.325967,137.298343 C146.209945,135.604052 147.35175,134.314917 148.751381,133.430939 C150.151013,132.546961 151.697974,131.92081 153.392265,131.552486 C155.086556,131.184162 156.744015,131 158.364641,131 C160.721915,131 162.747698,131.847145 164.441989,133.541436 C166.13628,135.235727 166.983425,137.998158 166.983425,141.828729 L166.983425,193.762431 L222.674033,193.762431 L222.674033,143.81768 C222.674033,141.165746 223.116022,138.992634 224,137.298343 C224.883978,135.604052 226.025783,134.314917 227.425414,133.430939 C228.825046,132.546961 230.372007,131.92081 232.066298,131.552486 C233.760589,131.184162 235.418048,131 237.038674,131 C239.690608,131 241.826888,131.847145 243.447514,133.541436 C245.06814,135.235727 245.878453,137.998158 245.878453,141.828729 L245.878453,193.762431 Z" id="路径" fill="#000000" fill-rule="nonzero"></path>
        </g>
    </g>
</svg>