<?xml version="1.0" encoding="UTF-8"?>
<svg width="400px" height="400px" viewBox="0 0 400 400" version="1.1" xmlns="http://www.w3.org/2000/svg" xmlns:xlink="http://www.w3.org/1999/xlink">
    <title>编组 37</title>
    <g id="页面-1" stroke="none" stroke-width="1" fill="none" fill-rule="evenodd">
        <g id="编组-37">
            <circle id="椭圆形备份-7" fill="#FFEDAD" cx="200" cy="200" r="200"></circle>
            <g id="h" transform="translate(154, 122)" fill="#000000" fill-rule="nonzero">
                <path d="M19.9337017,144.039546 C19.771639,147.604924 18.718232,150.319473 16.7734807,152.183193 C14.8287293,154.046913 12.6813996,155.019289 10.3314917,155.10032 C7.98158379,155.181351 5.79373849,154.371038 3.7679558,152.669381 C1.74217311,150.967723 0.486187845,148.334206 -9.09494702e-13,144.768828 L-9.09494702e-13,9.60860715 C0.64825046,6.52941747 1.90423573,4.17950955 3.7679558,2.5588834 C5.63167587,0.938257245 7.57642726,0.087428516 9.60220994,0.00639720849 C11.6279926,-0.0746340991 13.6132597,0.614132015 15.558011,2.07269555 C17.5027624,3.53125909 18.961326,5.8001357 19.9337017,8.87932539 L19.9337017,66.0063972 C22.3646409,63.575458 24.6335175,61.6307066 26.7403315,60.1721431 C29.9815838,57.9032665 33.0202578,56.080062 35.8563536,54.7025298 C38.6924494,53.3249976 41.9742173,52.2310749 45.7016575,51.4207618 C48.6187845,50.6104488 51.5764273,50.4483862 54.5745856,50.934574 C57.572744,51.4207618 60.5303867,52.0690123 63.4475138,52.8793254 C68.3093923,54.3378889 72.4825046,56.6877968 75.9668508,59.9290491 C79.4511971,63.1703014 82.3683241,66.9382572 84.718232,71.2329165 C87.06814,75.5275758 88.8103131,80.1058447 89.9447514,84.9677232 C91.0791897,89.8296016 91.7274401,94.5294175 91.8895028,99.0671707 C92.0515654,106.846176 92.092081,114.503635 92.0110497,122.039546 C91.9300184,129.575458 91.9705341,137.232917 92.1325967,145.011922 C91.9705341,148.5773 90.9171271,151.291848 88.9723757,153.155568 C87.0276243,155.019289 84.8802947,155.991664 82.5303867,156.072696 C80.1804788,156.153727 77.9926335,155.343414 75.9668508,153.641756 C73.9410681,151.940099 72.6850829,149.306581 72.198895,145.741204 C72.198895,137.962198 72.198895,130.30474 72.198895,122.768828 C72.198895,115.232917 72.1178637,107.575458 71.9558011,99.7964525 C71.7937385,93.9621983 70.6998158,88.6951633 68.6740331,83.9953475 C66.6482505,79.2955316 63.1233886,75.3249976 58.0994475,72.0837453 C53.8858195,70.949307 50.0773481,70.949307 46.6740331,72.0837453 C43.2707182,73.2181836 40.1510129,74.9603567 37.3149171,77.3102646 C34.4788214,79.6601725 31.8453039,82.3747213 29.4143646,85.453911 C26.9834254,88.5331007 24.6335175,91.5312591 22.3646409,94.4483862 C22.0405157,94.934574 21.6353591,95.3802462 21.1491713,95.7854027 C20.6629834,96.1905593 20.2578269,96.5552002 19.9337017,96.8793254 L19.9337017,144.039546 Z" id="路径"></path>
            </g>
        </g>
    </g>
</svg>