<?xml version="1.0" encoding="UTF-8"?>
<svg width="400px" height="400px" viewBox="0 0 400 400" version="1.1" xmlns="http://www.w3.org/2000/svg" xmlns:xlink="http://www.w3.org/1999/xlink">
    <title>编组 10</title>
    <g id="页面-1" stroke="none" stroke-width="1" fill="none" fill-rule="evenodd">
        <g id="编组-10">
            <circle id="椭圆形备份-8" fill="#FFEDAD" cx="200" cy="200" r="200"></circle>
            <g id="I" transform="translate(166, 134)" fill="#000000" fill-rule="nonzero">
                <path d="M44.640884,113.370166 C46.2615101,113.370166 47.6611418,113.333333 48.839779,113.259669 C50.0184162,113.186004 51.4180479,113.075506 53.038674,112.928177 L53.9226519,112.928177 C58.1952118,112.633517 61.4732965,113.517495 63.7569061,115.58011 C66.0405157,117.642726 67.1823204,119.926335 67.1823204,122.430939 C67.1823204,124.493554 66.335175,126.482505 64.640884,128.39779 C62.946593,130.313076 60.3314917,131.639042 56.7955801,132.375691 C54.1436464,132.52302 51.4180479,132.596685 48.6187845,132.596685 C45.8195212,132.596685 43.0202578,132.596685 40.2209945,132.596685 L11.0497238,132.596685 C7.3664825,132.007366 4.64088398,130.755064 2.87292818,128.839779 C1.10497238,126.924494 0.220994475,124.861878 0.220994475,122.651934 C0.220994475,120.14733 1.1786372,117.974217 3.09392265,116.132597 C5.0092081,114.290976 7.88213628,113.222836 11.7127072,112.928177 C13.9226519,112.928177 15.801105,112.891344 17.3480663,112.81768 C18.8950276,112.744015 20.6998158,112.780847 22.7624309,112.928177 L22.7624309,19.6685083 L10.8287293,19.6685083 C7.14548803,19.0791897 4.4198895,17.8268877 2.6519337,15.9116022 C0.883977901,13.9963168 0,11.8600368 0,9.50276243 C0,7.14548803 0.957642726,5.04604052 2.87292818,3.20441989 C4.78821363,1.36279926 7.6611418,0.2946593 11.4917127,0 L57.2375691,0 C60.3314917,1.03130755 62.6519337,2.46777164 64.198895,4.30939227 C65.7458564,6.15101289 66.519337,8.02946593 66.519337,9.94475138 C66.519337,12.0073665 65.6721915,13.9594843 63.9779006,15.801105 C62.2836096,17.6427256 59.7421731,18.93186 56.3535912,19.6685083 L44.640884,19.6685083 L44.640884,113.370166 Z" id="路径"></path>
            </g>
        </g>
    </g>
</svg>