<?xml version="1.0" encoding="UTF-8"?>
<svg width="400px" height="400px" viewBox="0 0 400 400" version="1.1" xmlns="http://www.w3.org/2000/svg" xmlns:xlink="http://www.w3.org/1999/xlink">
    <title>编组 35</title>
    <g id="页面-1" stroke="none" stroke-width="1" fill="none" fill-rule="evenodd">
        <g id="编组-35">
            <circle id="椭圆形备份-9" fill="#FFEDAD" cx="200" cy="200" r="200"></circle>
            <path d="M169.458564,277.353591 C168.486188,275.246777 168,273.220994 168,271.276243 C168,268.521179 168.850829,266.252302 170.552486,264.469613 C172.254144,262.686924 174.401473,261.79558 176.994475,261.79558 C179.587477,261.79558 182.099448,262.686924 184.530387,264.469613 C185.664825,265.766114 186.637201,266.941068 187.447514,267.994475 C188.257827,269.047882 189.06814,269.939227 189.878453,270.668508 C190.688766,271.39779 191.620626,272.086556 192.674033,272.734807 C193.72744,273.383057 194.983425,273.950276 196.441989,274.436464 C196.928177,274.598527 197.73849,274.679558 198.872928,274.679558 C203.248619,273.383057 206.246777,270.952118 207.867403,267.38674 C209.488029,263.821363 210.298343,259.93186 210.298343,255.718232 C210.298343,250.370166 210.338858,244.981584 210.41989,239.552486 C210.500921,234.123389 210.541436,228.734807 210.541436,223.38674 C210.541436,212.528545 210.500921,201.710866 210.41989,190.933702 C210.338858,180.156538 210.298343,169.338858 210.298343,158.480663 C211.108656,155.239411 212.405157,152.808471 214.187845,151.187845 C215.970534,149.567219 217.996317,148.756906 220.265193,148.756906 C222.372007,148.756906 224.357274,149.486188 226.220994,150.944751 C228.084715,152.403315 229.421731,154.672192 230.232044,157.751381 L230.475138,257.176796 C229.664825,263.335175 228.732965,268.034991 227.679558,271.276243 C226.626151,274.517495 225.046041,277.758748 222.939227,281 C221.642726,283.268877 220.022099,285.132597 218.077348,286.59116 C216.132597,288.049724 214.106814,289.427256 212,290.723757 C207.462247,293.478821 202.843462,294.856354 198.143646,294.856354 C192.471455,294.856354 187.244936,293.11418 182.464088,289.629834 C177.683241,286.145488 173.348066,282.053407 169.458564,277.353591 Z M208.839779,117.883978 C208.839779,114.3186 209.974217,111.279926 212.243094,108.767956 C214.511971,106.255985 217.267035,105 220.508287,105 C223.74954,105 226.54512,106.255985 228.895028,108.767956 C231.244936,111.279926 232.41989,114.3186 232.41989,117.883978 C232.41989,121.287293 231.244936,124.244936 228.895028,126.756906 C226.54512,129.268877 223.74954,130.524862 220.508287,130.524862 C217.267035,130.524862 214.511971,129.268877 212.243094,126.756906 C209.974217,124.244936 208.839779,121.287293 208.839779,117.883978 Z" id="形状" fill="#000000" fill-rule="nonzero"></path>
        </g>
    </g>
</svg>