<?xml version="1.0" encoding="UTF-8"?>
<svg width="400px" height="400px" viewBox="0 0 400 400" version="1.1" xmlns="http://www.w3.org/2000/svg" xmlns:xlink="http://www.w3.org/1999/xlink">
    <title>编组 8</title>
    <g id="页面-1" stroke="none" stroke-width="1" fill="none" fill-rule="evenodd">
        <g id="编组-8">
            <circle id="椭圆形备份-10" fill="#FFEDAD" cx="200" cy="200" r="200"></circle>
            <g id="K" transform="translate(150, 133)" fill="#000000" fill-rule="nonzero">
                <path d="M22.320442,123.756906 C22.1731123,127.440147 20.9576427,130.165746 18.6740331,131.933702 C16.3904236,133.701657 13.9963168,134.585635 11.4917127,134.585635 C8.83977901,134.585635 6.37200737,133.73849 4.08839779,132.044199 C1.80478821,130.349908 0.44198895,127.808471 -4.54747351e-13,124.41989 C-4.54747351e-13,114.990792 0.0368324125,105.598527 0.110497238,96.2430939 C0.184162063,86.8876611 0.220994475,77.4217311 0.220994475,67.8453039 C0.220994475,58.4162063 0.184162063,48.839779 0.110497238,39.1160221 C0.0368324125,29.3922652 -4.54747351e-13,19.4475138 -4.54747351e-13,9.28176796 C0.73664825,6.1878453 2.09944751,3.86740331 4.08839779,2.32044199 C6.07734807,0.773480663 8.39779006,1.13686838e-13 11.0497238,1.13686838e-13 C13.2596685,1.13686838e-13 15.4327808,0.73664825 17.5690608,2.20994475 C19.7053407,3.68324125 21.1418048,5.893186 21.878453,8.83977901 L21.878453,32.7071823 C21.878453,36.6850829 21.8416206,40.2946593 21.7679558,43.5359116 C21.694291,46.7771639 21.6574586,50.53407 21.6574586,54.8066298 C29.6132597,50.8287293 36.7587477,45.5616943 43.0939227,39.0055249 C49.4290976,32.4493554 55.174954,26.0036832 60.3314917,19.6685083 C61.9521179,17.3112339 63.7200737,14.8802947 65.6353591,12.3756906 C67.5506446,9.87108656 69.6869245,7.3664825 72.0441989,4.86187845 C74.9907919,2.3572744 78.0847145,1.10497238 81.3259669,1.10497238 C84.2725599,1.10497238 86.7403315,1.98895028 88.7292818,3.75690608 C90.718232,5.52486188 91.7127072,7.73480663 91.7127072,10.3867403 C91.7127072,11.4180479 91.3443831,13.038674 90.6077348,15.2486188 C88.2504604,18.0478821 85.9668508,20.6998158 83.7569061,23.2044199 C81.5469613,25.7090239 79.558011,28.213628 77.7900552,30.718232 C72.6335175,36.9060773 67.771639,42.6519337 63.2044199,47.9558011 C58.6372007,53.2596685 53.3333333,58.121547 47.2928177,62.5414365 L58.3425414,74.4751381 C64.825046,81.3996317 71.160221,88.1399632 77.3480663,94.6961326 C83.5359116,101.252302 89.8710866,108.066298 96.3535912,115.138122 C99.0055249,118.526703 100.331492,121.399632 100.331492,123.756906 C100.331492,126.40884 99.373849,128.581952 97.4585635,130.276243 C95.5432781,131.970534 93.1123389,132.81768 90.1657459,132.81768 C88.5451197,132.81768 86.9244936,132.559853 85.3038674,132.044199 C83.6832413,131.528545 82.2099448,130.53407 80.8839779,129.060773 C80.1473297,128.176796 78.8950276,126.777164 77.1270718,124.861878 C75.359116,122.946593 73.2965009,120.736648 70.9392265,118.232044 C68.5819521,115.72744 65.9668508,112.965009 63.0939227,109.944751 C60.2209945,106.924494 57.3112339,103.867403 54.3646409,100.773481 C51.4180479,97.679558 48.5819521,94.6593002 45.8563536,91.7127072 C43.1307551,88.7661142 40.5893186,86.0773481 38.2320442,83.6464088 C35.8747698,81.2154696 33.8858195,79.1160221 32.2651934,77.3480663 C30.6445672,75.5801105 29.46593,74.2541436 28.7292818,73.3701657 C27.5506446,73.8121547 26.4456722,74.1804788 25.4143646,74.4751381 C24.3830571,74.7697974 23.0570902,75.2117864 21.4364641,75.801105 C21.4364641,79.1896869 21.4732965,82.946593 21.5469613,87.0718232 C21.6206262,91.1970534 21.694291,95.3959484 21.7679558,99.6685083 C21.8416206,103.941068 21.9152855,108.176796 21.9889503,112.375691 C22.0626151,116.574586 22.1731123,120.368324 22.320442,123.756906 Z" id="路径"></path>
            </g>
        </g>
    </g>
</svg>