<?xml version="1.0" encoding="UTF-8"?>
<svg width="400px" height="400px" viewBox="0 0 400 400" version="1.1" xmlns="http://www.w3.org/2000/svg" xmlns:xlink="http://www.w3.org/1999/xlink">
    <title>编组 7</title>
    <g id="页面-1" stroke="none" stroke-width="1" fill="none" fill-rule="evenodd">
        <g id="编组-7">
            <circle id="椭圆形备份-11" fill="#FFEDAD" cx="200" cy="200" r="200"></circle>
            <g id="L" transform="translate(156, 133)" fill="#000000" fill-rule="nonzero">
                <path d="M79.1160221,113.812155 C82.2099448,114.843462 84.5303867,116.279926 86.0773481,118.121547 C87.6243094,119.963168 88.3977901,121.915285 88.3977901,123.977901 C88.3977901,126.040516 87.5506446,127.955801 85.8563536,129.723757 C84.1620626,131.491713 81.6206262,132.744015 78.2320442,133.480663 C72.6335175,133.627993 66.9981584,133.73849 61.3259669,133.812155 C55.6537753,133.88582 50.0184162,133.922652 44.4198895,133.922652 C39.4106814,134.069982 33.8858195,134.143646 27.8453039,134.143646 C21.8047882,134.143646 16.2062615,134.290976 11.0497238,134.585635 C4.4198895,133.848987 0.73664825,130.460405 0,124.41989 C0,114.696133 0.0368324125,105.119705 0.110497238,95.6906077 C0.184162063,86.2615101 0.220994475,76.6850829 0.220994475,66.961326 C0.368324125,57.2375691 0.44198895,47.587477 0.44198895,38.0110497 C0.44198895,28.4346225 0.44198895,18.7845304 0.44198895,9.06077348 C1.1786372,6.11418048 2.50460405,3.86740331 4.4198895,2.32044199 C6.33517495,0.773480663 8.54511971,1.13686838e-13 11.0497238,1.13686838e-13 C13.5543278,1.13686838e-13 15.801105,0.699815838 17.7900552,2.09944751 C19.7790055,3.49907919 21.2891344,5.5985267 22.320442,8.39779006 C22.320442,17.5322284 22.2836096,26.5930018 22.2099448,35.5801105 C22.1362799,44.5672192 22.0994475,53.480663 22.0994475,62.320442 C21.9521179,71.3075506 21.878453,80.0368324 21.878453,88.5082873 C21.878453,96.9797422 21.878453,105.709024 21.878453,114.696133 C26.4456722,114.401473 30.9760589,114.290976 35.4696133,114.364641 C39.9631676,114.438306 44.4935543,114.401473 49.0607735,114.254144 C53.9226519,114.254144 58.8581952,114.217311 63.8674033,114.143646 C68.8766114,114.069982 73.9594843,113.959484 79.1160221,113.812155 Z" id="路径"></path>
            </g>
        </g>
    </g>
</svg>