<?xml version="1.0" encoding="UTF-8"?>
<svg width="400px" height="400px" viewBox="0 0 400 400" version="1.1" xmlns="http://www.w3.org/2000/svg" xmlns:xlink="http://www.w3.org/1999/xlink">
    <title>编组 14</title>
    <g id="页面-1" stroke="none" stroke-width="1" fill="none" fill-rule="evenodd">
        <g id="编组-14">
            <circle id="椭圆形备份-13" fill="#FFEDAD" cx="200" cy="200" r="200"></circle>
            <path d="M234.38674,138.502762 C235.123389,135.26151 236.486188,132.867403 238.475138,131.320442 C240.464088,129.773481 242.710866,129 245.21547,129 C247.572744,129 249.819521,129.736648 251.955801,131.209945 C254.092081,132.683241 255.528545,134.893186 256.265193,137.839779 C256.265193,158.61326 256.117864,178.834254 255.823204,198.502762 C255.528545,218.171271 254.791897,238.46593 253.61326,259.38674 C253.46593,260.123389 253.392265,260.675875 253.392265,261.044199 C253.392265,261.412523 253.392265,261.744015 253.392265,262.038674 C252.360958,264.837937 250.887661,266.937385 248.972376,268.337017 C247.05709,269.736648 245.06814,270.436464 243.005525,270.436464 C239.616943,270.436464 236.375691,268.889503 233.281768,265.79558 L231.734807,263.143646 C226.725599,254.745856 221.605893,246.642726 216.375691,238.834254 C211.145488,231.025783 205.767956,223.438306 200.243094,216.071823 C194.718232,208.705341 189.082873,201.375691 183.337017,194.082873 C177.59116,186.790055 171.771639,179.460405 165.878453,172.093923 L165.878453,209.220994 C165.878453,216.882136 165.915285,224.837937 165.98895,233.088398 C166.062615,241.338858 166.099448,250.325967 166.099448,260.049724 C165.952118,263.880295 164.736648,266.679558 162.453039,268.447514 C160.169429,270.21547 157.775322,271.099448 155.270718,271.099448 C152.618785,271.099448 150.224678,270.252302 148.088398,268.558011 C145.952118,266.86372 144.662983,264.322284 144.220994,260.933702 C144.220994,251.209945 144.184162,241.375691 144.110497,231.430939 C144.036832,221.486188 144,211.430939 144,201.265193 L144,141.375691 C144.736648,138.429098 146.062615,136.18232 147.977901,134.635359 C149.893186,133.088398 152.176796,132.314917 154.828729,132.314917 C157.038674,132.314917 159.837937,133.41989 163.226519,135.629834 L170.077348,143.585635 C181.421731,157.139963 192.324125,170.436464 202.78453,183.475138 C213.244936,196.513812 223.337017,210.399632 233.060773,225.132597 C233.502762,210.252302 233.834254,195.924494 234.055249,182.149171 C234.276243,168.373849 234.38674,153.898711 234.38674,138.723757 L234.38674,138.502762 Z" id="路径" fill="#000000" fill-rule="nonzero"></path>
        </g>
    </g>
</svg>