<?xml version="1.0" encoding="UTF-8"?>
<svg width="400px" height="400px" viewBox="0 0 400 400" version="1.1" xmlns="http://www.w3.org/2000/svg" xmlns:xlink="http://www.w3.org/1999/xlink">
    <title>编组 41</title>
    <g id="页面-1" stroke="none" stroke-width="1" fill="none" fill-rule="evenodd">
        <g id="编组-41">
            <circle id="椭圆形备份-14" fill="#FFEDAD" cx="200" cy="200" r="200"></circle>
            <g id="o" transform="translate(152, 143)" fill="#000000" fill-rule="nonzero">
                <path d="M2.39354016,46.6323599 C4.17622893,41.4463562 6.36407423,36.3818995 8.95707607,31.4389897 C11.5500779,26.49608 14.6292676,21.9988424 18.1946451,17.947277 C21.7600227,13.8957117 25.8521037,10.4113654 30.4708882,7.49423836 C35.0896728,4.57711129 40.2351608,2.47029729 45.9073523,1.17379637 C55.306984,-0.933017627 63.5316617,-0.203735859 70.5813855,3.36164167 C77.6311092,6.92701921 83.2627851,12.0319916 87.4764131,18.6765588 C91.6900411,25.321126 94.4856212,32.8975533 95.8631534,41.4058406 C97.2406856,49.9141279 96.8760448,58.0577743 94.7692308,65.8367798 C92.3382915,75.3984741 88.0436322,84.3119179 81.8852529,92.5771113 C75.7268735,100.842305 67.947868,106.838621 58.5482363,110.566062 C51.5795438,113.321126 44.894461,114.334017 38.4929877,113.604736 C32.0915144,112.875454 26.3382915,110.809155 21.2333192,107.405841 C16.1283468,104.002526 11.7931718,99.5458037 8.22779431,94.0356748 C4.66241677,88.5255459 2.23147755,82.2861352 0.934976626,75.3174428 C0.12466355,70.9417522 -0.158946026,66.6470929 0.0841478963,62.4334649 C0.327241819,58.2198369 0.853945318,54.0062089 1.66425839,49.7925809 L2.39354016,46.6323599 Z M21.3548661,52.2235201 C20.7066157,55.626835 20.2609435,58.7465404 20.0178496,61.5826361 C19.7747556,64.4187319 19.8963026,67.6194686 20.3824904,71.1848461 C20.8686783,75.5605367 22.2462105,79.4905551 24.5150871,82.9749013 C26.7839637,86.4592476 29.5390282,89.1332807 32.7802805,90.9970008 C36.0215328,92.8607209 39.627426,93.7520652 43.5979601,93.6710339 C47.5684941,93.5900026 51.5795438,92.3340174 55.6311092,89.9030781 C60.9791755,86.6618258 65.2333192,82.4481978 68.3935402,77.2621942 C71.5537612,72.0761905 73.9441847,66.4850303 75.5648109,60.4887135 C76.8613118,55.626835 77.1449214,50.4408314 76.4156396,44.9307024 C75.6863578,39.4205735 74.025216,34.5586951 71.4322142,30.3450671 C68.8392124,26.1314391 65.3548661,23.0927651 60.9791755,21.229045 C56.6034849,19.3653249 51.4174812,19.6489345 45.4211645,22.0798737 C38.9386599,24.8349382 33.8336875,28.9675349 30.1062473,34.4776638 C26.3788072,39.9877927 23.4616801,45.9030781 21.3548661,52.2235201 Z" id="形状"></path>
            </g>
        </g>
    </g>
</svg>