<?xml version="1.0" encoding="UTF-8"?>
<svg width="400px" height="400px" viewBox="0 0 400 400" version="1.1" xmlns="http://www.w3.org/2000/svg" xmlns:xlink="http://www.w3.org/1999/xlink">
    <title>编组 24</title>
    <g id="页面-1" stroke="none" stroke-width="1" fill="none" fill-rule="evenodd">
        <g id="编组-24">
            <circle id="椭圆形备份-18" fill="#FFEDAD" cx="200" cy="200" r="200"></circle>
            <path d="M153.513812,144.237569 C155.281768,138.197053 158.891344,135.176796 164.342541,135.176796 C165.521179,135.176796 166.331492,135.25046 166.773481,135.39779 C172.372007,132.893186 178.191529,130.867403 184.232044,129.320442 C190.27256,127.773481 196.460405,127 202.79558,127 C207.06814,127 211.19337,127.405157 215.171271,128.21547 C219.149171,129.025783 223.053407,130.535912 226.883978,132.745856 L226.883978,132.524862 C231.009208,134.587477 234.692449,137.239411 237.933702,140.480663 C241.174954,143.721915 243.974217,147.331492 246.331492,151.309392 C248.688766,155.287293 250.493554,159.486188 251.745856,163.906077 C252.998158,168.325967 253.624309,172.745856 253.624309,177.165746 C253.624309,185.858195 251.267035,193.813996 246.552486,201.033149 C241.690608,208.546961 235.686924,214.550645 228.541436,219.044199 C221.395948,223.537753 213.034991,226.152855 203.458564,226.889503 C201.690608,227.036832 199.88582,227.14733 198.044199,227.220994 C196.202578,227.294659 194.471455,227.331492 192.850829,227.331492 C189.756906,227.331492 186.736648,227.220994 183.790055,227 C180.843462,226.779006 178.044199,226.521179 175.392265,226.226519 C175.392265,231.825046 175.392265,237.939227 175.392265,244.569061 C175.392265,251.198895 175.46593,257.165746 175.61326,262.469613 C175.46593,266.300184 174.25046,269.099448 171.966851,270.867403 C169.683241,272.635359 167.21547,273.519337 164.563536,273.519337 C162.058932,273.519337 159.73849,272.672192 157.60221,270.977901 C155.46593,269.28361 154.176796,266.742173 153.734807,263.353591 L153.734807,221.364641 L153.292818,221.143646 C148.430939,218.344383 146,215.029466 146,211.198895 C146,209.430939 146.589319,207.736648 147.767956,206.116022 C148.946593,204.495396 150.861878,203.316759 153.513812,202.58011 L153.513812,144.237569 Z M216.497238,149.983425 C212.224678,147.626151 207.583794,146.447514 202.574586,146.447514 C197.860037,146.447514 193.18232,147.14733 188.541436,148.546961 C183.900552,149.946593 179.517495,151.677716 175.392265,153.740331 L175.392265,206.558011 C180.990792,207.736648 186.515654,208.325967 191.966851,208.325967 C197.712707,208.325967 203.421731,207.478821 209.093923,205.78453 C214.766114,204.090239 219.443831,201.327808 223.127072,197.497238 C226.073665,194.550645 228.173112,191.235727 229.425414,187.552486 C230.677716,183.869245 231.303867,180.112339 231.303867,176.281768 C231.303867,170.683241 230.088398,165.563536 227.657459,160.922652 C225.226519,156.281768 221.506446,152.635359 216.497238,149.983425 Z" id="形状" fill="#000000" fill-rule="nonzero"></path>
        </g>
    </g>
</svg>