<?xml version="1.0" encoding="UTF-8"?>
<svg width="400px" height="400px" viewBox="0 0 400 400" version="1.1" xmlns="http://www.w3.org/2000/svg" xmlns:xlink="http://www.w3.org/1999/xlink">
    <title>编组 42</title>
    <g id="页面-1" stroke="none" stroke-width="1" fill="none" fill-rule="evenodd">
        <g id="编组-42">
            <circle id="椭圆形备份-15" fill="#FFEDAD" cx="200" cy="200" r="200"></circle>
            <path d="M154,125.723757 C154.810313,122.482505 156.106814,120.051565 157.889503,118.430939 C159.672192,116.810313 161.697974,116 163.966851,116 C166.073665,116 168.058932,116.729282 169.922652,118.187845 C171.786372,119.646409 173.123389,121.915285 173.933702,124.994475 L173.933702,127.18232 C177.661142,123.941068 181.915285,121.550645 186.696133,120.01105 C191.47698,118.471455 196.13628,117.701657 200.674033,117.701657 C206.994475,117.701657 212.869245,119.07919 218.298343,121.834254 C223.72744,124.589319 228.467772,128.316759 232.519337,133.016575 C236.570902,137.71639 239.731123,143.186004 242,149.425414 C244.268877,155.664825 245.403315,162.349908 245.403315,169.480663 C245.403315,177.259669 244.14733,184.390424 241.635359,190.872928 C239.123389,197.355433 235.436464,202.946593 230.574586,207.646409 C225.712707,212.346225 219.675875,216.033149 212.464088,218.707182 C205.252302,221.381215 196.865562,222.718232 187.303867,222.718232 C185.034991,222.718232 182.80663,222.637201 180.618785,222.475138 C178.430939,222.313076 176.202578,222.069982 173.933702,221.745856 L173.933702,273.038674 C173.771639,276.766114 172.677716,279.561694 170.651934,281.425414 C168.626151,283.289134 166.39779,284.220994 163.966851,284.220994 C161.697974,284.220994 159.59116,283.370166 157.646409,281.668508 C155.701657,279.966851 154.486188,277.333333 154,273.767956 L154,125.723757 Z M176.364641,153.19337 C176.040516,153.679558 175.635359,154.12523 175.149171,154.530387 C174.662983,154.935543 174.257827,155.300184 173.933702,155.624309 L173.933702,201.569061 C176.202578,202.055249 178.430939,202.460405 180.618785,202.78453 C182.80663,203.108656 185.034991,203.270718 187.303867,203.270718 C192.813996,203.270718 197.918969,202.541436 202.618785,201.082873 C207.3186,199.624309 211.410681,197.517495 214.895028,194.762431 C218.379374,192.007366 221.093923,188.604052 223.038674,184.552486 C224.983425,180.500921 225.955801,175.882136 225.955801,170.696133 C225.955801,166.80663 225.348066,162.876611 224.132597,158.906077 C222.917127,154.935543 221.21547,151.32965 219.027624,148.088398 C216.839779,144.847145 214.287293,142.213628 211.370166,140.187845 C208.453039,138.162063 205.211786,137.149171 201.646409,137.149171 C198.891344,137.149171 196.298343,137.635359 193.867403,138.607735 C191.436464,139.58011 189.167587,140.836096 187.060773,142.375691 C184.953959,143.915285 183.009208,145.616943 181.226519,147.480663 C179.443831,149.344383 177.823204,151.248619 176.364641,153.19337 Z" id="形状" fill="#000000" fill-rule="nonzero"></path>
        </g>
    </g>
</svg>