<?xml version="1.0" encoding="UTF-8"?>
<svg width="400px" height="400px" viewBox="0 0 400 400" version="1.1" xmlns="http://www.w3.org/2000/svg" xmlns:xlink="http://www.w3.org/1999/xlink">
    <title>编组 44</title>
    <g id="页面-1" stroke="none" stroke-width="1" fill="none" fill-rule="evenodd">
        <g id="编组-44">
            <circle id="椭圆形备份-17" fill="#FFEDAD" cx="200" cy="200" r="200"></circle>
            <g id="r" transform="translate(157, 143)" fill="#000000" fill-rule="nonzero">
                <path d="M7.04972376,26.0110497 C4.61878453,24.7145488 2.83609576,23.174954 1.70165746,21.3922652 C0.567219153,19.6095764 0,17.8268877 0,16.0441989 C0,13.6132597 0.891344383,11.46593 2.67403315,9.60220994 C4.45672192,7.73848987 6.88766114,6.80662983 9.96685083,6.80662983 C12.2357274,6.80662983 15.0718232,7.61694291 18.4751381,9.23756906 C21.878453,10.8581952 24.5524862,12.640884 26.4972376,14.5856354 C31.5211786,10.3720074 36.7071823,6.88766114 42.0552486,4.13259669 C47.4033149,1.37753223 52.8324125,0 58.3425414,0 C59.9631676,0 62.3130755,0.405156538 65.3922652,1.21546961 C68.4714549,2.02578269 71.5101289,3.2412523 74.5082873,4.86187845 C77.5064457,6.4825046 80.1399632,8.5893186 82.4088398,11.1823204 C84.6777164,13.7753223 85.8121547,16.7734807 85.8121547,20.1767956 C85.8121547,22.93186 84.9208103,25.160221 83.1381215,26.8618785 C81.3554328,28.5635359 79.1675875,29.4143646 76.5745856,29.4143646 C74.7918969,29.4143646 73.2117864,28.8876611 71.8342541,27.8342541 C70.4567219,26.7808471 69.0791897,25.6464088 67.7016575,24.4309392 C66.3241252,23.2154696 64.8655617,22.121547 63.3259669,21.1491713 C61.786372,20.1767956 60.0441989,19.6906077 58.0994475,19.6906077 C55.8305709,19.6906077 53.359116,20.3793738 50.6850829,21.7569061 C48.0110497,23.1344383 45.3370166,24.7955801 42.6629834,26.7403315 C39.9889503,28.6850829 37.4364641,30.7918969 35.0055249,33.0607735 C32.5745856,35.3296501 30.4677716,37.3554328 28.6850829,39.1381215 L28.6850829,103.801105 C28.5230203,107.528545 27.4290976,110.324125 25.4033149,112.187845 C23.3775322,114.051565 21.1491713,114.983425 18.718232,114.983425 C16.4493554,114.983425 14.3425414,114.132597 12.3977901,112.430939 C10.4530387,110.729282 9.23756906,108.095764 8.75138122,104.530387 L8.75138122,38.1657459 C8.75138122,37.8416206 8.71086556,37.4769797 8.62983425,37.0718232 C8.54880295,36.6666667 8.50828729,36.3020258 8.50828729,35.9779006 C8.50828729,35.6537753 8.54880295,35.2891344 8.62983425,34.8839779 C8.71086556,34.4788214 8.75138122,34.1141805 8.75138122,33.7900552 L8.75138122,26.7403315 C8.10313076,26.4162063 7.5359116,26.1731123 7.04972376,26.0110497 Z" id="路径"></path>
            </g>
        </g>
    </g>
</svg>