<?xml version="1.0" encoding="UTF-8"?>
<svg width="400px" height="400px" viewBox="0 0 400 400" version="1.1" xmlns="http://www.w3.org/2000/svg" xmlns:xlink="http://www.w3.org/1999/xlink">
    <title>编组 49</title>
    <g id="页面-1" stroke="none" stroke-width="1" fill="none" fill-rule="evenodd">
        <g id="编组-49">
            <circle id="椭圆形备份-19" fill="#FFEDAD" cx="200" cy="200" r="200"></circle>
            <path d="M171.453039,190.066298 C167.887661,189.58011 165.254144,188.364641 163.552486,186.41989 C161.850829,184.475138 161,182.368324 161,180.099448 C161,177.830571 161.93186,175.60221 163.79558,173.414365 C165.6593,171.226519 168.45488,170.132597 172.18232,170.132597 L185.79558,170.132597 L185.79558,131.723757 C186.605893,128.482505 187.902394,126.051565 189.685083,124.430939 C191.467772,122.810313 193.493554,122 195.762431,122 C197.869245,122 199.854512,122.729282 201.718232,124.187845 C203.581952,125.646409 204.918969,127.915285 205.729282,130.994475 L205.729282,170.132597 L229.066298,170.132597 C232.145488,170.94291 234.414365,172.279926 235.872928,174.143646 C237.331492,176.007366 238.060773,177.992634 238.060773,180.099448 C238.060773,182.368324 237.25046,184.394107 235.629834,186.176796 C234.009208,187.959484 231.578269,189.255985 228.337017,190.066298 L205.729282,190.066298 C205.567219,202.54512 205.567219,215.388582 205.729282,228.596685 C205.891344,241.804788 205.972376,254.64825 205.972376,267.127072 C205.972376,270.854512 204.878453,273.650092 202.690608,275.513812 C200.502762,277.377532 198.274401,278.309392 196.005525,278.309392 C193.736648,278.309392 191.629834,277.458564 189.685083,275.756906 C187.740331,274.055249 186.524862,271.421731 186.038674,267.856354 C186.038674,255.21547 185.998158,242.25046 185.917127,228.961326 C185.836096,215.672192 185.79558,202.707182 185.79558,190.066298 L171.453039,190.066298 Z" id="路径" fill="#000000" fill-rule="nonzero"></path>
        </g>
    </g>
</svg>