<?xml version="1.0" encoding="UTF-8"?>
<svg width="400px" height="400px" viewBox="0 0 400 400" version="1.1" xmlns="http://www.w3.org/2000/svg" xmlns:xlink="http://www.w3.org/1999/xlink">
    <title>编组 23</title>
    <g id="页面-1" stroke="none" stroke-width="1" fill="none" fill-rule="evenodd">
        <g id="编组-23">
            <circle id="椭圆形备份-19" fill="#FFEDAD" cx="200" cy="200" r="200"></circle>
            <path d="M245.244199,132 C248.190792,133.031308 250.437569,134.504604 251.98453,136.41989 C253.531492,138.335175 254.231308,140.25046 254.083978,142.165746 C253.936648,144.375691 253.015838,146.327808 251.321547,148.022099 C249.627256,149.71639 247.08582,150.93186 243.697238,151.668508 L211.21105,151.889503 C211.21105,169.421731 211.247882,186.990792 211.321547,204.596685 C211.395212,222.202578 211.432044,239.771639 211.432044,257.303867 C211.284715,261.134438 210.069245,263.933702 207.785635,265.701657 C205.502026,267.469613 203.034254,268.353591 200.38232,268.353591 C197.877716,268.353591 195.557274,267.506446 193.420994,265.812155 C191.284715,264.117864 189.99558,261.576427 189.553591,258.187845 L189.332597,151.889503 L156.40442,151.889503 C152.721179,151.152855 150.032413,149.826888 148.338122,147.911602 C146.643831,145.996317 145.87035,143.860037 146.01768,141.502762 C146.165009,139.145488 147.196317,137.009208 149.111602,135.093923 C151.026888,133.178637 154.047145,132.220994 158.172376,132.220994 C173.641989,132.220994 186.606998,132.220994 197.067403,132.220994 C207.527808,132.220994 216.072928,132.184162 222.702762,132.110497 C229.332597,132.036832 234.378637,132 237.840884,132 C241.303131,132 243.770902,132 245.244199,132 Z" id="路径" fill="#000000" fill-rule="nonzero"></path>
        </g>
    </g>
</svg>