<?xml version="1.0" encoding="UTF-8"?>
<svg width="400px" height="400px" viewBox="0 0 400 400" version="1.1" xmlns="http://www.w3.org/2000/svg" xmlns:xlink="http://www.w3.org/1999/xlink">
    <title>编组 22</title>
    <g id="页面-1" stroke="none" stroke-width="1" fill="none" fill-rule="evenodd">
        <g id="编组-22">
            <circle id="椭圆形备份-20" fill="#FFEDAD" cx="200" cy="200" r="200"></circle>
            <path d="M231.640884,141.502762 C232.377532,138.26151 233.740331,135.867403 235.729282,134.320442 C237.718232,132.773481 239.965009,132 242.469613,132 C244.826888,132 247.073665,132.736648 249.209945,134.209945 C251.346225,135.683241 252.782689,137.893186 253.519337,140.839779 C253.372007,149.826888 253.11418,159.366483 252.745856,169.458564 C252.377532,179.550645 251.677716,189.384899 250.646409,198.961326 C249.615101,208.537753 248.252302,217.598527 246.558011,226.143646 C244.86372,234.688766 242.616943,241.907919 239.81768,247.801105 C238.049724,251.189687 235.581952,254.173112 232.414365,256.751381 C229.246777,259.32965 225.747698,261.502762 221.917127,263.270718 C218.086556,265.038674 214.034991,266.364641 209.762431,267.248619 C205.489871,268.132597 201.438306,268.574586 197.607735,268.574586 C192.893186,268.574586 188.289134,268.022099 183.79558,266.917127 C179.302026,265.812155 175.103131,264.191529 171.198895,262.055249 C167.294659,259.918969 163.906077,257.230203 161.033149,253.98895 C158.160221,250.747698 155.987109,246.990792 154.513812,242.718232 C151.27256,233.878453 149.209945,224.191529 148.325967,213.657459 C147.441989,203.123389 147,192.405157 147,181.502762 C147,177.966851 147.036832,174.430939 147.110497,170.895028 C147.184162,167.359116 147.220994,163.896869 147.220994,160.508287 C147.220994,157.414365 147.257827,154.357274 147.331492,151.337017 C147.405157,148.316759 147.441989,145.333333 147.441989,142.38674 C148.178637,139.292818 149.541436,136.972376 151.530387,135.425414 C153.519337,133.878453 155.766114,133.104972 158.270718,133.104972 C160.627993,133.104972 162.87477,133.804788 165.01105,135.20442 C167.14733,136.604052 168.583794,138.777164 169.320442,141.723757 C169.320442,144.228361 169.320442,146.990792 169.320442,150.01105 C169.320442,153.031308 169.246777,156.162063 169.099448,159.403315 C168.952118,163.086556 168.841621,167.174954 168.767956,171.668508 C168.694291,176.162063 168.657459,180.39779 168.657459,184.375691 C168.657459,190.416206 168.767956,196.41989 168.98895,202.38674 C169.209945,208.353591 169.688766,213.878453 170.425414,218.961326 C171.162063,224.044199 172.119705,228.537753 173.298343,232.441989 C174.47698,236.346225 176.097606,239.255985 178.160221,241.171271 C181.106814,244.265193 184.384899,246.364641 187.994475,247.469613 C191.604052,248.574586 195.103131,249.127072 198.491713,249.127072 C202.616943,249.127072 206.594843,248.206262 210.425414,246.364641 C214.255985,244.52302 217.865562,241.61326 221.254144,237.635359 C223.316759,234.983425 224.974217,230.489871 226.226519,224.154696 C227.478821,217.819521 228.436464,210.637201 229.099448,202.607735 C229.762431,194.578269 230.241252,186.290976 230.535912,177.745856 C230.830571,169.200737 231.051565,161.46593 231.198895,154.541436 C231.198895,152.478821 231.27256,150.305709 231.41989,148.022099 C231.567219,145.73849 231.640884,143.565378 231.640884,141.502762 Z" id="路径" fill="#000000" fill-rule="nonzero"></path>
        </g>
    </g>
</svg>