<?xml version="1.0" encoding="UTF-8"?>
<svg width="400px" height="400px" viewBox="0 0 400 400" version="1.1" xmlns="http://www.w3.org/2000/svg" xmlns:xlink="http://www.w3.org/1999/xlink">
    <title>编组 21</title>
    <g id="页面-1" stroke="none" stroke-width="1" fill="none" fill-rule="evenodd">
        <g id="编组-21">
            <circle id="椭圆形备份-21" fill="#FFEDAD" cx="200" cy="200" r="200"></circle>
            <path d="M238.900552,137.187845 C240.226519,135.12523 241.699816,133.578269 243.320442,132.546961 C244.941068,131.515654 246.856354,131 249.066298,131 C251.865562,131 254.333333,131.883978 256.469613,133.651934 C258.605893,135.41989 259.674033,137.777164 259.674033,140.723757 C259.674033,141.460405 259.600368,142.197053 259.453039,142.933702 C259.305709,143.67035 259.084715,144.406998 258.790055,145.143646 C247.887661,164.149171 238.458564,183.52302 230.502762,203.265193 C222.546961,223.007366 214.88582,242.528545 207.519337,261.828729 C206.488029,264.333333 205.014733,266.248619 203.099448,267.574586 C201.184162,268.900552 199.121547,269.563536 196.911602,269.563536 C194.848987,269.563536 192.933702,269.01105 191.165746,267.906077 C189.39779,266.801105 187.924494,265.143646 186.745856,262.933702 C178.937385,242.896869 171.276243,222.933702 163.762431,203.044199 C156.248619,183.154696 148.734807,163.117864 141.220994,142.933702 C141.220994,142.786372 141.184162,142.74954 141.110497,142.823204 C141.036832,142.896869 141,142.786372 141,142.491713 L141,141.38674 C141,137.998158 141.994475,135.41989 143.983425,133.651934 C145.972376,131.883978 148.366483,131 151.165746,131 C155.290976,131 158.679558,132.98895 161.331492,136.966851 C165.162063,146.690608 168.550645,155.41989 171.497238,163.154696 C174.443831,170.889503 177.279926,178.292818 180.005525,185.364641 C182.731123,192.436464 185.41989,199.581952 188.071823,206.801105 C190.723757,214.020258 193.596685,221.976059 196.690608,230.668508 L201.994475,218.292818 L201.994475,218.513812 L205.530387,209.895028 C205.972376,208.71639 206.488029,207.537753 207.077348,206.359116 C207.666667,205.180479 208.18232,204.001842 208.624309,202.823204 C213.338858,191.331492 218.090239,180.097606 222.878453,169.121547 C227.666667,158.145488 233.007366,147.500921 238.900552,137.187845 Z" id="路径" fill="#000000" fill-rule="nonzero"></path>
        </g>
    </g>
</svg>