<?xml version="1.0" standalone="no"?>
<!DOCTYPE svg PUBLIC "-//W3C//DTD SVG 20010904//EN"
 "http://www.w3.org/TR/2001/REC-SVG-20010904/DTD/svg10.dtd">
<svg version="1.0" xmlns="http://www.w3.org/2000/svg"
 width="748.000000pt" height="748.000000pt" viewBox="0 0 748.000000 748.000000"
 preserveAspectRatio="xMidYMid meet">

<g transform="translate(0.000000,748.000000) scale(0.100000,-0.100000)"
fill="#000000" stroke="none">
<path d="M0 3740 l0 -3740 3740 0 3740 0 0 3740 0 3740 -3740 0 -3740 0 0
-3740z m4019 1819 c76 -35 168 -110 177 -145 4 -14 11 -21 18 -17 16 10 236
11 236 1 0 -4 7 -8 15 -8 27 0 95 -32 95 -45 0 -7 -23 -30 -52 -51 -28 -21
-56 -48 -62 -59 -6 -11 -19 -32 -28 -46 -10 -14 -15 -29 -11 -32 11 -11 -46
-86 -77 -102 -28 -14 -30 -18 -24 -56 4 -22 2 -57 -4 -77 -83 -281 -108 -338
-204 -474 -26 -37 -47 -12 -48 57 0 54 -11 76 -31 70 -14 -5 -19 -1 -19 10 0
24 -40 93 -57 100 -16 5 -113 -33 -113 -45 0 -4 -18 -15 -40 -25 -61 -27 -62
-50 -4 -101 27 -24 73 -60 102 -81 53 -37 54 -37 69 -18 8 11 17 32 20 47 5
28 23 29 23 2 0 -20 -78 -132 -100 -144 -89 -48 -209 -68 -195 -32 3 8 -3 33
-14 56 -24 52 -52 140 -57 186 -3 20 -9 49 -14 65 -8 28 -9 28 -15 8 -5 -16
-16 -22 -45 -25 -33 -3 -41 0 -49 19 -14 29 -31 30 -31 1 0 -30 -53 -113 -85
-134 -28 -18 -28 -19 -72 44 -14 20 -14 24 -1 35 22 18 88 115 88 130 0 6 -13
-3 -28 -21 l-28 -34 -36 40 c-57 63 -69 117 -75 347 -5 188 -4 203 15 240 46
91 261 255 417 317 52 21 184 37 245 30 19 -2 64 -17 99 -33z m-1996 -166 c23
-14 85 -69 138 -122 l96 -96 12 -106 c7 -59 12 -155 11 -215 -1 -60 1 -194 4
-299 5 -181 1 -237 -25 -332 -11 -39 -39 -61 -39 -30 -1 7 -6 5 -14 -5 -7 -10
-15 -15 -19 -12 -5 6 -85 -15 -102 -26 -10 -7 -52 -20 -88 -27 -9 -1 -43 -12
-75 -22 -104 -35 -365 -70 -528 -71 -80 0 -134 -4 -141 -11 -14 -14 -17 -5
-43 156 -11 72 -27 171 -35 220 -8 50 -16 108 -18 130 -1 22 -6 46 -10 53 -5
7 -4 12 3 12 6 0 13 -7 17 -15 9 -24 80 -16 101 10 10 12 20 22 25 22 20 3 24
11 31 51 8 51 9 51 -108 54 l-90 3 -9 35 c-5 19 -14 78 -21 130 l-12 95 -44 0
c-44 1 -45 1 -52 40 -7 41 -11 235 -5 235 2 0 114 24 248 54 134 30 300 64
369 75 69 11 150 24 180 29 30 5 88 10 128 11 62 1 78 -3 115 -26z m3208 -23
c101 -12 209 -24 239 -28 l55 -7 -3 -130 c-2 -72 -5 -131 -5 -131 -2 -2 -205
12 -314 22 l-82 7 -21 -70 c-14 -47 -20 -90 -18 -129 4 -74 10 -77 188 -99 74
-9 143 -19 153 -21 21 -7 22 -43 1 -58 -13 -10 -14 -21 -6 -64 9 -48 2 -67
-13 -41 -4 5 -18 14 -31 19 -14 6 -22 15 -18 23 8 21 -19 28 -151 39 -228 18
-328 21 -321 9 4 -6 14 -11 23 -11 9 0 24 -6 32 -14 9 -8 32 -18 51 -24 32 -8
35 -12 32 -42 -1 -18 3 -37 10 -41 9 -6 9 -29 2 -101 -6 -56 -7 -104 -1 -120
10 -30 7 -29 237 -48 171 -14 173 -14 166 -59 -3 -20 -10 -75 -17 -123 -8 -61
-15 -88 -24 -88 -8 0 -16 4 -19 8 -3 5 -71 12 -151 16 -80 4 -210 13 -288 22
-78 8 -185 19 -237 25 -52 5 -107 7 -122 3 l-28 -6 0 59 c0 32 9 155 21 273
30 320 38 436 33 457 -3 10 2 65 10 122 20 130 20 121 -8 121 -46 0 -56 10
-56 54 0 53 35 186 52 198 21 15 425 0 629 -22z m791 -107 l126 -6 66 -266
c50 -201 71 -270 87 -283 44 -37 50 -21 95 237 14 83 29 168 33 190 6 38 8 40
51 47 92 14 256 5 275 -14 2 -2 0 -44 -5 -93 -6 -50 -15 -137 -20 -195 -13
-136 -26 -198 -46 -218 -14 -14 -16 -32 -11 -118 6 -91 -10 -311 -39 -526 -5
-45 -13 -56 -27 -42 -3 3 -97 8 -209 10 -288 6 -269 3 -294 55 -40 82 -129
352 -149 446 -6 29 -4 33 19 39 15 4 33 0 47 -10 21 -14 24 -14 36 4 8 11 19
18 24 14 13 -7 38 25 39 48 0 32 -48 124 -72 135 -13 7 -35 12 -50 11 -16 0
-35 5 -43 12 -19 16 -72 21 -101 9 -14 -5 -24 -4 -26 3 -2 6 -18 1 -38 -11
-19 -12 -47 -26 -62 -32 -31 -12 -44 -37 -23 -45 9 -4 15 -19 15 -35 0 -26 4
-29 30 -29 17 0 33 -6 36 -14 3 -8 18 -19 34 -26 15 -6 31 -21 34 -33 9 -34 7
-149 -3 -203 -5 -27 -14 -96 -20 -154 -17 -160 -7 -146 -103 -143 -46 2 -116
6 -155 9 l-73 6 5 146 c10 275 15 347 30 432 8 47 15 103 15 125 0 22 12 147
27 277 l28 237 45 4 c85 7 245 7 372 0z m-2919 -95 c5 -21 21 -149 22 -172 0
-6 -20 -11 -45 -13 -112 -6 -256 -25 -265 -34 -5 -6 -10 -47 -10 -93 0 -120
-2 -119 164 -115 115 3 136 2 137 -11 0 -8 -2 -19 -5 -25 -9 -18 -10 -55 0
-55 5 0 9 -7 9 -16 0 -19 -39 -10 -57 13 -13 16 -113 13 -303 -9 -86 -11 -92
-12 -60 -21 19 -5 46 -10 60 -11 32 -2 52 -15 44 -27 -3 -5 2 -21 10 -35 10
-14 19 -57 23 -105 4 -59 10 -82 22 -88 9 -4 59 -4 111 1 52 5 120 7 150 6
l55 -3 3 -95 3 -95 -48 -1 c-26 -1 -106 -7 -178 -15 -71 -7 -145 -13 -162 -13
-18 0 -33 -2 -33 -5 0 -3 -38 -5 -84 -3 -47 1 -104 -2 -127 -7 -24 -6 -45 -8
-48 -6 -7 7 -30 296 -31 384 0 70 2 82 15 77 9 -3 15 0 15 9 0 8 8 12 20 10
12 -2 27 6 41 23 l21 27 -26 3 c-34 4 -88 -19 -81 -35 2 -7 1 -13 -3 -13 -12
0 -32 155 -32 243 0 73 -1 77 -24 83 -14 3 -29 3 -34 0 -14 -9 -25 85 -17 144
8 56 1 52 135 74 148 24 351 41 516 44 88 2 92 1 97 -20z m904 -640 c-3 -7 -5
-2 -5 12 0 14 2 19 5 13 2 -7 2 -19 0 -25z m-402 -38 c-3 -5 -12 -7 -20 -3
-21 7 -19 13 6 13 11 0 18 -4 14 -10z m-127 -91 c24 -17 41 -34 38 -36 -9 -10
-96 39 -96 53 0 21 11 17 58 -17z m212 -121 c0 -9 -70 18 -85 33 -5 5 12 2 38
-8 26 -9 47 -21 47 -25z m635 -436 c215 -68 307 -187 322 -415 9 -145 -36
-284 -127 -387 -22 -25 -43 -53 -46 -63 -3 -11 -12 -16 -20 -13 -8 3 -12 1 -9
-4 3 -5 -3 -15 -15 -22 -11 -7 -20 -20 -20 -28 0 -21 99 -143 171 -210 32 -30
59 -62 59 -70 -1 -9 -36 -32 -82 -55 -45 -22 -119 -61 -165 -87 -46 -27 -87
-48 -91 -48 -12 1 -118 170 -165 263 -52 105 -57 101 -57 -51 0 -59 -3 -117
-6 -129 -7 -24 -30 -31 -36 -12 -3 9 -52 9 -185 3 l-180 -9 -7 110 c-3 61 -11
229 -16 375 -6 146 -14 351 -20 455 -11 216 -15 374 -9 379 3 4 149 24 279 40
19 2 109 3 200 1 128 -3 178 -8 225 -23z m-2086 -58 c24 -31 28 -96 7 -113 -7
-6 -34 -14 -59 -17 -26 -4 -44 -11 -41 -15 3 -5 -1 -7 -8 -4 -22 8 -67 -70
-103 -181 -47 -142 -290 -995 -306 -1072 -12 -57 -14 -61 -46 -67 -19 -3 -53
-3 -76 0 l-43 7 -281 567 c-317 640 -305 621 -416 629 -69 5 -84 22 -94 100
-5 48 -4 51 18 56 20 4 188 20 551 53 45 4 73 2 82 -6 18 -15 29 -74 21 -112
-6 -25 -11 -29 -38 -29 -42 0 -99 -31 -114 -61 -19 -36 -16 -72 13 -157 23
-70 256 -554 286 -595 12 -16 18 0 52 125 118 436 153 595 141 649 -10 45 -48
69 -111 69 -45 0 -56 4 -68 23 -17 27 -29 104 -18 111 5 3 58 10 118 16 253
26 470 48 491 49 12 1 30 -10 42 -25z m4160 -59 c228 -20 417 -37 419 -40 5
-5 -36 -303 -43 -315 -3 -4 -24 -4 -47 0 -81 15 -432 34 -435 24 -2 -5 -34 -8
-73 -6 -79 5 -78 6 -82 -78 l-3 -55 245 -22 c135 -12 256 -22 269 -22 22 -1
23 -4 17 -43 -4 -24 -14 -92 -22 -153 -18 -134 -22 -148 -40 -141 -9 3 -12 1
-9 -4 3 -6 1 -10 -4 -10 -6 0 -11 5 -11 10 0 7 -13 9 -32 5 -18 -3 -130 1
-248 9 -118 8 -216 14 -218 12 -6 -7 -22 -139 -18 -144 3 -2 137 -15 298 -28
161 -14 304 -27 317 -30 21 -5 23 -9 17 -47 -3 -23 -13 -91 -21 -151 -24 -172
-16 -159 -94 -152 -36 4 -140 13 -231 22 -165 15 -271 32 -280 44 -7 9 -162
28 -293 37 -59 3 -110 9 -112 13 -2 3 7 85 21 181 13 95 33 239 44 319 32 233
79 565 97 694 l17 118 70 -6 c39 -3 257 -22 485 -41z m-3015 -47 c3 -24 8 -86
11 -139 l5 -97 -57 -6 c-32 -4 -87 -11 -123 -16 -36 -5 -92 -13 -125 -16 -42
-5 -54 -9 -40 -14 21 -8 0 -12 -115 -25 -88 -10 -90 -11 -90 -58 0 -76 -9 -74
245 -46 138 15 229 21 233 15 7 -13 21 -267 15 -283 -4 -9 -16 -12 -42 -7 -23
3 -31 2 -23 -4 15 -10 14 -10 -234 -41 -84 -10 -156 -21 -160 -24 -5 -3 -7
-32 -6 -66 l4 -61 33 0 c18 0 131 11 251 25 257 29 270 30 278 9 3 -8 9 -77
12 -153 l7 -137 -94 -12 c-52 -7 -166 -19 -254 -27 -88 -8 -179 -17 -202 -20
-24 -3 -43 -1 -43 4 0 5 -15 8 -32 6 -18 -1 -71 -5 -118 -9 -47 -4 -95 -9
-108 -12 -13 -2 -24 1 -27 8 -2 7 -8 112 -14 233 -6 121 -15 292 -20 380 -28
455 -32 537 -28 542 7 7 737 90 804 92 l52 1 5 -42z m2041 3 c39 -9 41 -20 50
-286 l7 -215 -44 1 c-66 3 -112 -29 -124 -87 -4 -23 4 -48 36 -109 56 -106 80
-177 80 -239 0 -135 -96 -255 -233 -292 -71 -19 -201 -19 -217 1 -6 8 -17 13
-22 12 -6 -1 -21 43 -33 99 -12 55 -24 108 -27 116 -5 13 6 15 72 14 70 -1 81
2 104 23 21 19 26 34 26 70 0 45 -1 47 -119 161 -121 117 -146 153 -175 249
-39 131 0 290 90 372 78 70 165 107 284 118 79 8 194 4 245 -8z"/>
<path d="M4279 5352 c-51 -33 -87 -84 -95 -134 -7 -42 11 -66 61 -84 49 -16
79 -4 113 46 12 19 45 58 72 88 28 30 47 58 44 63 -3 5 4 9 15 9 11 0 22 4 25
9 8 12 -57 27 -129 30 -51 1 -67 -2 -106 -27z m148 -67 c-1 -1 -17 -12 -34
-24 -29 -19 -32 -20 -26 -4 11 27 46 54 55 40 4 -6 6 -12 5 -12z m-75 -77 c-7
-7 -12 -8 -12 -2 0 14 12 26 19 19 2 -3 -1 -11 -7 -17z m-57 -57 c-3 -6 -11
-11 -17 -11 -6 0 -6 6 2 15 14 17 26 13 15 -4z"/>
<path d="M3845 5292 c-72 -42 -144 -95 -139 -104 3 -4 0 -7 -8 -6 -7 2 -12 -3
-10 -11 3 -15 -16 -41 -29 -41 -5 0 -9 5 -9 10 0 6 8 10 17 10 9 0 13 3 10 6
-9 10 -67 -17 -67 -30 0 -7 5 -17 10 -22 7 -7 2 -18 -16 -35 -25 -23 -26 -23
-40 -5 -13 18 -14 18 -20 2 -4 -11 -1 -21 6 -26 10 -6 8 -15 -10 -37 -13 -15
-20 -21 -17 -11 3 9 -2 23 -13 33 -18 16 -20 16 -26 1 -9 -23 -33 -20 -38 7
-3 12 -7 31 -9 42 -3 11 -5 -7 -6 -40 0 -33 3 -65 7 -70 12 -17 87 -64 142
-90 55 -25 180 -56 214 -53 l31 3 -40 37 -40 37 31 33 c52 57 58 77 44 155
-16 87 -20 143 -10 143 5 0 23 18 40 40 17 22 30 40 28 39 -1 0 -16 -8 -33
-17z"/>
<path d="M3910 4725 c-11 -13 -10 -14 4 -9 9 3 16 10 16 15 0 13 -6 11 -20 -6z"/>
<path d="M3809 4663 c-13 -17 -13 -17 6 -3 11 8 22 16 24 17 2 2 0 3 -6 3 -6
0 -17 -8 -24 -17z"/>
<path d="M3696 4616 c19 -26 34 -33 34 -17 0 5 -12 16 -26 26 l-27 17 19 -26z"/>
<path d="M3765 4630 c-3 -6 1 -7 9 -4 18 7 21 14 7 14 -6 0 -13 -4 -16 -10z"/>
<path d="M1666 5059 c-32 -5 -66 -15 -75 -23 -9 -8 -27 -16 -41 -18 -19 -2
-26 -10 -28 -32 -3 -28 -2 -29 14 -15 16 12 17 12 9 0 -9 -16 -11 -253 -2
-269 8 -12 57 -296 57 -328 0 -22 3 -24 55 -24 76 0 152 18 181 43 22 19 26
34 34 115 5 51 6 108 3 126 -3 19 -1 36 5 40 6 4 9 13 5 21 -6 18 23 21 31 3
3 -10 8 -9 18 3 12 15 33 22 101 36 22 4 27 11 27 34 0 33 -16 38 -36 12 -8
-11 -13 -13 -14 -6 0 7 -9 17 -21 23 -16 9 -26 8 -45 -5 -13 -9 -29 -13 -34
-10 -6 3 -10 -2 -10 -11 0 -13 -5 -11 -23 9 -12 15 -32 27 -43 27 -11 0 -29 7
-40 15 -17 13 -17 14 -1 15 9 0 26 9 38 21 23 23 22 58 -3 141 -16 53 -66 71
-162 57z m-96 -59 c0 -5 -5 -10 -11 -10 -5 0 -7 5 -4 10 3 6 8 10 11 10 2 0 4
-4 4 -10z"/>
<path d="M4632 4781 c-5 -3 -11 -21 -14 -38 -4 -29 -2 -33 19 -33 21 0 22 2
12 21 -10 19 -9 20 13 14 12 -4 28 -12 33 -19 14 -17 45 -28 45 -16 0 6 6 10
14 10 7 0 26 10 41 22 25 20 26 22 9 32 -21 11 -156 17 -172 7z"/>
<path d="M4118 3273 c-16 -4 -18 -19 -18 -130 l0 -125 33 7 c149 32 201 208
71 243 -46 12 -56 13 -86 5z"/>
</g>
</svg>
