<?xml version="1.0" encoding="UTF-8"?>
<svg width="400px" height="400px" viewBox="0 0 400 400" version="1.1" xmlns="http://www.w3.org/2000/svg" xmlns:xlink="http://www.w3.org/1999/xlink">
    <title>编组 20</title>
    <g id="页面-1" stroke="none" stroke-width="1" fill="none" fill-rule="evenodd">
        <g id="编组-20">
            <circle id="椭圆形备份-22" fill="#FFEDAD" cx="200" cy="200" r="200"></circle>
            <path d="M271.41989,139.502762 C272.303867,136.26151 273.740331,133.904236 275.729282,132.430939 C277.718232,130.957643 279.965009,130.220994 282.469613,130.220994 C285.268877,130.220994 287.736648,131.141805 289.872928,132.983425 C292.009208,134.825046 293.077348,137.513812 293.077348,141.049724 C291.456722,152.099448 288.841621,163.259669 285.232044,174.530387 C281.622468,185.801105 277.828729,196.740331 273.850829,207.348066 C269.725599,217.366483 266.005525,227.311234 262.690608,237.18232 C259.375691,247.053407 255.287293,256.703499 250.425414,266.132597 C247.773481,269.226519 244.679558,270.773481 241.143646,270.773481 C236.281768,270.773481 232.966851,268.858195 231.198895,265.027624 L216.392265,225.248619 C215.066298,221.418048 213.813996,217.918969 212.635359,214.751381 C211.456722,211.583794 210.314917,208.489871 209.209945,205.469613 C208.104972,202.449355 206.963168,199.3186 205.78453,196.077348 C204.605893,192.836096 203.206262,189.300184 201.585635,185.469613 C199.965009,189.889503 198.270718,194.493554 196.502762,199.281768 C194.734807,204.069982 193.040516,208.600368 191.41989,212.872928 C187.14733,224.511971 183.353591,234.640884 180.038674,243.259669 C176.723757,251.878453 173.372007,259.429098 169.983425,265.911602 C167.331492,269.005525 164.237569,270.552486 160.701657,270.552486 C155.839779,270.552486 152.230203,268.121547 149.872928,263.259669 C145.747698,247.348066 141.217311,232.099448 136.281768,217.513812 C131.346225,202.928177 126.07919,188.489871 120.480663,174.198895 C118.712707,169.484346 116.907919,164.696133 115.066298,159.834254 C113.224678,154.972376 111.051565,150.110497 108.546961,145.248619 C107.515654,143.038674 107,141.123389 107,139.502762 C107,136.703499 107.957643,134.41989 109.872928,132.651934 C111.788214,130.883978 114.219153,130 117.165746,130 C118.933702,130 120.775322,130.478821 122.690608,131.436464 C124.605893,132.394107 126.373849,134.12523 127.994475,136.629834 C130.05709,141.049724 132.267035,146.243094 134.624309,152.209945 C136.981584,158.176796 139.338858,164.254144 141.696133,170.441989 C144.348066,177.513812 146.668508,183.664825 148.657459,188.895028 C150.646409,194.12523 152.451197,198.913444 154.071823,203.259669 C155.692449,207.605893 157.165746,211.804788 158.491713,215.856354 C159.81768,219.907919 161.143646,224.290976 162.469613,229.005525 C167.773481,215.156538 172.819521,201.491713 177.607735,188.01105 C182.395948,174.530387 186.410681,160.718232 189.651934,146.574586 C192.156538,142.449355 195.54512,140.38674 199.81768,140.38674 C203.94291,140.38674 207.257827,142.228361 209.762431,145.911602 C212.709024,153.720074 215.434622,161.086556 217.939227,168.01105 C220.443831,174.935543 222.948435,181.786372 225.453039,188.563536 C226.926335,192.836096 228.289134,196.777164 229.541436,200.38674 C230.793738,203.996317 232.046041,207.532228 233.298343,210.994475 C234.550645,214.456722 235.876611,218.029466 237.276243,221.712707 C238.675875,225.395948 240.259669,229.300184 242.027624,233.425414 C244.826888,225.469613 247.699816,217.587477 250.646409,209.779006 C253.593002,201.970534 256.392265,194.198895 259.044199,186.464088 C261.696133,178.729282 264.090239,170.957643 266.226519,163.149171 C268.362799,155.3407 270.093923,147.458564 271.41989,139.502762 Z" id="路径" fill="#000000" fill-rule="nonzero"></path>
        </g>
    </g>
</svg>