<?xml version="1.0" encoding="UTF-8"?>
<svg width="400px" height="400px" viewBox="0 0 400 400" version="1.1" xmlns="http://www.w3.org/2000/svg" xmlns:xlink="http://www.w3.org/1999/xlink">
    <title>编组 25</title>
    <g id="页面-1" stroke="none" stroke-width="1" fill="none" fill-rule="evenodd">
        <g id="编组-25">
            <circle id="椭圆形备份-24" fill="#FFEDAD" cx="200" cy="200" r="200"></circle>
            <path d="M208.867403,258.292818 C208.720074,261.976059 207.504604,264.701657 205.220994,266.469613 C202.937385,268.237569 200.469613,269.121547 197.81768,269.121547 C195.313076,269.121547 192.992634,268.274401 190.856354,266.58011 C188.720074,264.88582 187.430939,262.344383 186.98895,258.955801 L186.98895,232.436464 C186.98895,228.016575 186.952118,223.596685 186.878453,219.176796 C186.804788,214.756906 186.767956,210.263352 186.767956,205.696133 C177.486188,196.709024 169.198895,187.243094 161.906077,177.298343 C154.61326,167.353591 149.051565,156.414365 145.220994,144.480663 C145.220994,144.333333 145.184162,144.149171 145.110497,143.928177 C145.036832,143.707182 145,143.228361 145,142.491713 C145,139.103131 145.994475,136.488029 147.983425,134.646409 C149.972376,132.804788 152.366483,131.883978 155.165746,131.883978 C159.290976,131.883978 162.826888,134.020258 165.773481,138.292818 C168.720074,148.311234 172.955801,157.224678 178.480663,165.033149 C184.005525,172.841621 190.230203,180.281768 197.154696,187.353591 L202.900552,180.502762 C208.646409,173.872928 214.392265,166.948435 220.138122,159.729282 C225.883978,152.510129 230.819521,144.996317 234.944751,137.187845 C236.270718,134.977901 237.854512,133.394107 239.696133,132.436464 C241.537753,131.478821 243.416206,131 245.331492,131 C247.983425,131 250.377532,131.883978 252.513812,133.651934 C254.650092,135.41989 255.718232,137.777164 255.718232,140.723757 C255.718232,141.607735 255.644567,142.381215 255.497238,143.044199 C255.349908,143.707182 255.128913,144.406998 254.834254,145.143646 C249.972376,153.983425 244.410681,162.307551 238.149171,170.116022 C231.887661,177.924494 225.515654,185.80663 219.033149,193.762431 L208.646409,206.138122 C208.646409,208.790055 208.646409,212.473297 208.646409,217.187845 C208.646409,221.902394 208.646409,226.87477 208.646409,232.104972 C208.646409,237.335175 208.683241,242.344383 208.756906,247.132597 C208.830571,251.92081 208.867403,255.640884 208.867403,258.292818 Z" id="路径" fill="#000000" fill-rule="nonzero"></path>
        </g>
    </g>
</svg>