<?xml version="1.0" encoding="UTF-8"?>
<svg width="400px" height="400px" viewBox="0 0 400 400" version="1.1" xmlns="http://www.w3.org/2000/svg" xmlns:xlink="http://www.w3.org/1999/xlink">
    <title>编组 52</title>
    <g id="页面-1" stroke="none" stroke-width="1" fill="none" fill-rule="evenodd">
        <g id="编组-52">
            <circle id="椭圆形备份-25" fill="#FFEDAD" cx="200" cy="200" r="200"></circle>
            <path d="M244.201221,235.465667 C247.604536,236.438043 249.99496,238.099184 251.372492,240.449092 C252.750024,242.799 253.195696,245.108393 252.709509,247.377269 C252.223321,249.646146 250.886304,251.590897 248.698459,253.211523 C246.510614,254.832149 243.634002,255.399369 240.068625,254.913181 C226.617428,253.130492 213.125715,252.360695 199.593486,252.603788 C186.061258,252.846882 172.569545,253.373586 159.118348,254.183899 C154.418533,253.535649 151.339343,251.631413 149.880779,248.471192 C148.422216,245.310971 148.827372,241.705078 151.096249,237.653512 C159.84763,224.52644 169.530871,212.047619 180.145973,200.217048 C190.761074,188.386477 201.416691,176.636938 212.112823,164.968429 C203.037317,164.968429 194.083358,165.130492 185.250945,165.454617 C176.418533,165.778742 167.464573,166.345962 158.389067,167.156275 C155.309877,166.832149 152.878938,165.819258 151.096249,164.117601 C149.31356,162.415943 148.300669,160.552223 148.057575,158.52644 C147.814481,156.500658 148.341184,154.434359 149.637685,152.327545 C150.934186,150.220731 153.041,148.600105 155.958127,147.465667 C169.247262,146.169166 182.536396,145.399369 195.825531,145.156275 C209.114665,144.913181 222.484831,144.953696 235.936028,145.277822 C240.311719,146.574323 243.026267,148.964746 244.079674,152.449092 C245.133081,155.933439 244.201221,159.377269 241.284094,162.780584 C230.587962,174.28703 219.810798,185.75296 208.952603,197.178374 C198.094407,208.603788 187.884463,220.636938 178.322768,233.277822 C189.505089,232.953696 200.525347,232.872665 211.383542,233.034728 C222.241737,233.19679 233.180963,234.007103 244.201221,235.465667 Z" id="路径" fill="#000000" fill-rule="nonzero"></path>
        </g>
    </g>
</svg>