<?xml version="1.0" encoding="UTF-8"?>
<svg width="400px" height="400px" viewBox="0 0 400 400" version="1.1" xmlns="http://www.w3.org/2000/svg" xmlns:xlink="http://www.w3.org/1999/xlink">
    <title>编组 26</title>
    <g id="页面-1" stroke="none" stroke-width="1" fill="none" fill-rule="evenodd">
        <g id="编组-26">
            <circle id="椭圆形备份-25" fill="#FFEDAD" cx="200" cy="200" r="200"></circle>
            <g id="Z" transform="translate(141, 137)" fill="#000000" fill-rule="nonzero">
                <path d="M10.3867403,125.966851 C7.58747698,125.819521 5.15653775,124.898711 3.09392265,123.20442 C1.03130755,121.510129 0,119.263352 0,116.464088 C0,114.843462 0.2946593,113.59116 0.883977901,112.707182 C1.4732965,111.823204 1.91528545,110.865562 2.20994475,109.834254 C11.9337017,93.6279926 23.2412523,78.0478821 36.1325967,63.0939227 C49.0239411,48.1399632 62.1731123,33.5911602 75.5801105,19.4475138 C73.0755064,19.4475138 70.7550645,19.4843462 68.6187845,19.558011 C66.4825046,19.6316759 64.2357274,19.6685083 61.878453,19.6685083 C57.0165746,19.8158379 51.7495396,19.9263352 46.0773481,20 C40.4051565,20.0736648 35.1381215,20.1104972 30.2762431,20.1104972 C27.1823204,20.1104972 24.0515654,20.1104972 20.8839779,20.1104972 C17.7163904,20.1104972 14.5856354,20.0368324 11.4917127,19.8895028 C7.6611418,19.3001842 4.86187845,18.121547 3.09392265,16.3535912 C1.32596685,14.5856354 0.44198895,12.5230203 0.44198895,10.1657459 C0.44198895,7.80847145 1.39963168,5.63535912 3.31491713,3.64640884 C5.23020258,1.65745856 8.32412523,0.5893186 12.5966851,0.44198895 C22.6151013,0.883977901 32.3388582,1.06813996 41.7679558,0.994475138 C51.1970534,0.920810313 60.626151,0.73664825 70.0552486,0.44198895 C75.6537753,0.2946593 81.2891344,0.184162063 86.961326,0.110497238 C92.6335175,0.0368324125 98.1952118,0 103.646409,0 C109.686924,1.62062615 112.707182,4.78821363 112.707182,9.50276243 C112.707182,12.0073665 111.74954,14.4383057 109.834254,16.7955801 C98.1952118,25.9300184 87.5506446,35.985267 77.9005525,46.961326 C68.2504604,57.9373849 58.8581952,69.1712707 49.7237569,80.6629834 C45.4511971,85.8195212 41.878453,90.2025783 39.0055249,93.8121547 C36.1325967,97.4217311 33.4438306,100.994475 30.9392265,104.530387 L33.3701657,104.530387 C36.7587477,104.530387 40.2209945,104.604052 43.7569061,104.751381 C47.2928177,104.898711 50.7550645,105.046041 54.1436464,105.19337 C61.2154696,105.635359 68.3609576,105.856354 75.5801105,105.856354 C80.5893186,105.856354 85.5616943,105.635359 90.4972376,105.19337 C95.4327808,104.751381 100.626151,103.867403 106.077348,102.541436 C110.055249,102.541436 113.112339,103.499079 115.248619,105.414365 C117.384899,107.32965 118.453039,109.539595 118.453039,112.044199 C118.453039,113.664825 117.974217,115.211786 117.016575,116.685083 C116.058932,118.158379 114.327808,119.631676 111.823204,121.104972 C108.434622,122.13628 105.046041,123.020258 101.657459,123.756906 C98.2688766,124.493554 94.8802947,125.009208 91.4917127,125.303867 C85.4511971,126.040516 79.5211786,126.224678 73.7016575,125.856354 C67.8821363,125.488029 62.0994475,125.156538 56.3535912,124.861878 C52.6703499,124.567219 49.0239411,124.346225 45.4143646,124.198895 C41.8047882,124.051565 38.0847145,123.977901 34.2541436,123.977901 C30.5709024,123.977901 26.8508287,124.12523 23.0939227,124.41989 C19.3370166,124.714549 15.5432781,125.230203 11.7127072,125.966851 L10.3867403,125.966851 Z" id="路径"></path>
            </g>
        </g>
    </g>
</svg>