<?xml version="1.0" encoding="UTF-8"?>
<svg width="400px" height="400px" viewBox="0 0 400 400" version="1.1" xmlns="http://www.w3.org/2000/svg" xmlns:xlink="http://www.w3.org/1999/xlink">
    <title>编组 29</title>
    <g id="页面-1" stroke="none" stroke-width="1" fill="none" fill-rule="evenodd">
        <g id="编组-29">
            <circle id="椭圆形备份-2" fill="#FFEDAD" cx="200" cy="200" r="200"></circle>
            <path d="M220.829519,228.23526 C223.584583,225.966384 226.299132,224.912977 228.973165,225.075039 C231.647198,225.237102 233.794528,226.128446 235.415154,227.749072 C237.03578,229.369698 237.927124,231.517028 238.089187,234.191061 C238.25125,236.865094 237.197843,239.579643 234.928966,242.334708 C229.5809,248.168962 223.300973,252.301559 216.089187,254.732498 C208.877401,257.163437 201.746646,257.852203 194.696922,256.798796 C187.647198,255.745389 181.124178,252.949809 175.127861,248.412056 C169.131544,243.874303 164.674822,237.715923 161.757695,229.936918 C159.975007,225.561227 158.678506,220.942442 157.868193,216.080564 C157.05788,211.218686 156.814786,206.437838 157.138911,201.738023 C157.625099,193.959017 159.448303,186.139496 162.608524,178.279459 C165.768745,170.419422 170.063404,163.572277 175.492502,157.738023 C180.9216,151.903768 187.323073,147.649625 194.696922,144.975592 C202.070771,142.301559 210.133386,142.342074 218.884767,145.097139 C223.260458,146.555702 227.230992,148.338391 230.796369,150.445205 C234.361747,152.552019 237.765062,155.226052 241.006314,158.467304 C242.789003,161.060306 243.680347,163.572277 243.680347,166.003216 C243.680347,168.434155 242.991581,170.419422 241.614049,171.959017 C240.236517,173.498612 238.372797,174.511503 236.022889,174.997691 C233.672981,175.483879 231.039463,174.997691 228.122336,173.539128 C222.77427,168.191061 217.588266,164.990325 212.564325,163.936918 C207.540384,162.883511 202.881084,163.329183 198.586425,165.273934 C194.291765,167.218686 190.483294,170.338391 187.16101,174.63305 C183.838727,178.92771 181.28624,183.789588 179.503552,189.218686 C177.720863,194.647783 176.829519,200.319975 176.829519,206.23526 C176.829519,212.150546 177.963957,217.620159 180.232833,222.6441 C182.177585,227.181853 184.811102,230.666199 188.133386,233.097139 C191.45567,235.528078 194.980531,236.946126 198.707972,237.351282 C202.435412,237.756439 206.284399,237.18922 210.254933,235.649625 C214.225467,234.11003 217.750329,231.638575 220.829519,228.23526 Z" id="路径" fill="#000000" fill-rule="nonzero"></path>
        </g>
    </g>
</svg>