<?xml version="1.0" encoding="UTF-8"?>
<svg width="400px" height="400px" viewBox="0 0 400 400" version="1.1" xmlns="http://www.w3.org/2000/svg" xmlns:xlink="http://www.w3.org/1999/xlink">
    <title>编组 30</title>
    <g id="页面-1" stroke="none" stroke-width="1" fill="none" fill-rule="evenodd">
        <g id="编组-30">
            <circle id="椭圆形备份-3" fill="#FFEDAD" cx="200" cy="200" r="200"></circle>
            <g id="d" transform="translate(150, 120)" fill="#000000" fill-rule="nonzero">
                <path d="M97.7237569,138.69148 C99.8305709,141.608607 100.6814,144.404187 100.276243,147.07822 C99.8710866,149.752254 98.8176796,151.859068 97.1160221,153.398662 C95.4143646,154.938257 93.2265193,155.667539 90.5524862,155.586508 C87.878453,155.505476 85.2449355,154.16846 82.6519337,151.575458 C81.8416206,150.765145 81.1123389,149.914316 80.4640884,149.022972 C79.8158379,148.131627 79.3296501,147.280799 79.0055249,146.470486 C74.1436464,150.684114 68.5119705,153.965882 62.1104972,156.315789 C55.7090239,158.665697 49.2265193,159.840651 42.6629834,159.840651 C36.0994475,159.840651 29.8195212,158.503635 23.8232044,155.829602 C17.8268877,153.155568 12.8029466,148.982456 8.75138122,143.310265 C5.67219153,138.934574 3.44383057,134.03218 2.06629834,128.603082 C0.688766114,123.173985 0,117.663856 0,112.072696 C0,106.481535 0.688766114,100.971406 2.06629834,95.5423088 C3.44383057,90.1132112 5.18600368,85.0487545 7.29281768,80.3489386 C9.23756906,76.1353107 12.0331492,72.3268392 15.679558,68.9235243 C19.3259669,65.5202094 23.174954,62.7651449 27.2265193,60.6583309 C30.9539595,58.5515169 35.1270718,56.8093438 39.7458564,55.4318116 C44.3646409,54.0542793 48.7808471,53.2844819 52.9944751,53.1224193 C56.8839779,53.1224193 60.7734807,53.2034506 64.6629834,53.3655132 C68.5524862,53.5275758 72.3609576,54.1758263 76.0883978,55.3102646 C75.9263352,43.6417563 75.8047882,33.7964525 75.7237569,25.774353 C75.6427256,17.7522536 75.6022099,12.3636716 75.6022099,9.60860715 C76.2504604,6.52941747 77.5064457,4.17950955 79.3701657,2.5588834 C81.2338858,0.938257245 83.1786372,0.087428516 85.2044199,0.00639720849 C87.2302026,-0.0746340991 89.2154696,0.614132015 91.160221,2.07269555 C93.1049724,3.53125909 94.5635359,5.8001357 95.5359116,8.87932539 L95.5359116,136.017447 C95.8600368,136.503635 96.2246777,136.949307 96.6298343,137.354464 C97.0349908,137.75962 97.3996317,138.205292 97.7237569,138.69148 Z M76.3314917,121.188718 L76.3314917,117.785403 C76.3314917,111.789086 76.3314917,105.185034 76.3314917,97.973248 C76.3314917,90.7614617 76.2504604,83.9143162 76.0883978,77.4318116 L74.6298343,76.7025298 C74.1436464,76.3784046 73.6979742,76.0542793 73.2928177,75.7301541 C72.8876611,75.4060289 72.441989,75.0819037 71.9558011,74.7577784 C67.0939227,73.2992149 61.9889503,72.6509644 56.640884,72.813027 C51.2928177,72.9750897 46.2688766,73.987981 41.5690608,75.8517011 C36.8692449,77.7154211 32.6961326,80.42997 29.0497238,83.9953475 C25.4033149,87.560725 22.8508287,92.0984782 21.3922652,97.6086072 C20.0957643,102.632548 19.6095764,107.008239 19.9337017,110.735679 C20.2578269,114.463119 20.7440147,118.83881 21.3922652,123.862751 C22.0405157,125.159252 22.6482505,126.455753 23.2154696,127.752254 C23.7826888,129.048754 24.3904236,130.345255 25.038674,131.641756 L29.9005525,136.503635 C31.8453039,137.151885 33.7090239,137.962198 35.4917127,138.934574 C41.9742173,139.582824 47.9300184,139.258699 53.359116,137.962198 C58.7882136,136.665697 64.014733,133.829602 69.038674,129.453911 C69.2007366,129.129786 69.5653775,128.684114 70.1325967,128.116894 C70.6998158,127.549675 71.3075506,126.94194 71.9558011,126.29369 C72.6040516,125.64544 73.2117864,125.037705 73.7790055,124.470486 C74.3462247,123.903266 74.7108656,123.538626 74.8729282,123.376563 L76.3314917,121.188718 Z" id="形状"></path>
            </g>
        </g>
    </g>
</svg>