<?xml version="1.0" encoding="UTF-8"?>
<svg width="400px" height="400px" viewBox="0 0 400 400" version="1.1" xmlns="http://www.w3.org/2000/svg" xmlns:xlink="http://www.w3.org/1999/xlink">
    <title>编组 31</title>
    <g id="页面-1" stroke="none" stroke-width="1" fill="none" fill-rule="evenodd">
        <g id="编组-31">
            <circle id="椭圆形备份-4" fill="#FFEDAD" cx="200" cy="200" r="200"></circle>
            <g id="e" transform="translate(150, 145)" fill="#000000" fill-rule="nonzero">
                <path d="M84.8510857,77.8475138 C88.2544006,76.5510129 91.1715277,76.3889503 93.6024669,77.361326 C96.0334061,78.3337017 97.7755793,79.8732965 98.8289863,81.9801105 C99.8823933,84.0869245 100.044456,86.4368324 99.3151741,89.0298343 C98.5858923,91.6228361 96.6816566,93.8106814 93.6024669,95.5933702 C88.2544006,98.6725599 82.5011778,101.508656 76.3427984,104.101657 C70.184419,106.694659 63.9450084,108.477348 57.6245664,109.449724 C51.3041244,110.422099 45.0647137,110.381584 38.9063343,109.328177 C32.7479549,108.27477 26.8326695,105.803315 21.160478,101.913812 C14.3538481,97.2139963 9.16784445,90.8530387 5.60246692,82.8309392 C2.03708938,74.8088398 0.173369309,66.4626151 0.0113066941,57.7922652 C-0.150755921,49.1219153 1.42935458,40.7756906 4.75163819,32.7535912 C8.0739218,24.7314917 13.3004411,18.2895028 20.4311962,13.4276243 C27.8860765,8.40368324 35.9892072,4.63572744 44.7405885,2.12375691 C53.4919697,-0.388213628 62.3243822,-0.671823204 71.237826,1.27292818 C75.6135166,2.24530387 79.5840507,4.31160221 83.1494282,7.4718232 C86.7148058,10.6320442 89.5914172,14.278453 91.7792625,18.4110497 C93.9671078,22.5436464 95.1420618,26.919337 95.3041244,31.5381215 C95.466187,36.1569061 94.3317487,40.492081 91.9008095,44.5436464 C89.145745,49.0813996 85.1752109,52.9303867 79.9892072,56.0906077 C74.8032036,59.2508287 69.1715277,61.9248619 63.0941796,64.1127072 C57.0168316,66.3005525 50.9394835,68.1237569 44.8621354,69.5823204 C38.7847874,71.040884 33.4772367,72.4184162 28.9394835,73.7149171 C26.9947321,74.201105 25.131012,74.2821363 23.3483233,73.958011 C25.7792625,79.1440147 29.3851557,83.3981584 34.1660028,86.720442 C38.94685,90.0427256 44.9026511,91.4607735 52.0334061,90.9745856 C57.7055977,90.6504604 63.4183049,89.0703499 69.1715277,86.2342541 C74.9247505,83.3981584 80.1512699,80.6025783 84.8510857,77.8475138 Z M37.4477708,26.0685083 C31.451454,29.147698 26.9947321,33.4828729 24.077605,39.0740331 C21.160478,44.6651934 19.7019144,50.5399632 19.7019144,56.6983425 C20.8363527,55.8880295 22.0518223,55.239779 23.3483233,54.7535912 C26.2654503,53.9432781 29.2230931,53.0924494 32.2212514,52.201105 C35.2194098,51.3097606 38.2580839,50.4589319 41.3372735,49.6486188 C43.2820249,49.1624309 45.9155424,48.4331492 49.237826,47.4607735 C52.5601096,46.4883978 56.0039402,45.3539595 59.5693177,44.0574586 C63.1346953,42.7609576 66.3759476,41.2618785 69.2930746,39.560221 C72.2102017,37.8585635 74.1549531,35.9543278 75.1273288,33.8475138 C75.451454,28.4994475 74.1549531,24.8530387 71.237826,22.9082873 C68.320699,20.9635359 64.8363527,19.9911602 60.7847874,19.9911602 C56.733222,19.9911602 52.519594,20.6799263 48.1439034,22.0574586 C43.7682128,23.4349908 40.2028352,24.7720074 37.4477708,26.0685083 Z" id="形状"></path>
            </g>
        </g>
    </g>
</svg>