<?xml version="1.0" encoding="UTF-8"?>
<svg width="400px" height="400px" viewBox="0 0 400 400" version="1.1" xmlns="http://www.w3.org/2000/svg" xmlns:xlink="http://www.w3.org/1999/xlink">
    <title>编组 36</title>
    <g id="页面-1" stroke="none" stroke-width="1" fill="none" fill-rule="evenodd">
        <g id="编组-36">
            <circle id="椭圆形备份-8" fill="#FFEDAD" cx="200" cy="200" r="200"></circle>
            <g id="i" transform="translate(188, 122)" fill="#000000" fill-rule="nonzero">
                <path d="M22.3646409,145.127072 C22.2025783,148.854512 21.1086556,151.650092 19.0828729,153.513812 C17.0570902,155.377532 14.8287293,156.309392 12.3977901,156.309392 C10.1289134,156.309392 8.02209945,155.458564 6.07734807,153.756906 C4.13259669,152.055249 2.91712707,149.421731 2.43093923,145.856354 C2.26887661,130.622468 2.14732965,115.064457 2.06629834,99.1823204 C1.98526703,83.3001842 1.86372007,67.7421731 1.70165746,52.5082873 C2.51197053,49.267035 3.80847145,46.8360958 5.59116022,45.2154696 C7.37384899,43.5948435 9.39963168,42.7845304 11.6685083,42.7845304 C13.7753223,42.7845304 15.7605893,43.5138122 17.6243094,44.9723757 C19.4880295,46.4309392 20.825046,48.6998158 21.6353591,51.7790055 C21.7974217,67.0128913 21.9189687,82.5709024 22,98.4530387 C22.0810313,114.335175 22.2025783,129.893186 22.3646409,145.127072 Z M0,12.8839779 C0,9.31860037 1.13443831,6.27992634 3.40331492,3.7679558 C5.67219153,1.25598527 8.42725599,-1.13686838e-13 11.6685083,-1.13686838e-13 C14.9097606,-1.13686838e-13 17.7053407,1.25598527 20.0552486,3.7679558 C22.4051565,6.27992634 23.5801105,9.31860037 23.5801105,12.8839779 C23.5801105,16.2872928 22.4051565,19.2449355 20.0552486,21.7569061 C17.7053407,24.2688766 14.9097606,25.5248619 11.6685083,25.5248619 C8.42725599,25.5248619 5.67219153,24.2688766 3.40331492,21.7569061 C1.13443831,19.2449355 0,16.2872928 0,12.8839779 Z" id="形状"></path>
            </g>
        </g>
    </g>
</svg>