<?xml version="1.0" encoding="UTF-8"?>
<svg width="400px" height="400px" viewBox="0 0 400 400" version="1.1" xmlns="http://www.w3.org/2000/svg" xmlns:xlink="http://www.w3.org/1999/xlink">
    <title>编组 34</title>
    <g id="页面-1" stroke="none" stroke-width="1" fill="none" fill-rule="evenodd">
        <g id="编组-34">
            <circle id="椭圆形备份-10" fill="#FFEDAD" cx="200" cy="200" r="200"></circle>
            <path d="M173.933702,268.442861 C173.771639,272.008239 172.718232,274.722788 170.773481,276.586508 C168.828729,278.450228 166.6814,279.422603 164.331492,279.503635 C161.981584,279.584666 159.793738,278.774353 157.767956,277.072696 C155.742173,275.371038 154.486188,272.737521 154,269.172143 L154,130.608607 C154.64825,127.529417 155.904236,125.17951 157.767956,123.558883 C159.631676,121.938257 161.576427,121.087429 163.60221,121.006397 C165.627993,120.925366 167.61326,121.614132 169.558011,123.072696 C171.502762,124.531259 172.961326,126.800136 173.933702,129.879325 L173.933702,201.105845 C178.14733,198.674905 181.915285,196.162935 185.237569,193.569933 C188.559853,190.976931 191.841621,188.140836 195.082873,185.061646 C198.324125,181.982456 201.605893,178.619657 204.928177,174.973248 C208.25046,171.326839 211.856354,167.315789 215.745856,162.940099 C218.500921,160.671222 221.21547,159.617815 223.889503,159.779878 C226.563536,159.94194 228.710866,160.833285 230.331492,162.453911 C231.952118,164.074537 232.843462,166.221867 233.005525,168.8959 C233.167587,171.569933 232.11418,174.284482 229.845304,177.039546 C223.686924,184.170301 218.014733,190.369196 212.828729,195.636231 C207.642726,200.903266 202.132597,205.643598 196.298343,209.857226 C204.563536,219.094795 212.383057,227.805661 219.756906,235.989823 C227.130755,244.173985 234.950276,252.88485 243.21547,262.122419 C245.322284,265.039546 246.173112,267.835126 245.767956,270.50916 C245.362799,273.183193 244.309392,275.290007 242.607735,276.829602 C240.906077,278.369196 238.718232,279.098478 236.044199,279.017447 C233.370166,278.936416 230.736648,277.599399 228.143646,275.006397 C219.554328,265.444703 211.451197,256.369196 203.834254,247.779878 C196.217311,239.190559 188.11418,230.196084 179.524862,220.796452 C178.552486,221.28264 177.620626,221.768828 176.729282,222.255016 C175.837937,222.741204 174.906077,223.227392 173.933702,223.71358 L173.933702,268.442861 Z" id="路径" fill="#000000" fill-rule="nonzero"></path>
        </g>
    </g>
</svg>