<?xml version="1.0" encoding="UTF-8"?>
<svg width="400px" height="400px" viewBox="0 0 400 400" version="1.1" xmlns="http://www.w3.org/2000/svg" xmlns:xlink="http://www.w3.org/1999/xlink">
    <title>编组 33</title>
    <g id="页面-1" stroke="none" stroke-width="1" fill="none" fill-rule="evenodd">
        <g id="编组-33">
            <circle id="椭圆形备份-11" fill="#FFEDAD" cx="200" cy="200" r="200"></circle>
            <g id="l" transform="translate(186, 120)" fill="#000000" fill-rule="nonzero">
                <path d="M23.3370166,141.851701 C26.2541436,143.958515 27.9558011,146.348939 28.441989,149.022972 C28.9281768,151.697005 28.5635359,154.006397 27.3480663,155.951149 C26.1325967,157.8959 24.2688766,159.273432 21.7569061,160.083745 C19.2449355,160.894058 16.3683241,160.488902 13.1270718,158.868276 C11.6685083,157.8959 10.2099448,156.923524 8.75138122,155.951149 C7.29281768,154.978773 5.75322284,154.006397 4.13259669,153.034022 C2.67403315,151.737521 1.70165746,150.522051 1.21546961,149.387613 C0.729281768,148.253174 0.32412523,146.632548 0,144.525734 L0,9.60860715 C0.64825046,6.52941747 1.90423573,4.17950955 3.7679558,2.5588834 C5.63167587,0.938257245 7.57642726,0.087428516 9.60220994,0.00639720849 C11.6279926,-0.0746340991 13.6132597,0.614132015 15.558011,2.07269555 C17.5027624,3.53125909 18.961326,5.8001357 19.9337017,8.87932539 L19.9337017,139.663856 C20.4198895,139.987981 20.946593,140.352622 21.5138122,140.757778 C22.0810313,141.162935 22.6887661,141.527576 23.3370166,141.851701 Z" id="路径"></path>
            </g>
        </g>
    </g>
</svg>