<?xml version="1.0" encoding="UTF-8"?>
<svg width="400px" height="400px" viewBox="0 0 400 400" version="1.1" xmlns="http://www.w3.org/2000/svg" xmlns:xlink="http://www.w3.org/1999/xlink">
    <title>编组 39</title>
    <g id="页面-1" stroke="none" stroke-width="1" fill="none" fill-rule="evenodd">
        <g id="编组-39">
            <circle id="椭圆形备份-12" fill="#FFEDAD" cx="200" cy="200" r="200"></circle>
            <path d="M191.259669,184.812155 C191.259669,184.325967 191.3407,184.001842 191.502762,183.839779 C191.3407,183.353591 191.259669,182.705341 191.259669,181.895028 L191.259669,179.220994 C189.314917,174.197053 186.235727,170.550645 182.022099,168.281768 C177.808471,166.012891 173.189687,164.797422 168.165746,164.635359 C164.600368,165.769797 161.197053,167.471455 157.955801,169.740331 L152.850829,176.303867 C152.364641,176.952118 151.878453,177.478821 151.392265,177.883978 C150.906077,178.289134 150.41989,178.653775 149.933702,178.977901 L149.933702,245.828729 C149.771639,249.556169 148.677716,252.35175 146.651934,254.21547 C144.626151,256.07919 142.39779,257.01105 139.966851,257.01105 C137.697974,257.01105 135.59116,256.160221 133.646409,254.458564 C131.701657,252.756906 130.486188,250.123389 130,246.558011 L130,152.480663 C130.810313,149.239411 132.106814,146.848987 133.889503,145.309392 C135.672192,143.769797 137.697974,143 139.966851,143 C141.911602,143 143.815838,143.688766 145.679558,145.066298 C147.543278,146.443831 148.880295,148.59116 149.690608,151.508287 C152.28361,149.725599 155.403315,148.064457 159.049724,146.524862 C162.696133,144.985267 166.54512,144.21547 170.596685,144.21547 C176.430939,144.21547 182.38674,145.714549 188.464088,148.712707 C194.541436,151.710866 199.443831,155.478821 203.171271,160.016575 C204.953959,158.233886 206.858195,156.410681 208.883978,154.546961 C210.909761,152.683241 213.05709,150.981584 215.325967,149.441989 C217.594843,147.902394 219.944751,146.605893 222.375691,145.552486 C224.80663,144.499079 227.237569,143.972376 229.668508,143.972376 C234.692449,143.972376 239.635359,144.823204 244.497238,146.524862 C249.359116,148.226519 253.694291,150.576427 257.502762,153.574586 C261.311234,156.572744 264.390424,160.05709 266.740331,164.027624 C269.090239,167.998158 270.265193,172.171271 270.265193,176.546961 C270.265193,176.871087 270.224678,177.11418 270.143646,177.276243 C270.062615,177.438306 270.022099,177.6814 270.022099,178.005525 C270.184162,178.167587 270.265193,178.32965 270.265193,178.491713 C270.265193,178.653775 270.346225,178.815838 270.508287,178.977901 L270.508287,244.856354 C270.346225,248.583794 269.252302,251.379374 267.226519,253.243094 C265.200737,255.106814 262.972376,256.038674 260.541436,256.038674 C258.27256,256.038674 256.165746,255.187845 254.220994,253.486188 C252.276243,251.78453 251.060773,249.151013 250.574586,245.585635 L250.574586,178.977901 C248.791897,173.305709 246.036832,169.456722 242.309392,167.430939 C238.581952,165.405157 234.854512,164.392265 231.127072,164.392265 C226.913444,164.392265 223.104972,165.445672 219.701657,167.552486 C216.298343,169.6593 213.462247,173.548803 211.19337,179.220994 L211.19337,244.61326 C211.031308,248.3407 209.937385,251.13628 207.911602,253 C205.88582,254.86372 203.657459,255.79558 201.226519,255.79558 C198.957643,255.79558 196.850829,254.944751 194.906077,253.243094 C192.961326,251.541436 191.745856,248.907919 191.259669,245.342541 L191.259669,184.812155 Z" id="路径" fill="#000000" fill-rule="nonzero"></path>
        </g>
    </g>
</svg>