<?xml version="1.0" encoding="UTF-8"?>
<svg width="400px" height="400px" viewBox="0 0 400 400" version="1.1" xmlns="http://www.w3.org/2000/svg" xmlns:xlink="http://www.w3.org/1999/xlink">
    <title>编组 40</title>
    <g id="页面-1" stroke="none" stroke-width="1" fill="none" fill-rule="evenodd">
        <g id="编组-40">
            <circle id="椭圆形备份-13" fill="#FFEDAD" cx="200" cy="200" r="200"></circle>
            <g id="n" transform="translate(157, 144)" fill="#000000" fill-rule="nonzero">
                <path d="M86.0552486,101.370166 C85.893186,105.097606 84.7992634,107.893186 82.7734807,109.756906 C80.747698,111.620626 78.519337,112.552486 76.0883978,112.552486 C73.8195212,112.552486 71.7127072,111.701657 69.7679558,110 C67.8232044,108.298343 66.6077348,105.664825 66.121547,102.099448 C66.121547,94.6445672 66.0810313,87.2302026 66,79.8563536 C65.9189687,72.4825046 65.878453,65.06814 65.878453,57.6132597 C65.878453,52.2651934 65.9189687,46.9171271 66,41.5690608 C66.0810313,36.2209945 65.7163904,30.8729282 64.9060773,25.5248619 C63.6095764,23.0939227 62.1915285,21.5948435 60.6519337,21.0276243 C59.1123389,20.4604052 57.2891344,20.1767956 55.1823204,20.1767956 C49.6721915,20.1767956 44.2430939,21.5138122 38.8950276,24.1878453 C33.5469613,26.8618785 29.3333333,30.5488029 26.2541436,35.2486188 C24.4714549,38.0036832 23.053407,40.3130755 22,42.1767956 C20.946593,44.0405157 20.2578269,46.7550645 19.9337017,50.320442 C19.9337017,58.5856354 19.9337017,66.8508287 19.9337017,75.1160221 C19.9337017,83.3812155 20.014733,91.6464088 20.1767956,99.9116022 C20.014733,103.639042 18.9208103,106.434622 16.8950276,108.298343 C14.8692449,110.162063 12.640884,111.093923 10.2099448,111.093923 C7.94106814,111.093923 5.83425414,110.243094 3.88950276,108.541436 C1.94475138,106.839779 0.729281768,104.206262 0.243093923,100.640884 C0.243093923,92.8618785 0.243093923,85.3259669 0.243093923,78.0331492 C0.243093923,70.7403315 0.202578269,63.5285451 0.121546961,56.3977901 C0.0405156538,49.267035 -9.09494702e-13,42.014733 -9.09494702e-13,34.640884 C-9.09494702e-13,27.267035 -9.09494702e-13,19.6906077 -9.09494702e-13,11.9116022 C0.810313076,8.67034991 2.106814,6.23941068 3.88950276,4.61878453 C5.67219153,2.99815838 7.69797422,2.1878453 9.96685083,2.1878453 C12.0736648,2.1878453 14.0589319,2.91712707 15.9226519,4.37569061 C17.786372,5.83425414 19.1233886,8.10313076 19.9337017,11.1823204 L19.9337017,13.1270718 C24.6335175,9.07550645 29.9410681,5.8747698 35.8563536,3.52486188 C41.771639,1.17495396 47.7274401,0 53.7237569,0 C59.7200737,0 65.3517495,1.37753223 70.6187845,4.13259669 C75.8858195,6.88766114 80.1399632,11.3443831 83.3812155,17.5027624 C84.5156538,19.6095764 85.2854512,22.2430939 85.6906077,25.4033149 C86.0957643,28.5635359 86.3388582,31.8858195 86.4198895,35.3701657 C86.5009208,38.854512 86.4604052,42.4198895 86.2983425,46.0662983 C86.1362799,49.7127072 86.0552486,53.1565378 86.0552486,56.3977901 L86.0552486,85.0828729 L86.0552486,101.370166 Z" id="路径"></path>
            </g>
        </g>
    </g>
</svg>