<?xml version="1.0" encoding="UTF-8"?>
<svg width="400px" height="400px" viewBox="0 0 400 400" version="1.1" xmlns="http://www.w3.org/2000/svg" xmlns:xlink="http://www.w3.org/1999/xlink">
    <title>编组 43</title>
    <g id="页面-1" stroke="none" stroke-width="1" fill="none" fill-rule="evenodd">
        <g id="编组-43">
            <circle id="椭圆形备份-16" fill="#FFEDAD" cx="200" cy="200" r="200"></circle>
            <path d="M245.491713,272.309392 C245.32965,275.87477 244.276243,278.589319 242.331492,280.453039 C240.38674,282.316759 238.239411,283.289134 235.889503,283.370166 C233.539595,283.451197 231.35175,282.640884 229.325967,280.939227 C227.300184,279.237569 226.044199,276.604052 225.558011,273.038674 L225.558011,217.856354 C219.723757,220.12523 213.889503,221.502762 208.055249,221.98895 C204.651934,222.313076 200.802947,222.353591 196.508287,222.110497 C192.213628,221.867403 188.445672,221.259669 185.20442,220.287293 C176.939227,218.018416 170.497238,214.047882 165.878453,208.375691 C161.259669,202.703499 158.139963,196.26151 156.519337,189.049724 C154.898711,181.837937 154.574586,174.302026 155.546961,166.441989 C156.519337,158.581952 158.383057,151.248619 161.138122,144.441989 C163.244936,139.255985 166.28361,134.799263 170.254144,131.071823 C174.224678,127.344383 178.721915,124.305709 183.745856,121.955801 C188.769797,119.605893 194.077348,117.944751 199.668508,116.972376 C205.259669,116 210.64825,115.756906 215.834254,116.243094 C221.18232,116.729282 225.963168,118.025783 230.176796,120.132597 C232.769797,118.349908 235.646409,118.025783 238.80663,119.160221 C241.966851,120.294659 244.195212,122.968692 245.491713,127.18232 L245.491713,272.309392 Z M184.718232,198.651934 C191.524862,201.406998 198.493554,202.581952 205.624309,202.176796 C212.755064,201.771639 219.399632,199.705341 225.558011,195.977901 L225.558011,140.79558 C224.747698,140.309392 224.26151,139.742173 224.099448,139.093923 C220.209945,137.473297 216.036832,136.500921 211.58011,136.176796 C207.123389,135.85267 202.828729,136.257827 198.696133,137.392265 C194.563536,138.526703 190.79558,140.390424 187.392265,142.983425 C183.98895,145.576427 181.233886,148.898711 179.127072,152.950276 C176.372007,158.298343 174.994475,164.051565 174.994475,170.209945 C174.994475,176.368324 175.480663,182.364641 176.453039,188.198895 C177.101289,189.171271 177.709024,190.184162 178.276243,191.237569 C178.843462,192.290976 179.451197,193.384899 180.099448,194.519337 C180.909761,195.32965 181.679558,196.018416 182.40884,196.585635 C183.138122,197.152855 183.907919,197.841621 184.718232,198.651934 Z" id="形状" fill="#000000" fill-rule="nonzero"></path>
        </g>
    </g>
</svg>