<?xml version="1.0" encoding="UTF-8"?>
<svg width="400px" height="400px" viewBox="0 0 400 400" version="1.1" xmlns="http://www.w3.org/2000/svg" xmlns:xlink="http://www.w3.org/1999/xlink">
    <title>编组 50</title>
    <g id="页面-1" stroke="none" stroke-width="1" fill="none" fill-rule="evenodd">
        <g id="编组-50">
            <circle id="椭圆形备份-18" fill="#FFEDAD" cx="200" cy="200" r="200"></circle>
            <g id="s" transform="translate(160, 141)" fill="#000000" fill-rule="nonzero">
                <path d="M1.64088398,94.4554942 C0.182320442,91.5383671 -0.303867403,88.9048496 0.182320442,86.5549417 C0.668508287,84.2050338 1.68139963,82.3413137 3.22099448,80.9637815 C4.76058932,79.5862492 6.74585635,78.8974831 9.17679558,78.8974831 C11.6077348,78.8974831 14.1197053,79.7888275 16.7127072,81.5715163 C20.4401473,86.2713321 24.8563536,89.9177409 29.961326,92.5107428 C35.0662983,95.1037446 40.5359116,96.6433395 46.3701657,97.1295273 L51.4751381,95.6709638 C52.771639,94.6985881 53.6629834,94.0503376 54.1491713,93.7262124 C54.6353591,93.4020872 55,93.1184776 55.2430939,92.8753837 C55.4861878,92.6322897 55.8103131,92.2676489 56.2154696,91.781461 C56.6206262,91.2952732 57.3093923,90.4039288 58.281768,89.1074279 C58.6058932,88.4591774 58.8489871,87.8109269 59.0110497,87.1626765 C59.1731123,86.514426 59.4162063,85.7851443 59.7403315,84.9748312 C59.7403315,84.1645181 59.7808471,83.4352363 59.8618785,82.7869859 C59.9429098,82.1387354 59.9834254,81.4094537 59.9834254,80.5991406 L58.5248619,76.22345 C58.038674,75.5751995 57.5119705,74.926949 56.9447514,74.2786986 C56.3775322,73.6304481 55.8508287,72.9821977 55.3646409,72.3339472 C51.3130755,69.7409454 47.2615101,67.8772253 43.2099448,66.742787 C39.1583794,65.6083487 35.228361,64.4333947 31.4198895,63.2179251 C27.611418,62.0024555 23.8839779,60.422345 20.2375691,58.4775936 C16.5911602,56.5328422 13.1473297,53.3726212 9.90607735,48.9969306 C6.82688766,45.1074279 5.16574586,40.6101903 4.92265193,35.5052179 C4.67955801,30.4002455 5.48987109,25.4978514 7.35359116,20.7980356 C9.21731123,16.0982198 11.9723757,11.9251074 15.6187845,8.27869859 C19.2651934,4.63228975 23.4383057,2.32289748 28.1381215,1.35052179 C34.9447514,-0.270104359 41.8729282,-0.432166974 48.9226519,0.864333947 C55.9723757,2.16083487 62.5764273,4.42971148 68.7348066,7.67096378 C71.6519337,9.77777778 73.3535912,12.1682014 73.839779,14.8422345 C74.3259669,17.5162676 73.961326,19.8256599 72.7458564,21.7704113 C71.5303867,23.7151627 69.6666667,25.0926949 67.1546961,25.903008 C64.6427256,26.7133211 61.7661142,26.3081645 58.5248619,24.6875384 C54.6353591,22.5807244 50.5432781,21.2031921 46.2486188,20.5549417 C41.9539595,19.9066912 37.6187845,19.9066912 33.2430939,20.5549417 C32.7569061,20.8790669 32.2302026,21.1221608 31.6629834,21.2842234 C31.0957643,21.4462861 30.5690608,21.68938 30.0828729,22.0135052 C28.3001842,23.9582566 27.0036832,25.8624923 26.1933702,27.7262124 C25.3830571,29.5899325 25.0589319,31.8993247 25.2209945,34.6543892 C25.3830571,35.3026397 25.7882136,36.2750153 26.4364641,37.5715163 C26.9226519,38.2197667 27.4088398,38.7869859 27.8950276,39.2731737 C28.3812155,39.7593616 28.8674033,40.3265807 29.3535912,40.9748312 C33.2430939,43.0816452 37.4972376,44.742787 42.1160221,45.9582566 C46.7348066,47.1737262 51.2320442,48.5512584 55.6077348,50.0908533 C59.9834254,51.6304481 64.0349908,53.6562308 67.7624309,56.1682014 C71.4898711,58.6801719 74.4069982,62.3670964 76.5138122,67.2289748 C80.4033149,76.4665439 81.0110497,84.9748312 78.3370166,92.7538367 C75.6629834,100.532842 70.2744015,107.096378 62.1712707,112.444444 C60.0644567,113.740945 57.7145488,114.834868 55.121547,115.726212 C52.5285451,116.617557 50.0976059,117.063229 47.8287293,117.063229 C39.0773481,117.063229 30.4880295,115.077962 22.0607735,111.107428 C13.6335175,107.136894 6.82688766,101.586249 1.64088398,94.4554942 Z" id="路径"></path>
            </g>
        </g>
    </g>
</svg>