<?xml version="1.0" encoding="UTF-8"?>
<svg width="400px" height="400px" viewBox="0 0 400 400" version="1.1" xmlns="http://www.w3.org/2000/svg" xmlns:xlink="http://www.w3.org/1999/xlink">
    <title>编组 48</title>
    <g id="页面-1" stroke="none" stroke-width="1" fill="none" fill-rule="evenodd">
        <g id="编组-48">
            <circle id="椭圆形备份-20" fill="#FFEDAD" cx="200" cy="200" r="200"></circle>
            <path d="M247.237569,235.243094 C249.020258,237.511971 249.911602,240.023941 249.911602,242.779006 C249.911602,245.53407 249.020258,247.762431 247.237569,249.464088 C245.45488,251.165746 243.267035,252.016575 240.674033,252.016575 C237.108656,252.016575 234.029466,250.355433 231.436464,247.033149 C228.843462,243.710866 226.655617,239.94291 224.872928,235.729282 C220.6593,240.267035 215.71639,244.116022 210.044199,247.276243 C204.372007,250.436464 198.537753,252.016575 192.541436,252.016575 C188.165746,252.016575 183.952118,251.246777 179.900552,249.707182 C175.848987,248.167587 172.081031,246.060773 168.596685,243.38674 C165.112339,240.712707 162.033149,237.593002 159.359116,234.027624 C156.685083,230.462247 154.699816,226.734807 153.403315,222.845304 C152.106814,218.631676 151.21547,213.972376 150.729282,208.867403 C150.243094,203.762431 150,198.45488 150,192.944751 C150,186.300184 150.162063,179.81768 150.486188,173.497238 C150.810313,167.176796 150.972376,161.585635 150.972376,156.723757 C151.782689,153.482505 153.07919,151.051565 154.861878,149.430939 C156.644567,147.810313 158.67035,147 160.939227,147 C163.046041,147 165.031308,147.729282 166.895028,149.187845 C168.758748,150.646409 170.095764,152.915285 170.906077,155.994475 C170.906077,163.611418 170.78453,170.944751 170.541436,177.994475 C170.298343,185.044199 170.176796,192.539595 170.176796,200.480663 C170.176796,209.556169 172.121547,217.01105 176.01105,222.845304 C179.900552,228.679558 185.167587,231.596685 191.812155,231.596685 C194.243094,231.596685 196.674033,231.110497 199.104972,230.138122 C201.535912,229.165746 203.804788,227.869245 205.911602,226.248619 C208.018416,224.627993 209.963168,222.764273 211.745856,220.657459 C213.528545,218.550645 215.149171,216.443831 216.607735,214.337017 C216.93186,214.012891 217.337017,213.729282 217.823204,213.486188 C218.309392,213.243094 218.714549,212.959484 219.038674,212.635359 C218.066298,204.532228 217.58011,196.348066 217.58011,188.082873 C217.58011,183.383057 217.620626,178.642726 217.701657,173.861878 C217.782689,169.081031 218.187845,164.705341 218.917127,160.734807 C219.646409,156.764273 220.861878,153.52302 222.563536,151.01105 C224.265193,148.499079 226.655617,147.243094 229.734807,147.243094 C232.165746,147.243094 234.353591,148.174954 236.298343,150.038674 C238.243094,151.902394 239.21547,154.616943 239.21547,158.18232 C239.21547,161.909761 238.93186,166.447514 238.364641,171.79558 C237.797422,177.143646 237.513812,182.734807 237.513812,188.569061 C237.513812,193.106814 237.675875,197.644567 238,202.18232 C238.324125,206.720074 238.850829,211.055249 239.58011,215.187845 C240.309392,219.320442 241.281768,223.088398 242.497238,226.491713 C243.712707,229.895028 245.292818,232.812155 247.237569,235.243094 Z" id="路径" fill="#000000" fill-rule="nonzero"></path>
        </g>
    </g>
</svg>