<?xml version="1.0" encoding="UTF-8"?>
<svg width="400px" height="400px" viewBox="0 0 400 400" version="1.1" xmlns="http://www.w3.org/2000/svg" xmlns:xlink="http://www.w3.org/1999/xlink">
    <title>编组 47</title>
    <g id="页面-1" stroke="none" stroke-width="1" fill="none" fill-rule="evenodd">
        <g id="编组-47">
            <circle id="椭圆形备份-21" fill="#FFEDAD" cx="200" cy="200" r="200"></circle>
            <path d="M226.604052,150.286679 C228.224678,147.531614 230.128913,145.70841 232.316759,144.817066 C234.504604,143.925721 236.611418,143.763659 238.637201,144.330878 C240.662983,144.898097 242.364641,146.194598 243.742173,148.220381 C245.119705,150.246163 245.72744,152.798649 245.565378,155.877839 C243.296501,164.62922 240.662983,173.178023 237.664825,181.524248 C234.666667,189.870473 231.709024,198.257213 228.791897,206.684469 C226.036832,214.463475 223.322284,222.120933 220.64825,229.656845 C217.974217,237.192756 215.016575,244.688152 211.775322,252.143033 C208.858195,255.70841 205.616943,257.248005 202.051565,256.761817 C198.486188,256.275629 195.731123,254.006753 193.786372,249.955187 C187.952118,234.559239 181.996317,219.325353 175.918969,204.25353 C169.841621,189.181707 163.075506,174.352977 155.620626,159.767342 C154,156.52609 153.594843,153.649478 154.405157,151.137508 C155.21547,148.625537 156.593002,146.761817 158.537753,145.546347 C160.482505,144.330878 162.791897,143.966237 165.46593,144.452425 C168.139963,144.938613 170.530387,146.64027 172.637201,149.557397 C178.309392,160.90178 183.657459,172.408226 188.6814,184.076734 C193.705341,195.745242 198.567219,207.575813 203.267035,219.568447 C204.401473,216.489257 205.495396,213.410068 206.548803,210.330878 C207.60221,207.251688 208.696133,204.172498 209.830571,201.093309 C212.747698,192.666053 215.664825,184.279312 218.581952,175.933088 C221.499079,167.586863 224.173112,159.03806 226.604052,150.286679 Z" id="路径" fill="#000000" fill-rule="nonzero"></path>
        </g>
    </g>
</svg>