<?xml version="1.0" encoding="UTF-8"?>
<svg width="400px" height="400px" viewBox="0 0 400 400" version="1.1" xmlns="http://www.w3.org/2000/svg" xmlns:xlink="http://www.w3.org/1999/xlink">
    <title>编组 46</title>
    <g id="页面-1" stroke="none" stroke-width="1" fill="none" fill-rule="evenodd">
        <g id="编组-46">
            <circle id="椭圆形备份-22" fill="#FFEDAD" cx="200" cy="200" r="200"></circle>
            <path d="M254.792605,151.753783 C256.413231,148.998719 258.317467,147.175514 260.505312,146.28417 C262.693158,145.392826 264.799972,145.230763 266.825754,145.797982 C268.851537,146.365201 270.553195,147.661702 271.930727,149.687485 C273.308259,151.713268 273.915994,154.265754 273.753931,157.344944 C269.054115,173.065017 264.232753,188.825607 259.289843,204.626712 C254.346933,220.427816 248.310101,235.783249 241.179346,250.69301 C238.748406,253.610137 236.074373,255.149732 233.157246,255.311794 C230.240119,255.473857 227.404023,254.177356 224.648959,251.422292 C220.111206,242.346785 215.897578,233.190247 212.008075,223.952678 C208.118572,214.715109 204.310101,205.396509 200.58266,195.996877 C199.93441,194.700376 199.326675,193.36336 198.759456,191.985828 C198.192237,190.608295 197.665533,189.190247 197.179346,187.731684 C195.072532,192.917688 193.046749,197.982144 191.101997,202.925054 C189.157246,207.867964 187.212495,212.891905 185.267743,217.996877 C183.322992,223.10185 181.297209,228.328369 179.190395,233.676435 C177.083581,239.024502 174.814705,244.777724 172.383765,250.936104 C169.466638,254.501481 166.225386,256.041076 162.660008,255.554888 C159.094631,255.0687 156.339567,252.799824 154.394815,248.748258 C150.667375,239.834815 147.385607,230.880855 144.549511,221.88638 C141.713415,212.891905 138.917835,203.775883 136.162771,194.538314 C134.21802,188.379934 132.475846,182.262071 130.936252,176.184723 C129.396657,170.107374 128.140671,163.989511 127.168296,157.831131 C126.682108,154.265754 127.249327,151.389142 128.869953,149.201297 C130.490579,147.013452 132.435331,145.676435 134.704207,145.190247 C136.973084,144.70406 139.282476,145.149732 141.632384,146.527264 C143.982292,147.904796 145.643434,150.29522 146.61581,153.698535 C148.398498,164.55673 150.788922,175.414925 153.78708,186.27312 C156.785239,197.131316 160.148038,207.908479 163.875478,218.604612 C165.982292,213.256546 167.967559,208.232605 169.831279,203.532789 C171.694999,198.832973 173.558719,194.133157 175.422439,189.433341 C177.28616,184.733526 179.311942,179.709584 181.499788,174.361518 C183.687633,169.013452 186.078056,163.017135 188.671058,156.372568 C189.967559,154.103691 191.54767,152.483065 193.41139,151.510689 C195.27511,150.538314 197.13883,150.173673 199.00255,150.416767 C200.86627,150.659861 202.608443,151.470174 204.229069,152.847706 C205.849695,154.225238 207.065165,156.210505 207.875478,158.803507 C209.334042,163.989511 211.076215,169.053967 213.101997,173.996877 C215.12778,178.939787 217.113047,183.842181 219.057799,188.70406 C221.164613,194.214188 223.311942,199.683802 225.499788,205.112899 C227.687633,210.541997 229.915994,215.930579 232.18487,221.278645 C236.722624,209.934262 240.733673,198.427816 244.21802,186.759308 C247.702366,175.0908 251.227228,163.422292 254.792605,151.753783 Z" id="路径" fill="#000000" fill-rule="nonzero"></path>
        </g>
    </g>
</svg>