<?xml version="1.0" encoding="UTF-8"?>
<svg width="400px" height="400px" viewBox="0 0 400 400" version="1.1" xmlns="http://www.w3.org/2000/svg" xmlns:xlink="http://www.w3.org/1999/xlink">
    <title>编组 45</title>
    <g id="页面-1" stroke="none" stroke-width="1" fill="none" fill-rule="evenodd">
        <g id="编组-45">
            <circle id="椭圆形备份-23" fill="#FFEDAD" cx="200" cy="200" r="200"></circle>
            <path d="M233.265746,145.176427 C236.02081,142.907551 238.735359,141.854144 241.409392,142.016206 C244.083425,142.178269 246.230755,143.069613 247.851381,144.690239 C249.472007,146.310866 250.363352,148.458195 250.525414,151.132228 C250.687477,153.806262 249.63407,156.52081 247.365193,159.275875 C241.368877,165.110129 235.494107,171.025414 229.740884,177.021731 C223.987661,183.018048 218.355985,189.095396 212.845856,195.253775 C219.652486,203.032781 226.094475,211.014365 232.171823,219.198527 C238.249171,227.382689 243.961878,235.85046 249.309945,244.601842 C250.28232,247.681031 250.322836,250.355064 249.431492,252.623941 C248.540147,254.892818 247.203131,256.553959 245.420442,257.607366 C243.637753,258.660773 241.571455,259.025414 239.221547,258.701289 C236.871639,258.377164 234.562247,257.080663 232.29337,254.811786 C227.593554,247.032781 222.488582,239.456354 216.978453,232.082505 C211.468324,224.708656 205.715101,217.537385 199.718785,210.568692 C189.022652,223.695764 178.812707,237.71418 169.08895,252.623941 C166.820074,255.379006 164.348619,256.9186 161.674586,257.242726 C159.000552,257.566851 156.69116,257.040147 154.746409,255.662615 C152.801657,254.285083 151.545672,252.2593 150.978453,249.585267 C150.411234,246.911234 151.1,244.034622 153.044751,240.955433 C158.068692,233.014365 163.376243,225.235359 168.967403,217.618416 C174.558564,210.001473 180.352302,202.546593 186.348619,195.253775 C181.162615,189.581584 175.855064,183.949908 170.425967,178.358748 C164.996869,172.767587 159.527256,167.135912 154.017127,161.46372 C151.424125,158.870718 150.087109,156.237201 150.006077,153.563168 C149.925046,150.889134 150.654328,148.701289 152.193923,146.999632 C153.733517,145.297974 155.840331,144.244567 158.514365,143.839411 C161.188398,143.434254 163.983978,144.285083 166.901105,146.391897 C172.411234,152.064088 177.921363,157.695764 183.431492,163.286924 C188.941621,168.878085 194.289687,174.509761 199.475691,180.181952 C204.823757,174.185635 210.333886,168.27035 216.006077,162.436096 C221.678269,156.601842 227.431492,150.848619 233.265746,145.176427 Z" id="路径" fill="#000000" fill-rule="nonzero"></path>
        </g>
    </g>
</svg>