<?xml version="1.0" encoding="UTF-8"?>
<svg width="400px" height="400px" viewBox="0 0 400 400" version="1.1" xmlns="http://www.w3.org/2000/svg" xmlns:xlink="http://www.w3.org/1999/xlink">
    <title>编组 51</title>
    <g id="页面-1" stroke="none" stroke-width="1" fill="none" fill-rule="evenodd">
        <g id="编组-51">
            <circle id="椭圆形备份-24" fill="#FFEDAD" cx="200" cy="200" r="200"></circle>
            <g id="y" transform="translate(148, 119)" fill="#000000" fill-rule="nonzero">
                <path d="M85.3259669,6.32044199 C86.6224678,4.05156538 88.0810313,2.43093923 89.7016575,1.45856354 C91.3222836,0.486187845 93.0239411,0 94.8066298,0 C97.5616943,0 99.8305709,1.053407 101.61326,3.16022099 C103.395948,5.26703499 104.287293,8.18416206 104.287293,11.9116022 C100.883978,25.038674 96.5893186,37.7605893 91.4033149,50.0773481 C86.2173112,62.3941068 80.5451197,74.4677716 74.3867403,86.2983425 C68.228361,98.1289134 61.7458564,109.837937 54.9392265,121.425414 C48.1325967,133.012891 41.4880295,144.721915 35.0055249,156.552486 C33.7090239,158.335175 32.2504604,159.59116 30.6298343,160.320442 C29.0092081,161.049724 27.4696133,161.414365 26.0110497,161.414365 C23.5801105,161.414365 21.4732965,160.52302 19.6906077,158.740331 C17.907919,156.957643 17.0165746,154.445672 17.0165746,151.20442 C17.0165746,150.718232 17.0165746,150.191529 17.0165746,149.624309 C17.0165746,149.05709 17.0976059,148.449355 17.2596685,147.801105 C22.6077348,137.915285 28.1178637,128.191529 33.7900552,118.629834 C39.4622468,109.06814 44.9723757,99.4254144 50.320442,89.7016575 C43.8379374,84.5156538 38.0036832,79.2081031 32.8176796,73.7790055 C27.6316759,68.3499079 22.9723757,62.5966851 18.839779,56.519337 C14.7071823,50.441989 11.1012891,43.878453 8.02209945,36.8287293 C4.94290976,29.7790055 2.26887661,22.121547 0,13.8563536 C0,9.6427256 0.850828729,6.44198895 2.55248619,4.25414365 C4.25414365,2.06629834 6.56353591,0.972375691 9.48066298,0.972375691 C11.587477,0.972375691 13.572744,1.6611418 15.4364641,3.03867403 C17.3001842,4.41620626 18.6372007,6.64456722 19.4475138,9.72375691 C21.2302026,16.5303867 23.3775322,22.8103131 25.8895028,28.5635359 C28.4014733,34.3167587 31.3186004,39.664825 34.640884,44.6077348 C37.9631676,49.5506446 41.6906077,54.2504604 45.8232044,58.7071823 C49.9558011,63.1639042 54.53407,67.4990792 59.558011,71.7127072 C64.9060773,61.1786372 69.8084715,50.5635359 74.2651934,39.8674033 C78.7219153,29.1712707 82.4088398,17.9889503 85.3259669,6.32044199 Z" id="路径"></path>
            </g>
        </g>
    </g>
</svg>