<?xml version="1.0" encoding="UTF-8"?>
<svg width="400px" height="400px" viewBox="0 0 400 400" version="1.1" xmlns="http://www.w3.org/2000/svg" xmlns:xlink="http://www.w3.org/1999/xlink">
    <title>编组 2</title>
    <g id="页面-1" stroke="none" stroke-width="1" fill="none" fill-rule="evenodd">
        <g id="编组-2">
            <circle id="椭圆形备份" fill="#FFEDAD" cx="200" cy="200" r="200"></circle>
            <g id="B" transform="translate(151, 130)" fill="#000000" fill-rule="nonzero">
                <path d="M22.5414365,139.005525 C18.7108656,138.710866 15.9116022,137.569061 14.1436464,135.58011 C12.3756906,133.59116 11.4917127,131.491713 11.4917127,129.281768 C11.4917127,128.103131 11.8600368,126.703499 12.5966851,125.082873 L12.3756906,125.524862 L12.3756906,32.7071823 C11.9337017,32.854512 11.6022099,32.8913444 11.3812155,32.8176796 C11.160221,32.7440147 10.8287293,32.7071823 10.3867403,32.7071823 C7.29281768,32.7071823 4.78821363,31.8600368 2.87292818,30.1657459 C0.957642726,28.4714549 0,26.3720074 0,23.8674033 C0,20.626151 1.80478821,17.5322284 5.41436464,14.5856354 C9.02394107,11.6390424 13.4069982,9.09760589 18.5635359,6.96132597 C23.7200737,4.82504604 29.0607735,3.13075506 34.5856354,1.87845304 C40.1104972,0.626151013 44.7882136,0 48.6187845,0 C55.5432781,0 61.7679558,1.10497238 67.2928177,3.31491713 C72.8176796,5.52486188 77.5322284,8.39779006 81.4364641,11.9337017 C85.3406998,15.4696133 88.3241252,19.373849 90.3867403,23.6464088 C92.4493554,27.9189687 93.480663,32.0441989 93.480663,36.0220994 C93.480663,41.1786372 92.0073665,46.3720074 89.0607735,51.6022099 C86.1141805,56.8324125 82.2836096,61.3627993 77.5690608,65.1933702 C84.640884,69.0239411 89.907919,73.7384899 93.3701657,79.3370166 C96.8324125,84.9355433 98.5635359,90.7550645 98.5635359,96.7955801 C98.5635359,100.773481 97.7900552,104.751381 96.2430939,108.729282 C94.6961326,112.707182 92.5598527,116.390424 89.8342541,119.779006 C87.1086556,123.167587 83.9042357,126.187845 80.2209945,128.839779 C76.5377532,131.491713 72.6335175,133.554328 68.5082873,135.027624 C63.3517495,136.64825 57.8637201,137.753223 52.0441989,138.342541 C46.2246777,138.93186 40.441989,139.226519 34.6961326,139.226519 C32.6335175,139.226519 30.6445672,139.226519 28.7292818,139.226519 C26.8139963,139.226519 24.825046,139.152855 22.7624309,139.005525 L22.5414365,139.005525 Z M69.3922652,83.9779006 C66.1510129,81.9152855 62.6887661,80.3314917 59.0055249,79.2265193 C55.3222836,78.121547 51.4180479,77.3480663 47.2928177,76.9060773 C45.2302026,77.2007366 43.0939227,77.4585635 40.8839779,77.679558 C38.6740331,77.9005525 36.3904236,78.0110497 34.0331492,78.0110497 L34.0331492,119.779006 C37.2744015,119.779006 41.3259669,119.594843 46.1878453,119.226519 C51.0497238,118.858195 55.7274401,117.937385 60.2209945,116.464088 C64.7145488,114.990792 68.5819521,112.81768 71.8232044,109.944751 C75.0644567,107.071823 76.6850829,103.130755 76.6850829,98.121547 C76.6850829,95.174954 76.0957643,92.4861878 74.9171271,90.0552486 C73.7384899,87.6243094 71.8968692,85.5985267 69.3922652,83.9779006 Z M34.0331492,56.7955801 C36.0957643,56.7955801 38.0847145,56.8324125 40,56.9060773 C41.9152855,56.9797422 43.9042357,57.0902394 45.9668508,57.2375691 C47.8821363,57.0902394 50.3130755,56.5377532 53.2596685,55.5801105 C56.2062615,54.6224678 59.0423573,53.3333333 61.7679558,51.7127072 C64.4935543,50.092081 66.8139963,48.1031308 68.7292818,45.7458564 C70.6445672,43.388582 71.6022099,40.6629834 71.6022099,37.5690608 C71.6022099,34.4751381 70.8655617,31.8232044 69.3922652,29.6132597 C67.9189687,27.4033149 66.0036832,25.5985267 63.6464088,24.198895 C61.2891344,22.7992634 58.7108656,21.7311234 55.9116022,20.9944751 C53.1123389,20.2578269 50.3130755,19.8895028 47.5138122,19.8895028 C42.7992634,19.8895028 38.305709,20.626151 34.0331492,22.0994475 L34.0331492,56.7955801 Z" id="形状"></path>
            </g>
        </g>
    </g>
</svg>