<?xml version="1.0" encoding="UTF-8"?>
<svg width="400px" height="400px" viewBox="0 0 400 400" version="1.1" xmlns="http://www.w3.org/2000/svg" xmlns:xlink="http://www.w3.org/1999/xlink">
    <title>编组 3</title>
    <g id="页面-1" stroke="none" stroke-width="1" fill="none" fill-rule="evenodd">
        <g id="编组-3">
            <circle id="椭圆形备份-2" fill="#FFEDAD" cx="200" cy="200" r="200"></circle>
            <g id="C" transform="translate(148, 131)" fill="#000000" fill-rule="nonzero">
                <path d="M83.5359116,96.3535912 C86.0405157,94.2909761 88.9134438,93.2596685 92.1546961,93.2596685 C94.9539595,93.2596685 97.3480663,94.1436464 99.3370166,95.9116022 C101.325967,97.679558 102.320442,99.9631676 102.320442,102.762431 C102.320442,103.793738 101.952118,105.414365 101.21547,107.624309 C98.7108656,111.45488 95.9116022,115.211786 92.8176796,118.895028 C89.7237569,122.578269 86.2983425,125.819521 82.5414365,128.618785 C78.7845304,131.418048 74.6224678,133.664825 70.0552486,135.359116 C65.4880295,137.053407 60.4788214,137.900552 55.0276243,137.900552 C46.9244936,137.900552 39.4843462,136.279926 32.7071823,133.038674 C25.9300184,129.797422 20.1104972,125.3407 15.2486188,119.668508 C10.3867403,113.996317 6.62983425,107.366483 3.97790055,99.7790055 C1.32596685,92.1915285 0,84.0515654 0,75.359116 C0,69.3186004 0.810313076,63.6464088 2.43093923,58.3425414 C4.64088398,51.2707182 7.21915285,45.0828729 10.1657459,39.7790055 C13.1123389,34.4751381 16.6482505,29.7974217 20.7734807,25.7458564 C24.8987109,21.694291 29.6132597,18.0847145 34.9171271,14.9171271 C40.2209945,11.7495396 46.335175,8.76611418 53.2596685,5.96685083 L53.038674,5.96685083 C57.4585635,4.05156538 61.5469613,2.57826888 65.3038674,1.54696133 C69.0607735,0.515653775 72.854512,0 76.6850829,0 C82.2836096,0 87.2928177,1.54696133 91.7127072,4.64088398 C96.1325967,7.73480663 100.257827,13.038674 104.088398,20.5524862 C104.383057,21.7311234 104.530387,22.9097606 104.530387,24.0883978 C104.530387,26.8876611 103.535912,29.1712707 101.546961,30.9392265 C99.558011,32.7071823 97.1639042,33.5911602 94.3646409,33.5911602 C90.8287293,33.5911602 87.587477,32.1178637 84.640884,29.1712707 C82.5782689,25.6353591 80.9576427,23.1307551 79.7790055,21.6574586 C78.6003683,20.1841621 77.2744015,19.4475138 75.801105,19.4475138 C74.9171271,19.4475138 73.5911602,19.7421731 71.8232044,20.3314917 C70.0552486,20.9208103 68.1399632,21.5837937 66.0773481,22.320442 L62.5414365,23.6464088 C57.0902394,25.7090239 51.9337017,28.2872928 47.0718232,31.3812155 C42.2099448,34.4751381 37.9005525,38.1952118 34.1436464,42.5414365 C30.3867403,46.8876611 27.4033149,51.8968692 25.1933702,57.5690608 C22.9834254,63.2412523 21.878453,69.7605893 21.878453,77.1270718 C21.878453,82.2836096 22.6151013,87.3296501 24.0883978,92.2651934 C25.5616943,97.2007366 27.7348066,101.620626 30.6077348,105.524862 C33.480663,109.429098 36.9797422,112.559853 41.1049724,114.917127 C45.2302026,117.274401 49.9447514,118.453039 55.2486188,118.453039 C58.3425414,118.453039 61.252302,117.790055 63.9779006,116.464088 C66.7034991,115.138122 69.2081031,113.443831 71.4917127,111.381215 C73.7753223,109.3186 75.9116022,106.998158 77.9005525,104.41989 C79.8895028,101.841621 81.6206262,99.2265193 83.0939227,96.5745856 L83.5359116,96.3535912 Z" id="路径"></path>
            </g>
        </g>
    </g>
</svg>