<?xml version="1.0" encoding="UTF-8"?>
<svg width="400px" height="400px" viewBox="0 0 400 400" version="1.1" xmlns="http://www.w3.org/2000/svg" xmlns:xlink="http://www.w3.org/1999/xlink">
    <title>编组 4</title>
    <g id="页面-1" stroke="none" stroke-width="1" fill="none" fill-rule="evenodd">
        <g id="编组-4">
            <circle id="椭圆形备份-3" fill="#FFEDAD" cx="200" cy="200" r="200"></circle>
            <g id="D" transform="translate(140, 132)" fill="#000000" fill-rule="nonzero">
                <path d="M28.0662983,135.690608 C22.9097606,134.80663 19.5211786,132.891344 17.9005525,129.944751 L17.2375691,128.618785 C16.2062615,126.556169 15.6906077,124.861878 15.6906077,123.535912 L15.6906077,27.6243094 C14.9539595,27.9189687 14.2909761,28.1031308 13.7016575,28.1767956 C13.1123389,28.2504604 12.228361,28.2872928 11.0497238,28.2872928 C7.80847145,28.2872928 5.15653775,27.4033149 3.09392265,25.6353591 C1.03130755,23.8674033 0,21.8047882 0,19.4475138 C0,16.0589319 1.91528545,13.1491713 5.74585635,10.718232 C9.57642726,8.28729282 14.1804788,6.26151013 19.558011,4.64088398 C24.9355433,3.02025783 30.4972376,1.84162063 36.2430939,1.10497238 C41.9889503,0.368324125 46.7771639,-2.84217094e-14 50.6077348,-2.84217094e-14 C61.5101289,-2.84217094e-14 71.2338858,1.7679558 79.7790055,5.3038674 C88.3241252,8.83977901 95.5064457,13.5911602 101.325967,19.558011 C107.145488,25.5248619 111.60221,32.4861878 114.696133,40.441989 C117.790055,48.3977901 119.337017,56.7219153 119.337017,65.4143646 C119.337017,74.2541436 117.642726,82.8729282 114.254144,91.2707182 C110.865562,99.6685083 105.856354,107.108656 99.2265193,113.59116 C94.6593002,117.86372 89.5395948,121.289134 83.8674033,123.867403 C78.1952118,126.445672 72.2651934,128.508287 66.0773481,130.055249 C59.8895028,131.60221 53.5543278,132.780847 47.0718232,133.59116 C40.5893186,134.401473 34.4014733,135.101289 28.5082873,135.690608 L28.0662983,135.690608 Z M50.3867403,19.6685083 C48.3241252,19.6685083 46.2246777,19.8158379 44.0883978,20.1104972 C41.9521179,20.4051565 39.7790055,20.6998158 37.5690608,20.9944751 L37.5690608,115.138122 C41.5469613,114.696133 45.7458564,114.143646 50.1657459,113.480663 C54.5856354,112.81768 58.8581952,111.933702 62.9834254,110.828729 C67.1086556,109.723757 70.9760589,108.287293 74.5856354,106.519337 C78.1952118,104.751381 81.252302,102.467772 83.7569061,99.6685083 C88.3241252,94.6593002 91.7495396,89.0239411 94.0331492,82.7624309 C96.3167587,76.5009208 97.4585635,70.0552486 97.4585635,63.4254144 C97.4585635,57.679558 96.4640884,52.1546961 94.4751381,46.8508287 C92.4861878,41.5469613 89.5027624,36.9060773 85.5248619,32.9281768 C81.5469613,28.9502762 76.611418,25.7458564 70.718232,23.3149171 C64.825046,20.8839779 58.0478821,19.6685083 50.3867403,19.6685083 Z" id="形状"></path>
            </g>
        </g>
    </g>
</svg>