<?xml version="1.0" encoding="UTF-8"?>
<svg width="400px" height="400px" viewBox="0 0 400 400" version="1.1" xmlns="http://www.w3.org/2000/svg" xmlns:xlink="http://www.w3.org/1999/xlink">
    <title>编组 5</title>
    <g id="页面-1" stroke="none" stroke-width="1" fill="none" fill-rule="evenodd">
        <g id="编组-5">
            <circle id="椭圆形备份-4" fill="#FFEDAD" cx="200" cy="200" r="200"></circle>
            <g id="E" transform="translate(154, 134)" fill="#000000" fill-rule="nonzero">
                <path d="M78.8950276,108.287293 C83.0202578,107.992634 86.2246777,108.802947 88.5082873,110.718232 C90.7918969,112.633517 91.9337017,114.917127 91.9337017,117.569061 C91.9337017,119.189687 91.3443831,120.847145 90.1657459,122.541436 C88.9871087,124.235727 87.145488,125.745856 84.640884,127.071823 C78.4530387,128.839779 71.8232044,130.202578 64.7513812,131.160221 C57.679558,132.117864 50.53407,132.596685 43.3149171,132.596685 C32.412523,132.596685 22.2467772,131.418048 12.8176796,129.060773 C7.9558011,126.40884 5.67219153,123.093923 5.96685083,119.116022 L5.96685083,23.8674033 C3.90423573,23.1307551 2.39410681,21.9889503 1.43646409,20.441989 C0.478821363,18.8950276 4.54747351e-13,17.2375691 4.54747351e-13,15.4696133 C4.54747351e-13,13.5543278 0.699815838,11.7495396 2.09944751,10.0552486 C3.49907919,8.36095764 5.67219153,6.92449355 8.61878453,5.74585635 C16.8692449,3.2412523 25.3775322,1.73112339 34.1436464,1.21546961 C42.9097606,0.699815838 51.786372,0.44198895 60.7734807,0.44198895 C64.014733,0.44198895 67.2191529,0.405156538 70.3867403,0.331491713 C73.5543278,0.257826888 76.6850829,0.14732965 79.7790055,0 C83.4622468,0.14732965 86.5561694,1.1786372 89.0607735,3.09392265 C91.5653775,5.0092081 92.8176796,7.0718232 92.8176796,9.28176796 C92.8176796,11.4917127 91.9705341,13.5543278 90.2762431,15.4696133 C88.5819521,17.3848987 85.9668508,18.7108656 82.4309392,19.4475138 C79.4843462,19.5948435 76.3535912,19.7053407 73.038674,19.7790055 C69.7237569,19.8526703 66.3720074,19.8895028 62.9834254,19.8895028 C56.9429098,19.8895028 51.0128913,19.9631676 45.1933702,20.1104972 C39.373849,20.2578269 33.5174954,20.7734807 27.6243094,21.6574586 L27.6243094,58.5635359 C29.0976059,58.7108656 30.4972376,58.747698 31.8232044,58.6740331 C33.1491713,58.6003683 34.6224678,58.5635359 36.2430939,58.5635359 C41.9889503,58.5635359 47.771639,58.4162063 53.5911602,58.121547 C59.4106814,57.8268877 65.3406998,57.3848987 71.3812155,56.7955801 C75.5064457,56.5009208 78.7108656,57.3480663 80.9944751,59.3370166 C83.2780847,61.3259669 84.4198895,63.572744 84.4198895,66.0773481 C84.4198895,68.2872928 83.6095764,70.3130755 81.9889503,72.1546961 C80.3683241,73.9963168 77.8637201,75.2854512 74.4751381,76.0220994 C67.9926335,76.7587477 61.5101289,77.3112339 55.0276243,77.679558 C48.5451197,78.0478821 41.9889503,78.2320442 35.359116,78.2320442 C33.7384899,78.2320442 32.4493554,78.2688766 31.4917127,78.3425414 C30.53407,78.4162063 29.2449355,78.3793738 27.6243094,78.2320442 L27.6243094,111.823204 C30.4235727,112.117864 33.1123389,112.375691 35.6906077,112.596685 C38.2688766,112.81768 40.9576427,112.928177 43.7569061,112.928177 C49.7974217,112.928177 55.7642726,112.52302 61.6574586,111.712707 C67.5506446,110.902394 73.2228361,109.760589 78.6740331,108.287293 L78.8950276,108.287293 Z" id="路径"></path>
            </g>
        </g>
    </g>
</svg>