<?xml version="1.0" encoding="UTF-8"?>
<svg width="400px" height="400px" viewBox="0 0 400 400" version="1.1" xmlns="http://www.w3.org/2000/svg" xmlns:xlink="http://www.w3.org/1999/xlink">
    <title>编组 9</title>
    <g id="页面-1" stroke="none" stroke-width="1" fill="none" fill-rule="evenodd">
        <g id="编组-9">
            <circle id="椭圆形备份-9" fill="#FFEDAD" cx="200" cy="200" r="200"></circle>
            <g id="J" transform="translate(144, 130)" fill="#000000" fill-rule="nonzero">
                <path d="M101.21547,0 C104.898711,0.14732965 107.734807,1.21546961 109.723757,3.20441989 C111.712707,5.19337017 112.633517,7.3664825 112.486188,9.72375691 C112.486188,11.9337017 111.675875,13.9226519 110.055249,15.6906077 C108.434622,17.4585635 105.930018,18.7108656 102.541436,19.4475138 C99.8895028,19.5948435 97.1270718,19.6685083 94.2541436,19.6685083 C91.3812155,19.6685083 88.6924494,19.6685083 86.1878453,19.6685083 C86.1878453,32.6335175 86.2246777,45.5616943 86.2983425,58.4530387 C86.3720074,71.3443831 86.4088398,84.2725599 86.4088398,97.2375691 C86.4088398,105.488029 84.3462247,112.854512 80.2209945,119.337017 C76.2430939,125.524862 70.6813996,130.460405 63.5359116,134.143646 C56.3904236,137.826888 48.9871087,139.668508 41.3259669,139.668508 C36.0220994,139.668508 30.9760589,138.747698 26.1878453,136.906077 C21.3996317,135.064457 17.2375691,132.081031 13.7016575,127.955801 L13.9226519,127.955801 C13.480663,127.513812 12.6335175,126.482505 11.3812155,124.861878 C10.1289134,123.241252 8.83977901,121.473297 7.51381215,119.558011 C6.1878453,117.642726 4.97237569,115.87477 3.86740331,114.254144 C2.76243094,112.633517 2.20994475,111.60221 2.20994475,111.160221 C0.73664825,109.244936 0,107.255985 0,105.19337 C0,102.688766 0.957642726,100.515654 2.87292818,98.6740331 C4.78821363,96.8324125 7.21915285,95.9116022 10.1657459,95.9116022 C12.9650092,95.9116022 15.8379374,96.9429098 18.7845304,99.0055249 C20.9944751,101.362799 22.6887661,103.867403 23.8674033,106.519337 C24.7513812,108.139963 25.6721915,109.650092 26.6298343,111.049724 C27.587477,112.449355 28.6556169,113.73849 29.8342541,114.917127 C31.6022099,116.537753 33.5543278,117.753223 35.6906077,118.563536 C37.8268877,119.373849 40,119.779006 42.2099448,119.779006 C45.1565378,119.779006 48.0294659,119.189687 50.8287293,118.01105 C53.6279926,116.832413 56.0589319,115.211786 58.121547,113.149171 C59.5948435,111.823204 60.8103131,110.38674 61.7679558,108.839779 C62.7255985,107.292818 63.3517495,105.709024 63.6464088,104.088398 C64.3830571,98.3425414 64.8618785,92.6703499 65.0828729,87.0718232 C65.3038674,81.4732965 65.4143646,75.8747698 65.4143646,70.2762431 C65.4143646,62.4677716 65.3038674,54.1436464 65.0828729,45.3038674 C64.8618785,36.4640884 64.6040516,28.0662983 64.3093923,20.1104972 C59.0055249,20.4051565 53.6279926,20.5156538 48.1767956,20.441989 C42.7255985,20.3683241 37.4217311,20.3314917 32.2651934,20.3314917 C29.3186004,20.3314917 26.4456722,20.3683241 23.6464088,20.441989 C20.8471455,20.5156538 17.9742173,20.5524862 15.0276243,20.5524862 C11.4917127,19.9631676 8.80294659,18.6740331 6.96132597,16.6850829 C5.11970534,14.6961326 4.27255985,12.5966851 4.4198895,10.3867403 C4.4198895,6.40883978 7.29281768,3.2412523 13.038674,0.883977901 C16.7219153,0.883977901 20.4788214,0.847145488 24.3093923,0.773480663 C28.1399632,0.699815838 31.9705341,0.662983425 35.801105,0.662983425 C40.6629834,0.662983425 45.8563536,0.626151013 51.3812155,0.552486188 C56.9060773,0.478821363 62.5414365,0.44198895 68.2872928,0.44198895 C74.0331492,0.44198895 79.7053407,0.405156538 85.3038674,0.331491713 C90.9023941,0.257826888 96.2062615,0.14732965 101.21547,0 Z" id="路径"></path>
            </g>
        </g>
    </g>
</svg>