<?xml version="1.0" encoding="UTF-8"?>
<svg width="400px" height="400px" viewBox="0 0 400 400" version="1.1" xmlns="http://www.w3.org/2000/svg" xmlns:xlink="http://www.w3.org/1999/xlink">
    <title>编组 13</title>
    <g id="页面-1" stroke="none" stroke-width="1" fill="none" fill-rule="evenodd">
        <g id="编组-13">
            <circle id="椭圆形备份-12" fill="#FFEDAD" cx="200" cy="200" r="200"></circle>
            <g id="M" transform="translate(122, 131)" fill="#000000" fill-rule="nonzero">
                <path d="M156.022099,126.629834 C155.87477,130.460405 154.6593,133.259669 152.375691,135.027624 C150.092081,136.79558 147.624309,137.679558 144.972376,137.679558 C142.467772,137.679558 140.110497,136.832413 137.900552,135.138122 C135.690608,133.443831 134.438306,130.828729 134.143646,127.292818 C133.406998,120.957643 132.559853,114.180479 131.60221,106.961326 C130.644567,99.7421731 129.576427,92.412523 128.39779,84.9723757 C127.219153,77.5322284 125.856354,70.1657459 124.309392,62.8729282 C122.762431,55.5801105 121.104972,48.6924494 119.337017,42.2099448 C116.979742,47.8084715 114.732965,53.5174954 112.596685,59.3370166 C110.460405,65.1565378 108.213628,71.160221 105.856354,77.3480663 C102.909761,85.3038674 99.9631676,93.2596685 97.0165746,101.21547 C94.0699816,109.171271 91.0497238,116.758748 87.9558011,123.977901 C85.3038674,126.924494 82.1362799,128.39779 78.4530387,128.39779 C75.6537753,128.39779 72.6335175,126.998158 69.3922652,124.198895 L29.3922652,45.7458564 C28.8029466,52.0810313 28.213628,58.5267035 27.6243094,65.0828729 C27.0349908,71.6390424 26.4456722,78.305709 25.8563536,85.0828729 L21.6574586,129.944751 C20.4788214,132.891344 18.8950276,135.064457 16.9060773,136.464088 C14.9171271,137.86372 12.8913444,138.563536 10.8287293,138.563536 C8.17679558,138.563536 5.78268877,137.679558 3.64640884,135.911602 C1.51012891,134.143646 0.2946593,131.565378 1.13686838e-13,128.176796 L11.2707182,9.72375691 C11.7127072,6.92449355 12.9650092,4.75138122 15.0276243,3.20441989 C17.0902394,1.65745856 19.4475138,0.883977901 22.0994475,0.883977901 C25.9300184,0.883977901 29.0976059,2.6519337 31.6022099,6.1878453 C35.7274401,13.4069982 39.7790055,20.9576427 43.7569061,28.839779 C47.7348066,36.7219153 51.786372,44.7145488 55.9116022,52.8176796 C59.7421731,60.4788214 63.3149171,67.587477 66.6298343,74.1436464 C69.9447514,80.6998158 73.5174954,87.4401473 77.3480663,94.3646409 C79.558011,88.7661142 81.7679558,83.0202578 83.9779006,77.1270718 C86.1878453,71.2338858 88.4714549,65.1933702 90.8287293,59.0055249 C94.2173112,49.8710866 97.6427256,40.8103131 101.104972,31.8232044 C104.567219,22.8360958 108.066298,14.2173112 111.60221,5.96685083 C113.959484,1.98895028 117.348066,0 121.767956,0 C123.977901,0 126.077348,0.699815838 128.066298,2.09944751 C130.055249,3.49907919 131.491713,5.5985267 132.375691,8.39779006 C135.027624,17.3848987 137.569061,26.8139963 140,36.6850829 C142.430939,46.5561694 144.714549,56.5745856 146.850829,66.7403315 C148.987109,76.9060773 150.828729,87.0718232 152.375691,97.2375691 C153.922652,107.403315 155.138122,117.200737 156.022099,126.629834 Z" id="路径"></path>
            </g>
        </g>
    </g>
</svg>