<?xml version="1.0" encoding="UTF-8"?>
<svg width="400px" height="400px" viewBox="0 0 400 400" version="1.1" xmlns="http://www.w3.org/2000/svg" xmlns:xlink="http://www.w3.org/1999/xlink">
    <title>编组 15</title>
    <g id="页面-1" stroke="none" stroke-width="1" fill="none" fill-rule="evenodd">
        <g id="编组-15">
            <circle id="椭圆形备份-14" fill="#FFEDAD" cx="200" cy="200" r="200"></circle>
            <path d="M260.977901,209 C259.651934,214.156538 257.773481,219.570902 255.342541,225.243094 C252.911602,230.915285 250.001842,236.366483 246.61326,241.596685 C243.224678,246.826888 239.320442,251.578269 234.900552,255.850829 C230.480663,260.123389 225.618785,263.364641 220.314917,265.574586 C215.747698,267.342541 211.290976,268.815838 206.944751,269.994475 C202.598527,271.173112 198.141805,271.762431 193.574586,271.762431 C189.744015,271.762431 185.876611,271.173112 181.972376,269.994475 C178.06814,268.815838 174.127072,267.563536 170.149171,266.237569 C163.961326,264.027624 158.767956,260.823204 154.569061,256.624309 C150.370166,252.425414 146.981584,247.710866 144.403315,242.480663 C141.825046,237.25046 139.946593,231.688766 138.767956,225.79558 C137.589319,219.902394 137,214.009208 137,208.116022 C137,206.053407 137.073665,203.917127 137.220994,201.707182 C137.368324,199.497238 137.589319,197.360958 137.883978,195.298343 C138.620626,190.731123 139.983425,185.758748 141.972376,180.381215 C143.961326,175.003683 146.392265,169.736648 149.265193,164.58011 C152.138122,159.423573 155.379374,154.635359 158.98895,150.21547 C162.598527,145.79558 166.392265,142.186004 170.370166,139.38674 C175.526703,135.998158 181.088398,133.41989 187.055249,131.651934 C193.022099,129.883978 199.173112,129 205.508287,129 C215.674033,129 225.25046,131.504604 234.237569,136.513812 C243.224678,141.52302 250.370166,148.668508 255.674033,157.950276 C258.178637,162.664825 259.983425,167.674033 261.088398,172.977901 C262.19337,178.281768 262.745856,183.511971 262.745856,188.668508 C262.745856,192.05709 262.598527,195.445672 262.303867,198.834254 C262.009208,202.222836 261.567219,205.611418 260.977901,209 Z M210.812155,248.337017 C216.116022,245.537753 220.683241,241.854512 224.513812,237.287293 C228.344383,232.720074 231.511971,227.747698 234.016575,222.370166 C236.521179,216.992634 238.362799,211.394107 239.541436,205.574586 C240.720074,199.755064 241.309392,194.19337 241.309392,188.889503 C241.309392,185.058932 240.941068,181.265193 240.20442,177.508287 C239.467772,173.751381 238.289134,170.178637 236.668508,166.790055 C233.279926,160.60221 228.60221,155.887661 222.635359,152.646409 C216.668508,149.405157 210.370166,147.78453 203.740331,147.78453 C199.909761,147.78453 196.226519,148.410681 192.690608,149.662983 C189.154696,150.915285 185.766114,152.646409 182.524862,154.856354 C178.694291,157.802947 175.268877,161.449355 172.248619,165.79558 C169.228361,170.141805 166.686924,174.745856 164.624309,179.607735 C162.561694,184.469613 160.977901,189.441989 159.872928,194.524862 C158.767956,199.607735 158.21547,204.432781 158.21547,209 C158.21547,214.745856 158.952118,220.233886 160.425414,225.464088 C161.898711,230.694291 164.18232,235.298343 167.276243,239.276243 C170.370166,243.254144 174.237569,246.421731 178.878453,248.779006 C183.519337,251.13628 189.081031,252.314917 195.563536,252.314917 C198.06814,252.314917 200.683241,251.946593 203.40884,251.209945 C206.134438,250.473297 208.60221,249.515654 210.812155,248.337017 Z" id="形状" fill="#000000" fill-rule="nonzero"></path>
        </g>
    </g>
</svg>