<?xml version="1.0" encoding="UTF-8"?>
<svg width="400px" height="400px" viewBox="0 0 400 400" version="1.1" xmlns="http://www.w3.org/2000/svg" xmlns:xlink="http://www.w3.org/1999/xlink">
    <title>编组 17</title>
    <g id="页面-1" stroke="none" stroke-width="1" fill="none" fill-rule="evenodd">
        <g id="编组-17">
            <circle id="椭圆形备份-16" fill="#FFEDAD" cx="200" cy="200" r="200"></circle>
            <path d="M261.497238,260.512537 C265.769797,263.017141 268.053407,265.963734 268.348066,269.352316 C268.495396,271.562261 267.64825,273.624876 265.80663,275.540161 C263.965009,277.455447 261.570902,278.560419 258.624309,278.855079 C256.119705,279.149738 253.983425,278.855079 252.21547,277.971101 L252.436464,277.971101 C239.913444,272.961893 229.084715,267.068707 219.950276,260.291543 C217.887661,261.32285 215.972376,262.243661 214.20442,263.053974 C212.436464,263.864287 210.705341,264.600935 209.01105,265.263918 C207.316759,265.926902 205.475138,266.51622 203.486188,267.031874 C201.497238,267.547528 199.25046,268.026349 196.745856,268.468338 C187.169429,269.499646 178.513812,268.578836 170.779006,265.705907 C163.044199,262.832979 156.3407,258.634084 150.668508,253.109222 C144.996317,247.58436 140.46593,240.954526 137.077348,233.21972 C133.688766,225.484913 131.699816,217.271285 131.110497,208.578836 C130.815838,202.243661 131.110497,195.650659 131.994475,188.79983 C132.878453,181.949001 134.462247,175.282335 136.745856,168.79983 C139.029466,162.317325 141.976059,156.203145 145.585635,150.457289 C149.195212,144.711432 153.578269,139.775889 158.734807,135.650659 C163.744015,131.820088 169.195212,128.726165 175.088398,126.368891 C180.981584,124.011616 187.022099,122.611985 193.209945,122.169996 C203.67035,121.433347 213.688766,123.090806 223.265193,127.142371 C232.841621,131.193937 240.723757,137.934268 246.911602,147.363366 C249.858195,152.077915 252.06814,157.013458 253.541436,162.169996 C255.014733,167.326534 255.972376,172.630401 256.414365,178.081598 C257.151013,191.046607 255.825046,203.385465 252.436464,215.098173 C249.047882,226.81088 243.596685,237.381782 236.082873,246.81088 C239.913444,249.757473 243.854512,252.225244 247.906077,254.214195 C251.957643,256.203145 256.414365,258.228928 261.276243,260.291543 L261.497238,260.512537 Z M205.80663,214.324692 C211.110497,221.543845 215.898711,227.658025 220.171271,232.667233 C226.064457,224.858762 230.189687,216.387307 232.546961,207.252869 C234.904236,198.11843 235.714549,188.983992 234.977901,179.849554 C234.241252,173.956368 232.804788,168.578836 230.668508,163.716957 C228.532228,158.855079 225.6593,154.729848 222.049724,151.341266 C218.440147,147.952685 214.20442,145.374416 209.342541,143.60646 C204.480663,141.838504 199.103131,141.101856 193.209945,141.396515 C189.526703,141.838504 185.917127,142.759314 182.381215,144.158946 C178.845304,145.558578 175.604052,147.73169 172.657459,150.678283 C168.826888,154.066865 165.585635,158.044766 162.933702,162.611985 C160.281768,167.179204 158.108656,172.041082 156.414365,177.19762 C154.720074,182.354158 153.578269,187.58436 152.98895,192.888228 C152.399632,198.192095 152.325967,203.201303 152.767956,207.915852 C153.209945,213.514379 154.425414,218.891911 156.414365,224.048449 C158.403315,229.204987 161.165746,233.661708 164.701657,237.418615 C168.237569,241.175521 172.473297,244.122114 177.40884,246.258394 C182.344383,248.394673 187.906077,249.241819 194.093923,248.79983 C195.714549,248.505171 197.372007,248.136847 199.066298,247.694858 C200.760589,247.252869 202.491713,246.66355 204.259669,245.926902 C201.313076,242.980309 198.697974,239.960051 196.414365,236.866128 C194.130755,233.772206 191.736648,230.457289 189.232044,226.921377 C188.642726,225.890069 188.274401,225.116589 188.127072,224.600935 C187.979742,224.085281 187.537753,222.869812 186.801105,220.954526 C186.653775,218.302592 187.464088,216.055815 189.232044,214.214195 C191,212.372574 193.357274,211.304434 196.303867,211.009775 C200.576427,210.862445 203.744015,211.967417 205.80663,214.324692 Z" id="形状" fill="#000000" fill-rule="nonzero"></path>
        </g>
    </g>
</svg>