<?xml version="1.0" encoding="UTF-8"?>
<svg width="400px" height="400px" viewBox="0 0 400 400" version="1.1" xmlns="http://www.w3.org/2000/svg" xmlns:xlink="http://www.w3.org/1999/xlink">
    <title>编组 18</title>
    <g id="页面-1" stroke="none" stroke-width="1" fill="none" fill-rule="evenodd">
        <g id="编组-18">
            <circle id="椭圆形备份-17" fill="#FFEDAD" cx="200" cy="200" r="200"></circle>
            <g id="R" transform="translate(145, 127)" fill="#000000" fill-rule="nonzero">
                <path d="M29.3922652,133.701657 C29.2449355,137.532228 28.0294659,140.331492 25.7458564,142.099448 C23.4622468,143.867403 20.9944751,144.751381 18.3425414,144.751381 C15.8379374,144.751381 13.5174954,143.904236 11.3812155,142.209945 C9.24493554,140.515654 7.9558011,137.974217 7.51381215,134.585635 L7.51381215,31.160221 C5.45119705,30.4235727 3.68324125,29.2449355 2.20994475,27.6243094 C0.73664825,26.0036832 -4.54747351e-13,24.1620626 -4.54747351e-13,22.0994475 C-4.54747351e-13,18.8581952 1.32596685,16.1325967 3.97790055,13.9226519 C10.6077348,9.65009208 17.9005525,6.26151013 25.8563536,3.75690608 C33.8121547,1.25230203 41.9152855,-2.27373675e-13 50.1657459,-2.27373675e-13 C57.0902394,-2.27373675e-13 63.572744,0.883977901 69.6132597,2.6519337 C75.6537753,4.4198895 81.1786372,7.3664825 86.1878453,11.4917127 C92.3756906,16.3535912 96.7955801,21.5837937 99.4475138,27.1823204 C102.099448,32.7808471 103.425414,38.5267035 103.425414,44.4198895 C103.425414,49.1344383 102.688766,53.7384899 101.21547,58.2320442 C99.7421731,62.7255985 97.6427256,66.961326 94.9171271,70.9392265 C92.1915285,74.9171271 88.9134438,78.5635359 85.0828729,81.878453 C81.252302,85.1933702 76.9060773,87.9558011 72.0441989,90.1657459 L107.18232,129.060773 C109.097606,131.712707 110.055249,134.069982 110.055249,136.132597 C110.055249,138.93186 109.060773,141.178637 107.071823,142.872928 C105.082873,144.567219 102.688766,145.414365 99.8895028,145.414365 C98.2688766,145.414365 96.6482505,145.156538 95.0276243,144.640884 C93.4069982,144.12523 91.9337017,143.130755 90.6077348,141.657459 C89.281768,140.036832 86.7034991,137.090239 82.8729282,132.81768 C79.0423573,128.54512 74.8434622,123.977901 70.2762431,119.116022 C65.7090239,114.254144 61.4732965,109.686924 57.5690608,105.414365 C53.664825,101.141805 51.1233886,98.2688766 49.9447514,96.7955801 C43.0202578,97.9742173 36.1694291,98.6372007 29.3922652,98.7845304 L29.3922652,133.701657 Z M72.2651934,26.2983425 C68.8766114,23.7937385 65.2302026,22.0626151 61.3259669,21.1049724 C57.4217311,20.1473297 53.4069982,19.6685083 49.281768,19.6685083 C42.2099448,19.6685083 35.5801105,20.8471455 29.3922652,23.2044199 L29.3922652,79.1160221 C34.4014733,78.8213628 39.4475138,78.3793738 44.5303867,77.7900552 C49.6132597,77.2007366 54.6593002,75.8747698 59.6685083,73.8121547 C62.7624309,72.7808471 65.6353591,71.1970534 68.2872928,69.0607735 C70.9392265,66.9244936 73.2965009,64.5303867 75.359116,61.878453 C77.4217311,59.2265193 79.0423573,56.3535912 80.2209945,53.2596685 C81.3996317,50.1657459 81.9889503,47.145488 81.9889503,44.198895 C81.9889503,40.8103131 81.252302,37.6058932 79.7790055,34.5856354 C78.305709,31.5653775 75.801105,28.8029466 72.2651934,26.2983425 Z" id="形状"></path>
            </g>
        </g>
    </g>
</svg>