<?xml version="1.0" encoding="UTF-8"?>
<svg width="400px" height="400px" viewBox="0 0 400 400" version="1.1" xmlns="http://www.w3.org/2000/svg" xmlns:xlink="http://www.w3.org/1999/xlink">
    <title>编组 16</title>
    <g id="页面-1" stroke="none" stroke-width="1" fill="none" fill-rule="evenodd">
        <g id="编组-16">
            <circle id="椭圆形备份-15" fill="#FFEDAD" cx="200" cy="200" r="200"></circle>
            <path d="M152.546961,246.254144 C151.515654,244.044199 151,241.981584 151,240.066298 C151,237.414365 151.957643,235.241252 153.872928,233.546961 C155.788214,231.85267 158.219153,231.005525 161.165746,231.005525 C162.786372,231.005525 164.296501,231.300184 165.696133,231.889503 C167.095764,232.478821 168.532228,233.289134 170.005525,234.320442 C175.456722,239.034991 180.760589,242.53407 185.917127,244.81768 C191.073665,247.101289 197.187845,248.243094 204.259669,248.243094 C212.21547,248.243094 217.924494,246.585635 221.38674,243.270718 C224.848987,239.955801 226.72744,235.720074 227.022099,230.563536 C227.169429,225.554328 226.101289,221.46593 223.81768,218.298343 C221.53407,215.130755 218.661142,212.662983 215.198895,210.895028 C211.736648,209.127072 208.016575,207.801105 204.038674,206.917127 C200.060773,206.033149 196.524862,205.370166 193.430939,204.928177 C188.421731,204.044199 183.52302,202.791897 178.734807,201.171271 C173.946593,199.550645 169.710866,197.414365 166.027624,194.762431 C162.344383,192.110497 159.39779,188.832413 157.187845,184.928177 C154.977901,181.023941 153.946593,176.346225 154.093923,170.895028 C154.241252,163.970534 156.046041,158.040516 159.508287,153.104972 C162.970534,148.169429 167.353591,144.154696 172.657459,141.060773 C177.961326,137.966851 183.780847,135.683241 190.116022,134.209945 C196.451197,132.736648 202.712707,132 208.900552,132 C214.05709,132 218.697974,132.515654 222.823204,133.546961 C226.948435,134.578269 230.926335,136.12523 234.756906,138.187845 C236.819521,139.366483 238.32965,140.766114 239.287293,142.38674 C240.244936,144.007366 240.723757,145.627993 240.723757,147.248619 C240.723757,148.427256 240.429098,149.71639 239.839779,151.116022 C239.25046,152.515654 238.403315,153.694291 237.298343,154.651934 C236.19337,155.609576 234.830571,156.309392 233.209945,156.751381 C231.589319,157.19337 229.821363,157.046041 227.906077,156.309392 C224.075506,155.130755 220.244936,154.062615 216.414365,153.104972 C212.583794,152.14733 208.605893,151.668508 204.480663,151.668508 C201.38674,151.668508 198.18232,151.963168 194.867403,152.552486 C191.552486,153.141805 188.532228,154.173112 185.80663,155.646409 C183.081031,157.119705 180.760589,158.998158 178.845304,161.281768 C176.930018,163.565378 175.825046,166.475138 175.530387,170.01105 C175.235727,172.957643 176.267035,175.462247 178.624309,177.524862 C180.981584,179.587477 183.559853,181.244936 186.359116,182.497238 C189.158379,183.74954 191.736648,184.633517 194.093923,185.149171 C196.451197,185.664825 197.556169,185.922652 197.40884,185.922652 C203.449355,187.248619 209.084715,188.611418 214.314917,190.01105 C219.54512,191.410681 225.327808,193.878453 231.662983,197.414365 C237.26151,200.508287 241.53407,204.744015 244.480663,210.121547 C247.427256,215.499079 248.900552,221.429098 248.900552,227.911602 C248.900552,234.541436 247.685083,240.324125 245.254144,245.259669 C242.823204,250.195212 239.54512,254.28361 235.41989,257.524862 C231.294659,260.766114 226.58011,263.233886 221.276243,264.928177 C215.972376,266.622468 210.447514,267.543278 204.701657,267.690608 C199.692449,267.837937 194.646409,267.395948 189.563536,266.364641 C184.480663,265.333333 179.655617,263.860037 175.088398,261.944751 C170.521179,260.029466 166.322284,257.745856 162.491713,255.093923 C158.661142,252.441989 155.41989,249.569061 152.767956,246.475138 L152.546961,246.254144 Z" id="路径" fill="#000000" fill-rule="nonzero"></path>
        </g>
    </g>
</svg>