<?xml version="1.0" encoding="UTF-8"?>
<svg width="400px" height="400px" viewBox="0 0 400 400" version="1.1" xmlns="http://www.w3.org/2000/svg" xmlns:xlink="http://www.w3.org/1999/xlink">
    <title>编组 19</title>
    <g id="页面-1" stroke="none" stroke-width="1" fill="none" fill-rule="evenodd">
        <g id="编组-19">
            <circle id="椭圆形备份-23" fill="#FFEDAD" cx="200" cy="200" r="200"></circle>
            <path d="M240.121547,133.093923 C242.331492,131.031308 245.130755,130 248.519337,130 C251.46593,130 253.896869,130.883978 255.812155,132.651934 C257.72744,134.41989 258.685083,136.703499 258.685083,139.502762 C258.685083,140.6814 258.316759,142.228361 257.58011,144.143646 C251.392265,154.309392 245.020258,163.664825 238.464088,172.209945 C231.907919,180.755064 224.946593,189.594843 217.58011,198.729282 C225.093923,208.01105 232.38674,217.32965 239.458564,226.685083 C246.530387,236.040516 252.791897,245.801105 258.243094,255.966851 C258.537753,257.145488 258.685083,258.324125 258.685083,259.502762 C258.685083,262.449355 257.72744,264.80663 255.812155,266.574586 C253.896869,268.342541 251.46593,269.226519 248.519337,269.226519 C244.983425,269.226519 241.815838,267.753223 239.016575,264.80663 C234.302026,256.11418 228.887661,247.679558 222.773481,239.502762 C216.6593,231.325967 210.434622,223.259669 204.099448,215.303867 C199.826888,220.460405 195.296501,225.801105 190.508287,231.325967 C185.720074,236.850829 181.116022,242.117864 176.696133,247.127072 C173.896869,250.368324 171.208103,253.462247 168.629834,256.40884 C166.051565,259.355433 163.362799,262.52302 160.563536,265.911602 C157.616943,267.679558 154.891344,268.563536 152.38674,268.563536 C149.292818,268.563536 146.788214,267.71639 144.872928,266.022099 C142.957643,264.327808 142,262.081031 142,259.281768 C142,257.366483 142.736648,255.230203 144.209945,252.872928 L159.237569,235.19337 C164.394107,229.152855 169.624309,223.038674 174.928177,216.850829 C180.232044,210.662983 185.462247,204.475138 190.618785,198.287293 C183.694291,189.152855 176.696133,180.497238 169.624309,172.320442 C162.552486,164.143646 154.744015,156.372007 146.198895,149.005525 C143.399632,146.353591 142,143.627993 142,140.828729 C142,138.324125 142.957643,136.151013 144.872928,134.309392 C146.788214,132.467772 149.292818,131.546961 152.38674,131.546961 C155.480663,131.546961 158.132597,132.430939 160.342541,134.198895 C168.887661,141.712707 176.585635,149.300184 183.436464,156.961326 C190.287293,164.622468 197.248619,172.946593 204.320442,181.933702 L207.414365,177.955801 C213.012891,170.883978 218.427256,163.88582 223.657459,156.961326 C228.887661,150.036832 234.228361,142.154696 239.679558,133.314917 L240.121547,133.093923 Z" id="路径" fill="#000000" fill-rule="nonzero"></path>
        </g>
    </g>
</svg>